{"glyphs":{"0":{"ha":806,"x_min":61,"x_max":744,"o":"m 61 649 q 85 778 61 717 q 154 888 110 840 q 261 962 199 935 q 401 989 324 989 q 542 962 479 989 q 651 888 606 935 q 720 778 696 840 q 744 649 744 717 l 744 324 q 720 193 744 254 q 651 85 696 132 q 542 10 606 38 q 401 -17 479 -17 q 261 10 324 -17 q 154 85 199 38 q 85 193 110 132 q 61 324 61 254 l 61 649 m 585 649 q 572 724 585 689 q 535 787 558 760 q 477 830 511 814 q 401 846 443 846 q 326 830 360 846 q 269 787 293 814 q 233 724 246 760 q 221 649 221 689 l 221 324 q 233 248 221 283 q 269 185 246 213 q 326 142 293 158 q 401 126 360 126 q 477 142 443 126 q 535 185 511 158 q 572 248 558 213 q 585 324 585 283 l 585 649 z "},"1":{"ha":508,"x_min":42,"x_max":407,"o":"m 42 811 q 150 820 108 811 q 215 848 192 829 q 247 897 239 867 q 256 972 256 928 l 407 972 l 407 0 l 242 0 l 242 685 l 42 685 l 42 811 z "},"2":{"ha":732,"x_min":65,"x_max":676,"o":"m 65 0 q 85 193 65 115 q 139 325 104 271 q 222 417 174 379 q 325 490 269 454 q 391 531 357 510 q 453 577 425 551 q 499 635 481 603 q 517 713 517 668 q 476 815 517 783 q 376 846 436 846 q 269 808 314 846 q 225 685 225 769 l 65 685 q 91 815 65 758 q 160 910 117 872 q 260 969 204 949 q 378 989 317 989 q 495 971 440 989 q 590 916 550 953 q 653 824 631 879 q 676 697 676 769 q 644 578 676 631 q 569 485 613 525 q 483 418 526 446 q 415 374 439 390 q 330 308 363 336 q 279 256 297 281 q 255 204 261 231 q 249 143 249 178 l 671 143 l 671 0 l 65 0 l 65 0 z "},"3":{"ha":790,"x_min":46,"x_max":714,"o":"m 206 325 q 220 241 206 278 q 260 178 235 204 q 319 140 285 153 q 392 126 353 126 q 460 139 429 126 q 511 172 490 151 q 543 221 532 193 q 554 278 554 249 q 545 342 554 313 q 516 392 536 371 q 463 426 496 414 q 379 439 429 439 l 314 439 l 314 581 l 381 581 q 499 620 467 581 q 531 722 531 660 q 492 815 531 785 q 393 846 454 846 q 273 801 307 846 q 239 685 239 757 l 79 685 q 101 808 79 753 q 164 904 124 864 q 260 967 204 944 q 382 989 315 989 q 501 970 444 989 q 599 916 557 951 q 665 831 640 881 q 690 722 690 782 q 653 586 690 639 q 558 508 617 533 q 669 427 625 482 q 714 279 714 372 q 688 158 714 213 q 617 65 661 104 q 512 5 572 26 q 385 -17 451 -17 q 257 6 318 -17 q 149 73 196 29 q 74 180 103 117 q 46 325 46 243 l 206 325 z "},"4":{"ha":776,"x_min":90,"x_max":738,"o":"m 444 292 l 90 292 l 90 972 l 250 972 l 250 435 l 444 435 l 444 726 l 604 726 l 604 435 l 738 435 l 738 292 l 604 292 l 604 0 l 444 0 l 444 292 z "},"5":{"ha":842,"x_min":89,"x_max":772,"o":"m 106 972 l 696 972 l 696 829 l 249 829 l 249 560 q 289 607 264 588 q 343 639 314 626 q 402 657 372 651 q 457 663 432 663 q 594 635 535 663 q 692 562 653 608 q 752 453 732 515 q 772 324 772 392 q 748 193 772 254 q 678 85 724 132 q 570 10 633 38 q 429 -17 507 -17 q 289 10 351 -17 q 182 85 226 38 q 113 193 138 132 q 89 324 89 254 l 249 324 q 261 248 249 283 q 297 185 274 213 q 354 142 321 158 q 429 126 388 126 q 505 142 471 126 q 563 185 539 158 q 600 248 588 213 q 613 324 613 283 q 600 399 613 364 q 563 462 588 435 q 505 505 539 489 q 429 521 471 521 q 335 495 376 521 q 265 414 293 469 l 106 414 l 106 972 z "},"6":{"ha":790,"x_min":51,"x_max":735,"o":"m 392 -17 q 251 10 314 -17 q 144 85 189 38 q 76 193 100 132 q 51 324 51 254 q 68 430 51 379 q 113 525 85 481 l 392 972 l 575 972 l 371 663 q 392 664 378 664 q 533 637 469 664 q 641 563 596 610 q 710 453 686 515 q 735 324 735 392 q 710 193 735 254 q 641 85 686 132 q 533 10 596 38 q 392 -17 469 -17 m 392 126 q 467 142 433 126 q 525 185 501 158 q 562 248 549 213 q 575 324 575 283 q 562 399 575 364 q 525 462 549 435 q 467 505 501 489 q 392 521 433 521 q 317 505 350 521 q 260 462 283 489 q 224 399 236 435 q 211 324 211 364 q 224 248 211 283 q 260 185 236 213 q 317 142 283 158 q 392 126 350 126 z "},"7":{"ha":665,"x_min":53,"x_max":672,"o":"m 672 972 l 258 0 l 89 0 l 447 829 l 53 829 l 53 972 l 672 972 z "},"8":{"ha":818,"x_min":76,"x_max":742,"o":"m 410 -17 q 270 7 332 -17 q 165 72 208 31 q 99 166 122 113 q 76 281 76 219 q 85 351 76 315 q 110 417 93 386 q 154 474 128 449 q 218 511 181 499 q 126 597 153 540 q 100 713 100 654 q 121 819 100 768 q 182 907 142 869 q 279 967 222 944 q 410 989 336 989 q 540 967 482 989 q 637 906 597 944 q 697 818 676 868 q 718 713 718 768 q 692 597 718 654 q 600 511 665 540 q 664 474 638 499 q 708 417 690 449 q 733 349 725 385 q 742 281 742 314 q 719 169 742 222 q 653 74 696 115 q 549 8 611 32 q 410 -17 488 -17 m 410 564 q 472 576 444 564 q 519 607 500 588 q 548 652 538 626 q 558 706 558 678 q 548 758 558 733 q 519 803 538 783 q 472 834 500 822 q 410 846 444 846 q 346 835 374 846 q 299 804 318 824 q 270 759 281 785 q 260 706 260 733 q 270 651 260 676 q 299 606 281 625 q 346 575 318 586 q 410 564 374 564 m 410 126 q 482 139 450 126 q 536 173 514 151 q 570 222 558 194 q 582 281 582 250 q 571 338 582 310 q 538 388 560 367 q 483 423 515 410 q 410 436 451 436 q 335 424 368 436 q 281 390 303 411 q 247 340 258 368 q 236 281 236 311 q 248 221 236 249 q 282 172 260 193 q 337 139 304 151 q 410 126 369 126 z "},"9":{"ha":790,"x_min":56,"x_max":739,"o":"m 399 989 q 538 962 475 989 q 646 888 601 935 q 715 778 690 840 q 739 649 739 717 q 722 542 739 592 q 676 447 704 492 l 399 0 l 215 0 l 419 308 q 269 334 336 308 q 155 405 203 360 q 81 513 107 450 q 56 649 56 575 q 80 778 56 717 q 149 888 104 840 q 257 962 193 935 q 399 989 321 989 m 399 846 q 323 830 357 846 q 265 787 289 814 q 228 724 242 760 q 215 649 215 689 q 228 573 215 608 q 265 510 242 538 q 323 467 289 483 q 399 451 357 451 q 474 467 440 451 q 531 510 507 483 q 567 573 554 538 q 579 649 579 608 q 567 724 579 689 q 531 787 554 760 q 474 830 507 814 q 399 846 440 846 z "}," ":{"ha":347,"x_min":0,"x_max":0,"o":""},"!":{"ha":429,"x_min":97,"x_max":332,"o":"m 132 972 l 297 972 l 297 310 l 132 310 l 132 972 m 97 94 q 106 140 97 118 q 131 177 115 161 q 168 202 147 193 q 214 211 189 211 q 260 202 239 211 q 298 177 282 193 q 323 140 314 161 q 332 94 332 118 q 323 49 332 71 q 298 12 314 28 q 260 -14 282 -4 q 214 -24 239 -24 q 168 -14 189 -24 q 131 12 147 -4 q 106 49 115 28 q 97 94 97 71 z "},"\"":{"ha":540,"x_min":83,"x_max":457,"o":"m 83 857 l 83 996 l 226 996 l 226 857 l 190 647 l 119 647 l 83 857 m 314 857 l 314 996 l 457 996 l 457 857 l 421 647 l 350 647 l 314 857 z "},"#":{"ha":763,"x_min":40,"x_max":724,"o":"m 429 283 l 288 283 l 247 0 l 125 0 l 164 283 l 40 283 l 40 400 l 181 400 l 204 572 l 82 572 l 82 689 l 221 689 l 260 972 l 383 972 l 344 689 l 486 689 l 525 972 l 649 972 l 610 689 l 724 689 l 724 572 l 593 572 l 569 400 l 682 400 l 682 283 l 553 283 l 513 0 l 390 0 l 429 283 m 304 400 l 446 400 l 469 572 l 328 572 l 304 400 z "},"$":{"ha":790,"x_min":113,"x_max":781,"o":"m 506 990 q 606 956 560 982 q 686 892 653 931 q 738 802 719 853 q 757 692 757 751 l 597 692 q 558 808 597 764 q 451 853 519 853 q 349 822 392 853 q 306 729 306 792 q 317 677 306 700 q 349 638 329 654 q 394 608 369 621 q 447 586 419 596 q 563 542 504 565 q 671 483 622 518 q 750 400 719 449 q 781 282 781 351 q 759 163 781 215 q 701 72 738 110 q 614 12 664 35 q 506 -19 564 -11 l 506 -167 l 392 -167 l 392 -19 q 284 15 335 -11 q 195 84 233 42 q 135 185 157 126 q 113 318 113 244 l 272 318 q 325 171 272 222 q 461 119 378 119 q 524 130 494 119 q 574 159 553 140 q 608 204 596 178 q 621 264 621 231 q 606 326 621 301 q 569 369 592 351 q 519 398 546 386 q 467 418 492 410 q 342 466 400 442 q 240 524 283 490 q 171 607 196 558 q 146 729 146 656 q 165 827 146 782 q 217 906 183 872 q 295 962 250 940 q 392 992 340 983 l 392 1139 l 506 1139 l 506 990 z "},"%":{"ha":1319,"x_min":113,"x_max":1206,"o":"m 1206 179 q 1191 106 1206 140 q 1150 45 1176 71 q 1086 4 1124 19 q 1001 -11 1049 -11 q 917 4 954 -11 q 853 45 879 19 q 813 106 826 71 q 799 179 799 140 l 799 356 q 813 428 799 394 q 853 489 826 463 q 917 531 879 515 q 1001 546 954 546 q 1086 531 1049 546 q 1150 489 1124 515 q 1191 428 1176 463 q 1206 356 1206 394 l 1206 179 m 921 179 q 943 117 921 143 q 1001 92 965 92 q 1061 117 1039 92 q 1083 179 1083 143 l 1083 356 q 1061 417 1083 392 q 1001 443 1039 443 q 943 417 965 443 q 921 356 921 392 l 921 179 m 113 617 l 113 793 q 126 866 113 832 q 167 926 140 900 q 231 968 193 953 q 315 983 268 983 q 400 968 363 983 q 464 926 438 953 q 505 866 490 900 q 519 793 519 832 l 519 617 q 505 543 519 578 q 464 483 490 508 q 400 442 438 457 q 315 426 363 426 q 231 442 268 426 q 167 483 193 457 q 126 543 140 508 q 113 617 113 578 m 397 793 q 375 855 397 829 q 315 881 353 881 q 257 855 279 881 q 235 793 235 829 l 235 617 q 257 555 235 581 q 315 529 279 529 q 375 555 353 529 q 397 617 397 581 l 397 793 m 892 1044 l 1013 975 l 406 -71 l 285 -1 l 892 1044 z "},"&":{"ha":832,"x_min":61,"x_max":803,"o":"m 469 465 l 803 465 l 803 324 l 729 324 q 701 178 729 242 q 625 72 672 115 q 518 6 578 29 q 394 -17 458 -17 q 272 4 332 -17 q 165 65 213 25 q 90 161 118 104 q 61 292 61 218 q 73 365 61 333 q 106 423 85 397 q 155 469 126 449 q 217 508 183 490 q 121 588 157 542 q 85 722 85 635 q 110 831 85 782 q 176 916 135 881 q 274 970 218 951 q 390 989 329 989 q 513 967 457 989 q 609 904 568 944 q 673 808 650 864 q 696 685 696 753 l 536 685 q 501 801 536 757 q 383 846 467 846 q 283 815 322 846 q 244 722 244 785 q 251 667 244 693 q 276 622 258 640 q 326 592 294 603 q 407 581 357 581 l 407 439 q 263 392 304 439 q 221 274 221 346 q 233 219 221 246 q 267 172 244 193 q 322 139 289 151 q 394 126 354 126 q 459 140 428 126 q 515 178 490 153 q 554 240 539 203 q 569 324 569 276 l 469 324 l 469 465 z "},"'":{"ha":310,"x_min":83,"x_max":226,"o":"m 83 857 l 83 996 l 226 996 l 226 857 l 190 647 l 119 647 l 83 857 z "},"(":{"ha":542,"x_min":146,"x_max":486,"o":"m 486 960 q 411 944 444 960 q 354 901 378 928 q 318 838 331 874 q 306 763 306 803 l 306 0 q 318 -76 306 -40 q 354 -138 331 -111 q 411 -181 378 -165 q 486 -197 444 -197 l 486 -340 q 346 -313 408 -340 q 239 -239 283 -286 q 170 -131 194 -192 q 146 0 146 -69 l 146 763 q 170 892 146 831 q 239 1001 194 954 q 346 1076 283 1049 q 486 1103 408 1103 l 486 960 z "},")":{"ha":542,"x_min":56,"x_max":396,"o":"m 56 1103 q 195 1076 132 1103 q 303 1001 258 1049 q 372 892 347 954 q 396 763 396 831 l 396 0 q 372 -131 396 -69 q 303 -239 347 -192 q 195 -313 258 -286 q 56 -340 132 -340 l 56 -197 q 131 -181 97 -197 q 188 -138 164 -165 q 224 -76 211 -111 q 236 0 236 -40 l 236 763 q 224 838 236 803 q 188 901 211 874 q 131 944 164 928 q 56 960 97 960 l 56 1103 z "},"*":{"ha":642,"x_min":76,"x_max":565,"o":"m 124 563 l 272 735 l 76 782 l 107 874 l 289 796 l 269 996 l 372 996 l 353 796 l 535 874 l 565 782 l 369 735 l 518 563 l 432 501 l 321 690 l 210 501 l 124 563 z "},"+":{"ha":806,"x_min":122,"x_max":683,"o":"m 326 115 l 326 328 l 122 328 l 122 463 l 326 463 l 326 676 l 478 676 l 478 463 l 683 463 l 683 328 l 478 328 l 478 115 l 326 115 z "},",":{"ha":404,"x_min":83,"x_max":321,"o":"m 83 103 q 116 183 83 150 q 194 215 149 215 q 286 176 251 215 q 321 72 321 136 q 305 -36 321 8 q 259 -108 289 -81 q 186 -149 229 -136 q 89 -161 143 -161 l 89 -90 q 149 -83 125 -90 q 190 -62 174 -75 q 213 -33 206 -49 q 224 0 221 -17 q 213 -6 221 -3 q 194 -8 204 -8 q 113 24 143 -8 q 83 103 83 57 z "},"-":{"ha":408,"x_min":42,"x_max":367,"o":"m 367 328 l 42 328 l 42 463 l 367 463 l 367 328 z "},".":{"ha":390,"x_min":83,"x_max":307,"o":"m 83 103 q 116 183 83 150 q 194 215 149 215 q 274 183 242 215 q 307 103 307 150 q 274 24 307 57 q 194 -8 242 -8 q 116 24 149 -8 q 83 103 83 57 z "},"/":{"ha":629,"x_min":-1,"x_max":643,"o":"m 504 1139 l 643 1079 l 138 -96 l -1 -36 l 504 1139 z "},":":{"ha":390,"x_min":83,"x_max":307,"o":"m 83 560 q 116 640 83 607 q 194 672 149 672 q 274 640 242 672 q 307 560 307 607 q 274 481 307 514 q 194 449 242 449 q 116 481 149 449 q 83 560 83 514 m 83 103 q 116 183 83 150 q 194 215 149 215 q 274 183 242 215 q 307 103 307 150 q 274 24 307 57 q 194 -8 242 -8 q 116 24 149 -8 q 83 103 83 57 z "},";":{"ha":404,"x_min":83,"x_max":321,"o":"m 83 103 q 116 183 83 150 q 194 215 149 215 q 286 176 251 215 q 321 72 321 136 q 305 -36 321 8 q 259 -108 289 -81 q 186 -149 229 -136 q 89 -161 143 -161 l 89 -90 q 149 -83 125 -90 q 190 -62 174 -75 q 213 -33 206 -49 q 224 0 221 -17 q 213 -6 221 -3 q 194 -8 204 -8 q 113 24 143 -8 q 83 103 83 57 m 83 560 q 116 640 83 607 q 194 672 149 672 q 274 640 242 672 q 307 560 307 607 q 274 481 307 514 q 194 449 242 449 q 116 481 149 449 q 83 560 83 514 z "},"<":{"ha":806,"x_min":51,"x_max":756,"o":"m 51 340 l 51 447 l 756 692 l 756 549 l 275 394 l 756 239 l 756 96 l 51 340 z "},"=":{"ha":806,"x_min":122,"x_max":683,"o":"m 122 435 l 122 569 l 683 569 l 683 435 l 122 435 m 122 218 l 122 353 l 683 353 l 683 218 l 122 218 z "},">":{"ha":806,"x_min":50,"x_max":754,"o":"m 50 96 l 50 239 l 531 394 l 50 549 l 50 692 l 754 447 l 754 340 l 50 96 z "},"?":{"ha":710,"x_min":33,"x_max":644,"o":"m 242 261 q 246 344 242 307 q 262 414 250 382 q 294 474 274 446 q 350 528 315 503 q 394 562 371 543 q 438 603 418 581 q 472 654 458 626 q 485 715 485 682 q 444 814 485 782 q 339 846 403 846 q 283 837 310 846 q 237 808 257 828 q 205 757 217 788 q 193 685 193 726 l 33 685 q 58 815 33 758 q 125 910 83 872 q 222 969 167 949 q 339 989 278 989 q 457 969 401 989 q 554 915 513 950 q 620 828 596 879 q 644 715 644 778 q 629 628 644 667 q 591 560 614 590 q 542 508 568 531 q 497 469 517 486 q 442 422 463 442 q 412 380 422 401 q 398 331 401 358 q 394 261 394 303 l 242 261 m 201 94 q 210 140 201 118 q 235 177 219 161 q 272 202 251 193 q 318 211 293 211 q 365 202 343 211 q 402 177 386 193 q 427 140 418 161 q 436 94 436 118 q 427 49 436 71 q 402 12 418 28 q 365 -14 386 -4 q 318 -24 343 -24 q 272 -14 293 -24 q 235 12 251 -4 q 210 49 219 28 q 201 94 201 71 z "},"@":{"ha":1151,"x_min":28,"x_max":1158,"o":"m 731 89 q 658 25 706 49 q 563 1 610 1 q 449 24 500 1 q 360 86 397 47 q 303 177 324 125 q 283 286 283 229 q 303 396 283 344 q 360 487 324 447 q 449 549 397 526 q 563 572 500 572 q 658 549 610 572 q 731 485 706 526 l 731 558 l 857 558 l 857 196 q 875 102 857 133 q 933 71 893 71 q 969 83 951 71 q 1000 128 986 96 q 1022 218 1014 161 q 1031 365 1031 275 q 1000 519 1031 450 q 915 638 969 589 q 786 713 861 686 q 621 739 711 739 q 442 708 526 739 q 293 618 357 676 q 192 476 229 560 q 154 286 154 392 q 184 121 154 201 q 274 -22 214 40 q 423 -123 333 -85 q 632 -161 513 -161 q 739 -149 679 -161 q 865 -103 799 -137 l 911 -201 q 760 -260 832 -246 q 632 -275 689 -275 q 367 -227 481 -275 q 178 -101 254 -179 q 65 78 103 -22 q 28 286 28 179 q 75 522 28 417 q 203 701 122 628 q 392 813 285 774 q 621 853 500 853 q 840 819 740 853 q 1010 722 939 785 q 1119 568 1081 658 q 1158 365 1158 478 q 1142 179 1158 257 q 1093 52 1125 101 q 1015 -20 1061 3 q 910 -43 969 -43 q 793 -3 836 -43 q 731 89 750 36 m 568 115 q 635 129 606 115 q 686 166 665 143 q 719 220 707 189 q 731 286 731 251 q 719 353 731 321 q 686 408 707 385 q 635 444 665 431 q 568 458 606 458 q 503 444 532 458 q 454 408 475 431 q 422 353 433 385 q 411 286 411 321 q 422 220 411 251 q 454 166 433 189 q 503 129 475 143 q 568 115 532 115 z "},"A":{"ha":793,"x_min":4,"x_max":789,"o":"m 621 0 l 579 124 l 214 124 l 172 0 l 4 0 l 340 972 l 453 972 l 789 0 l 621 0 m 397 707 l 263 267 l 531 267 l 397 707 z "},"B":{"ha":831,"x_min":101,"x_max":754,"o":"m 101 972 l 433 972 q 594 945 533 972 q 690 878 656 918 q 735 793 724 839 q 746 710 746 747 q 731 627 746 664 q 691 563 715 590 q 636 519 667 536 q 575 494 606 501 q 629 481 599 494 q 688 440 660 467 q 735 372 715 413 q 754 275 754 331 q 742 190 754 238 q 694 99 729 142 q 597 28 660 57 q 435 0 535 0 l 101 0 l 101 972 m 261 421 l 261 143 l 442 143 q 520 156 490 143 q 567 190 550 169 q 589 235 583 211 q 594 281 594 260 q 588 323 594 299 q 565 369 582 347 q 518 406 547 390 q 443 421 489 421 l 261 421 m 433 564 q 512 578 482 564 q 558 612 542 592 q 581 655 575 632 q 586 696 586 678 q 581 737 586 714 q 558 781 575 760 q 512 815 542 801 q 433 829 482 829 l 261 829 l 261 564 l 433 564 z "},"C":{"ha":1076,"x_min":53,"x_max":1025,"o":"m 1025 313 q 968 181 1008 242 q 868 74 928 119 q 731 2 808 28 q 564 -24 653 -24 q 350 18 444 -24 q 190 130 256 60 q 88 292 124 200 q 53 488 53 385 q 87 678 53 586 q 185 840 121 769 q 341 953 250 911 q 547 996 432 996 q 740 966 656 996 q 883 885 824 936 q 978 766 943 835 q 1025 618 1014 697 l 857 618 q 824 711 849 668 q 763 785 800 754 q 677 835 726 817 q 568 853 628 853 q 419 822 485 853 q 308 741 353 792 q 240 624 264 690 q 217 488 217 558 q 241 346 217 413 q 312 228 265 279 q 427 149 358 178 q 585 119 496 119 q 669 134 626 119 q 747 174 711 149 q 810 235 783 200 q 850 313 838 271 l 1025 313 z "},"D":{"ha":974,"x_min":101,"x_max":921,"o":"m 417 972 q 631 931 538 972 q 790 821 725 889 q 888 665 854 753 q 921 486 921 578 q 888 307 921 394 q 790 151 854 219 q 631 42 725 83 q 417 0 538 0 l 101 0 l 101 972 l 417 972 m 261 829 l 261 143 l 417 143 q 561 172 497 143 q 668 249 625 201 q 734 359 711 297 q 757 486 757 421 q 734 613 757 551 q 668 723 711 675 q 561 800 625 771 q 417 829 497 829 l 261 829 z "},"E":{"ha":757,"x_min":101,"x_max":663,"o":"m 261 829 l 261 554 l 663 554 l 663 411 l 261 411 l 261 143 l 663 143 l 663 0 l 101 0 l 101 972 l 663 972 l 663 829 l 261 829 z "},"F":{"ha":747,"x_min":101,"x_max":663,"o":"m 261 829 l 261 521 l 663 521 l 663 378 l 261 378 l 261 0 l 101 0 l 101 972 l 663 972 l 663 829 l 261 829 z "},"G":{"ha":1164,"x_min":53,"x_max":1133,"o":"m 671 488 l 1133 488 l 1133 344 l 1026 344 q 972 195 1010 263 q 874 79 933 128 q 735 3 815 31 q 553 -24 654 -24 q 340 19 433 -24 q 183 132 247 61 q 86 295 119 203 q 53 486 53 388 q 88 677 53 585 q 188 840 122 769 q 345 953 253 911 q 553 996 438 996 q 712 971 639 996 q 840 903 785 946 q 928 802 894 860 q 967 681 961 744 l 806 681 q 778 748 799 717 q 724 803 757 779 q 647 840 690 826 q 553 853 603 853 q 413 822 475 853 q 306 741 350 792 q 240 624 263 690 q 217 486 217 557 q 239 349 217 415 q 306 231 261 282 q 417 150 350 181 q 574 119 483 119 q 685 138 636 119 q 770 187 735 156 q 828 259 806 218 q 857 344 850 300 l 671 344 l 671 488 z "},"H":{"ha":924,"x_min":101,"x_max":822,"o":"m 663 411 l 261 411 l 261 0 l 101 0 l 101 972 l 261 972 l 261 554 l 663 554 l 663 972 l 822 972 l 822 0 l 663 0 l 663 411 z "},"I":{"ha":368,"x_min":101,"x_max":267,"o":"m 101 972 l 267 972 l 267 0 l 101 0 l 101 972 z "},"J":{"ha":744,"x_min":17,"x_max":650,"o":"m 650 315 q 629 183 650 244 q 567 75 608 121 q 467 3 526 29 q 332 -24 408 -24 q 198 3 257 -24 q 99 76 139 29 q 38 184 58 122 q 17 317 17 246 l 176 317 q 215 174 176 229 q 332 119 253 119 q 451 174 411 119 q 490 315 490 228 l 490 972 l 650 972 l 650 315 z "},"K":{"ha":843,"x_min":101,"x_max":822,"o":"m 261 426 l 261 0 l 101 0 l 101 972 l 261 972 l 261 544 l 622 972 l 822 972 l 411 486 l 822 0 l 622 0 l 261 426 z "},"L":{"ha":596,"x_min":101,"x_max":561,"o":"m 561 143 l 561 0 l 101 0 l 101 972 l 261 972 l 261 143 l 561 143 z "},"M":{"ha":1129,"x_min":101,"x_max":1028,"o":"m 1028 0 l 868 0 l 868 601 l 625 0 l 504 0 l 261 601 l 261 0 l 101 0 l 101 972 l 254 972 l 565 249 l 875 972 l 1028 972 l 1028 0 z "},"N":{"ha":922,"x_min":101,"x_max":821,"o":"m 661 281 l 661 972 l 821 972 l 821 0 l 646 0 l 261 692 l 261 0 l 101 0 l 101 972 l 276 972 l 661 281 z "},"O":{"ha":1111,"x_min":53,"x_max":1058,"o":"m 556 -24 q 345 19 439 -24 q 187 132 251 61 q 88 295 122 203 q 53 486 53 388 q 88 677 53 585 q 187 840 122 769 q 345 953 251 911 q 556 996 439 996 q 766 953 672 996 q 924 840 860 911 q 1024 677 989 769 q 1058 486 1058 585 q 1024 295 1058 388 q 924 132 989 203 q 766 19 860 61 q 556 -24 672 -24 m 556 119 q 695 150 633 119 q 801 232 757 181 q 867 349 844 283 q 890 486 890 415 q 867 623 890 557 q 801 740 844 689 q 695 822 757 792 q 556 853 633 853 q 416 822 478 853 q 310 740 354 792 q 244 623 267 689 q 221 486 221 557 q 244 349 221 415 q 310 232 267 283 q 416 150 354 181 q 556 119 478 119 z "},"P":{"ha":828,"x_min":101,"x_max":793,"o":"m 101 972 l 450 972 q 591 945 528 972 q 699 871 654 918 q 769 762 744 824 q 793 632 793 700 q 769 501 793 563 q 699 393 744 440 q 591 319 654 346 q 450 292 528 292 l 261 292 l 261 0 l 101 0 l 101 972 m 450 435 q 526 451 492 435 q 583 494 560 467 q 620 556 607 521 q 633 632 633 592 q 620 708 633 672 q 583 770 607 743 q 526 813 560 797 q 450 829 492 829 l 261 829 l 261 435 l 450 435 z "},"Q":{"ha":1111,"x_min":53,"x_max":1058,"o":"m 1058 486 q 1036 332 1058 407 q 972 193 1014 257 q 867 80 929 129 q 728 4 806 31 l 811 -112 l 671 -183 l 554 -24 q 344 19 438 -24 q 187 133 251 63 q 88 296 122 204 q 53 486 53 388 q 88 677 53 585 q 187 840 122 769 q 345 953 251 911 q 556 996 439 996 q 766 953 672 996 q 924 840 860 911 q 1024 677 989 769 q 1058 486 1058 585 m 556 119 q 695 150 633 119 q 801 232 757 181 q 867 349 844 283 q 890 486 890 415 q 867 623 890 557 q 801 740 844 689 q 695 822 757 792 q 556 853 633 853 q 416 822 478 853 q 310 740 354 792 q 244 623 267 689 q 221 486 221 557 q 244 349 221 415 q 310 232 267 283 q 416 150 354 181 q 556 119 478 119 z "},"R":{"ha":846,"x_min":101,"x_max":793,"o":"m 101 972 l 450 972 q 591 945 528 972 q 699 871 654 918 q 769 762 744 824 q 793 632 793 700 q 779 531 793 579 q 738 442 765 483 q 673 369 711 401 q 588 317 635 336 l 781 0 l 599 0 l 421 292 l 261 292 l 261 0 l 101 0 l 101 972 m 450 435 q 526 451 492 435 q 583 494 560 467 q 620 556 607 521 q 633 632 633 592 q 620 708 633 672 q 583 770 607 743 q 526 813 560 797 q 450 829 492 829 l 261 829 l 261 435 l 450 435 z "},"S":{"ha":790,"x_min":58,"x_max":726,"o":"m 218 318 q 271 171 218 222 q 407 119 324 119 q 469 130 440 119 q 520 159 499 140 q 554 204 542 178 q 567 264 567 231 q 552 326 567 301 q 515 369 538 351 q 465 398 492 386 q 413 418 438 410 q 288 466 346 442 q 185 524 229 490 q 117 607 142 558 q 92 729 92 656 q 116 838 92 789 q 181 923 140 888 q 277 977 222 958 q 393 996 332 996 q 515 974 458 996 q 614 911 572 951 q 679 815 656 871 q 703 692 703 760 l 543 692 q 504 808 543 764 q 397 853 465 853 q 294 822 338 853 q 251 729 251 792 q 263 677 251 700 q 295 638 275 654 q 340 608 315 621 q 393 586 365 596 q 509 542 450 565 q 617 483 568 518 q 696 400 665 449 q 726 282 726 351 q 700 150 726 207 q 628 54 674 93 q 522 -4 582 15 q 393 -24 461 -24 q 266 -1 326 -24 q 160 66 206 22 q 86 173 114 110 q 58 318 58 236 l 218 318 z "},"T":{"ha":669,"x_min":14,"x_max":656,"o":"m 254 829 l 14 829 l 14 972 l 656 972 l 656 829 l 414 829 l 414 0 l 254 0 l 254 829 z "},"U":{"ha":889,"x_min":94,"x_max":794,"o":"m 94 972 l 254 972 l 254 325 q 267 246 254 283 q 306 181 281 208 q 365 136 331 153 q 443 119 400 119 q 522 136 486 119 q 582 181 557 153 q 621 246 607 208 q 635 325 635 283 l 635 972 l 794 972 l 794 325 q 769 191 794 254 q 699 80 744 128 q 588 4 653 32 q 443 -24 524 -24 q 300 4 364 -24 q 190 80 236 32 q 119 191 144 128 q 94 325 94 254 l 94 972 z "},"V":{"ha":790,"x_min":3,"x_max":788,"o":"m 451 0 l 339 0 l 3 972 l 171 972 l 396 265 l 619 972 l 788 972 l 451 0 z "},"W":{"ha":1365,"x_min":7,"x_max":1358,"o":"m 683 693 l 458 0 l 343 0 l 7 972 l 175 972 l 399 279 l 624 972 l 742 972 l 967 279 l 1190 972 l 1358 972 l 1022 0 l 907 0 l 683 693 z "},"X":{"ha":781,"x_min":11,"x_max":769,"o":"m 589 972 l 769 972 l 481 486 l 769 0 l 589 0 l 390 347 l 192 0 l 11 0 l 300 486 l 11 972 l 192 972 l 390 624 l 589 972 z "},"Y":{"ha":850,"x_min":15,"x_max":843,"o":"m 361 0 l 186 0 l 379 389 l 15 972 l 200 972 l 460 554 l 668 972 l 843 972 l 361 0 z "},"Z":{"ha":801,"x_min":18,"x_max":788,"o":"m 47 972 l 788 972 l 283 143 l 785 143 l 785 0 l 18 0 l 522 829 l 47 829 l 47 972 z "},"[":{"ha":493,"x_min":101,"x_max":382,"o":"m 101 -325 l 101 1104 l 382 1104 l 382 969 l 253 969 l 253 -192 l 382 -192 l 382 -325 l 101 -325 z "},"\\":{"ha":629,"x_min":-1,"x_max":643,"o":"m 643 -36 l 504 -96 l -1 1079 l 138 1139 l 643 -36 z "},"]":{"ha":493,"x_min":111,"x_max":392,"o":"m 111 -325 l 111 -192 l 240 -192 l 240 968 l 111 968 l 111 1103 l 392 1103 l 392 -325 l 111 -325 z "},"^":{"ha":900,"x_min":83,"x_max":817,"o":"m 646 449 l 449 850 l 249 449 l 83 449 l 394 1042 l 500 1042 l 817 449 l 646 449 z "},"_":{"ha":778,"x_min":42,"x_max":736,"o":"m 42 -174 l 42 -69 l 736 -69 l 736 -174 l 42 -174 z "},"`":{"ha":796,"x_min":165,"x_max":583,"o":"m 165 906 l 238 1024 l 583 833 l 511 715 l 165 906 z "},"a":{"ha":838,"x_min":53,"x_max":736,"o":"m 736 647 l 736 0 l 585 0 l 585 88 q 498 11 554 39 q 385 -17 442 -17 q 250 10 311 -17 q 145 85 189 38 q 77 193 101 132 q 53 324 53 254 q 77 453 53 392 q 145 563 101 515 q 250 637 189 610 q 385 664 311 664 q 498 636 442 664 q 585 560 554 608 l 585 647 l 736 647 m 393 118 q 472 135 436 118 q 532 179 507 151 q 571 244 557 207 q 585 324 585 282 q 571 403 585 365 q 532 468 557 440 q 472 513 507 496 q 393 529 436 529 q 315 513 350 529 q 256 468 281 496 q 217 403 231 440 q 204 324 204 365 q 217 244 204 282 q 256 179 231 207 q 315 135 281 151 q 393 118 350 118 z "},"b":{"ha":840,"x_min":101,"x_max":785,"o":"m 253 0 l 101 0 l 101 972 l 253 972 l 253 560 q 340 636 283 608 q 453 664 396 664 q 588 637 526 664 q 692 563 649 610 q 760 453 736 515 q 785 324 785 392 q 760 193 785 254 q 692 85 736 132 q 588 10 649 38 q 453 -17 526 -17 q 340 11 396 -17 q 253 88 283 39 l 253 0 m 444 118 q 522 135 488 118 q 582 179 557 151 q 620 244 607 207 q 633 324 633 282 q 620 403 633 365 q 582 468 607 440 q 522 513 557 496 q 444 529 488 529 q 365 513 400 529 q 304 468 329 496 q 266 403 279 440 q 253 324 253 365 q 266 244 253 282 q 304 179 279 207 q 365 135 329 151 q 444 118 400 118 z "},"c":{"ha":742,"x_min":56,"x_max":686,"o":"m 533 411 q 492 497 526 464 q 381 529 458 529 q 304 513 336 529 q 250 467 272 496 q 217 402 228 439 q 207 324 207 365 q 217 244 207 282 q 250 179 228 207 q 307 135 272 151 q 390 118 342 118 q 488 146 457 118 q 535 222 519 174 l 686 222 q 656 128 678 172 q 595 52 633 85 q 503 1 557 19 q 379 -17 450 -17 q 240 12 300 -17 q 138 88 179 40 q 76 196 97 135 q 56 324 56 257 q 76 451 56 389 q 138 560 97 513 q 239 635 179 607 q 378 664 299 664 q 513 642 457 664 q 606 584 569 619 q 662 503 643 549 q 685 411 681 458 l 533 411 z "},"d":{"ha":838,"x_min":53,"x_max":736,"o":"m 585 88 q 498 11 554 39 q 385 -17 442 -17 q 250 10 311 -17 q 145 85 189 38 q 77 193 101 132 q 53 324 53 254 q 77 453 53 392 q 145 563 101 515 q 250 637 189 610 q 385 664 311 664 q 498 636 442 664 q 585 560 554 608 l 585 972 l 736 972 l 736 0 l 585 0 l 585 88 m 393 118 q 472 135 436 118 q 532 179 507 151 q 571 244 557 207 q 585 324 585 282 q 571 403 585 365 q 532 468 557 440 q 472 513 507 496 q 393 529 436 529 q 315 513 350 529 q 256 468 281 496 q 217 403 231 440 q 204 324 204 365 q 217 244 204 282 q 256 179 231 207 q 315 135 281 151 q 393 118 350 118 z "},"e":{"ha":738,"x_min":56,"x_max":675,"o":"m 371 550 q 253 510 300 550 q 206 390 206 469 l 528 390 q 484 508 528 465 q 371 550 440 550 m 206 278 q 218 213 208 243 q 248 159 228 182 q 300 123 268 136 q 379 110 332 110 q 474 135 444 110 q 517 194 503 160 l 669 194 q 640 115 663 153 q 579 47 617 76 q 492 1 542 18 q 379 -17 442 -17 q 237 10 297 -17 q 136 82 176 36 q 76 190 96 128 q 56 324 56 253 q 77 458 56 396 q 139 567 99 521 q 239 638 179 613 q 375 664 299 664 q 492 642 438 664 q 588 580 547 619 q 652 488 629 540 q 675 372 675 435 q 674 333 675 356 q 668 278 674 310 l 206 278 z "},"f":{"ha":499,"x_min":28,"x_max":481,"o":"m 481 836 q 449 843 465 840 q 414 846 432 846 q 378 844 396 846 q 345 833 360 843 q 321 803 331 824 q 311 744 311 782 l 311 647 l 481 647 l 481 521 l 311 521 l 311 0 l 160 0 l 160 521 l 28 521 l 28 647 l 160 647 l 160 728 q 185 872 160 821 q 248 947 211 922 q 325 976 285 971 q 393 981 365 981 q 445 976 422 981 q 481 964 468 971 l 481 836 z "},"g":{"ha":833,"x_min":53,"x_max":739,"o":"m 393 529 q 315 513 350 529 q 256 468 281 496 q 217 403 231 440 q 204 324 204 365 q 217 244 204 282 q 256 179 231 207 q 315 135 281 151 q 393 118 350 118 q 472 135 436 118 q 532 179 507 151 q 571 244 557 207 q 585 324 585 282 q 571 403 585 365 q 532 468 557 440 q 472 513 507 496 q 393 529 436 529 m 739 -32 q 715 -172 739 -114 q 646 -268 690 -231 q 538 -324 601 -306 q 392 -342 474 -342 q 250 -319 310 -342 q 150 -258 190 -296 q 88 -173 110 -221 q 64 -74 67 -125 l 217 -74 q 265 -166 222 -126 q 390 -206 308 -206 q 533 -165 482 -206 q 585 -32 585 -124 l 585 88 q 498 11 554 39 q 385 -17 442 -17 q 250 10 311 -17 q 145 85 189 38 q 77 193 101 132 q 53 324 53 254 q 77 453 53 392 q 145 563 101 515 q 250 637 189 610 q 385 664 311 664 q 498 636 442 664 q 585 560 554 608 l 585 647 l 736 647 l 739 -32 z "},"h":{"ha":790,"x_min":101,"x_max":700,"o":"m 101 972 l 253 972 l 253 557 q 338 637 283 610 q 464 664 392 664 q 583 640 535 664 q 658 576 631 617 q 691 496 682 540 q 700 385 700 451 l 700 0 l 549 0 l 549 335 q 542 413 549 376 q 519 474 535 449 q 476 515 503 500 q 408 531 449 531 q 291 474 329 531 q 253 335 253 418 l 253 0 l 101 0 l 101 972 z "},"i":{"ha":354,"x_min":65,"x_max":289,"o":"m 101 647 l 253 647 l 253 0 l 101 0 l 101 647 m 65 883 q 98 963 65 931 q 176 996 131 996 q 256 963 224 996 q 289 883 289 931 q 256 805 289 838 q 176 772 224 772 q 98 805 131 772 q 65 883 65 838 z "},"j":{"ha":354,"x_min":0,"x_max":289,"o":"m 253 -151 q 240 -242 253 -206 q 206 -299 226 -278 q 158 -330 185 -321 q 103 -339 131 -339 q 42 -335 71 -339 q 0 -324 14 -331 l 0 -192 q 33 -195 22 -194 q 53 -196 43 -196 q 101 -128 101 -196 l 101 647 l 253 647 l 253 -151 m 65 883 q 98 963 65 931 q 176 996 131 996 q 256 963 224 996 q 289 883 289 931 q 256 805 289 838 q 176 772 224 772 q 98 805 131 772 q 65 883 65 838 z "},"k":{"ha":693,"x_min":101,"x_max":679,"o":"m 410 324 l 679 0 l 490 0 l 253 285 l 253 0 l 101 0 l 101 972 l 253 972 l 253 361 l 490 647 l 679 647 l 410 324 z "},"l":{"ha":354,"x_min":101,"x_max":253,"o":"m 101 972 l 253 972 l 253 0 l 101 0 l 101 972 z "},"m":{"ha":1161,"x_min":101,"x_max":1069,"o":"m 918 0 l 918 363 q 890 485 918 440 q 797 531 861 531 q 744 521 768 531 q 701 488 719 511 q 672 426 682 464 q 661 329 661 388 l 661 0 l 510 0 l 510 364 q 483 486 510 442 q 392 531 456 531 q 338 521 363 531 q 294 488 313 511 q 264 426 275 464 q 253 329 253 388 l 253 0 l 101 0 l 101 647 l 253 647 l 253 557 q 322 633 274 601 q 433 664 369 664 q 569 631 522 664 q 638 549 617 597 q 714 631 661 597 q 836 664 767 664 q 954 641 908 664 q 1026 582 1000 618 q 1060 501 1051 546 q 1069 410 1069 456 l 1069 0 l 918 0 z "},"n":{"ha":790,"x_min":101,"x_max":700,"o":"m 101 647 l 253 647 l 253 557 q 338 637 283 610 q 464 664 392 664 q 583 640 535 664 q 658 576 631 617 q 691 496 682 540 q 700 385 700 451 l 700 0 l 549 0 l 549 335 q 542 413 549 376 q 519 474 535 449 q 476 515 503 500 q 408 531 449 531 q 291 474 329 531 q 253 335 253 418 l 253 0 l 101 0 l 101 647 z "},"o":{"ha":789,"x_min":53,"x_max":736,"o":"m 393 -17 q 253 10 315 -17 q 146 85 190 38 q 77 193 101 132 q 53 324 53 254 q 77 453 53 392 q 146 563 101 515 q 253 637 190 610 q 393 664 315 664 q 534 637 471 664 q 642 563 597 610 q 712 453 688 515 q 736 324 736 392 q 712 193 736 254 q 642 85 688 132 q 534 10 597 38 q 393 -17 471 -17 m 393 118 q 472 135 436 118 q 532 179 507 151 q 571 244 557 207 q 585 324 585 282 q 571 403 585 365 q 532 468 557 440 q 472 513 507 496 q 393 529 436 529 q 315 513 350 529 q 256 468 281 496 q 217 403 231 440 q 204 324 204 365 q 217 244 204 282 q 256 179 231 207 q 315 135 281 151 q 393 118 350 118 z "},"p":{"ha":840,"x_min":101,"x_max":785,"o":"m 253 560 q 340 636 283 608 q 453 664 396 664 q 588 637 526 664 q 692 563 649 610 q 760 453 736 515 q 785 324 785 392 q 760 193 785 254 q 692 85 736 132 q 588 10 649 38 q 453 -17 526 -17 q 340 11 396 -17 q 253 88 283 39 l 253 -325 l 101 -325 l 101 647 l 253 647 l 253 560 m 444 529 q 365 513 400 529 q 304 468 329 496 q 266 403 279 440 q 253 324 253 365 q 266 244 253 282 q 304 179 279 207 q 365 135 329 151 q 444 118 400 118 q 522 135 488 118 q 582 179 557 151 q 620 244 607 207 q 633 324 633 282 q 620 403 633 365 q 582 468 607 440 q 522 513 557 496 q 444 529 488 529 z "},"q":{"ha":840,"x_min":56,"x_max":739,"o":"m 588 647 l 739 647 l 739 -325 l 588 -325 l 588 88 q 501 11 557 39 q 388 -17 444 -17 q 253 10 314 -17 q 148 85 192 38 q 80 193 104 132 q 56 324 56 254 q 80 453 56 392 q 148 563 104 515 q 253 637 192 610 q 388 664 314 664 q 501 636 444 664 q 588 560 557 608 l 588 647 m 396 529 q 318 513 353 529 q 258 468 283 496 q 220 403 233 440 q 207 324 207 365 q 220 244 207 282 q 258 179 233 207 q 318 135 283 151 q 396 118 353 118 q 474 135 439 118 q 535 179 510 151 q 574 244 560 207 q 588 324 588 282 q 574 403 588 365 q 535 468 560 440 q 474 513 510 496 q 396 529 439 529 z "},"r":{"ha":525,"x_min":101,"x_max":513,"o":"m 513 507 q 483 513 494 511 q 453 514 471 514 q 304 458 356 514 q 253 279 253 401 l 253 0 l 101 0 l 101 647 l 253 647 l 253 543 q 284 585 264 565 q 331 622 304 606 q 390 647 358 638 q 453 656 421 656 q 513 646 489 656 l 513 507 z "},"s":{"ha":631,"x_min":50,"x_max":572,"o":"m 396 365 q 461 339 429 353 q 518 304 493 325 q 558 254 543 283 q 572 181 572 225 q 552 93 572 131 q 497 31 532 56 q 414 -5 461 7 q 314 -17 367 -17 q 214 -1 261 -17 q 130 44 167 14 q 72 117 93 74 q 50 218 50 161 l 197 218 q 233 128 197 154 q 322 103 268 103 q 397 119 367 103 q 428 178 428 136 q 415 214 428 200 q 378 240 403 228 q 315 264 353 251 q 226 296 278 276 q 165 323 193 308 q 115 357 136 338 q 83 406 94 376 q 72 476 72 435 q 92 557 72 522 q 144 616 111 592 q 222 652 178 640 q 315 664 265 664 q 412 647 367 664 q 490 601 457 631 q 543 532 524 572 q 563 444 563 492 l 415 444 q 391 517 415 490 q 311 544 367 544 q 245 526 272 544 q 218 474 218 508 q 229 440 218 453 q 263 416 240 426 q 318 394 285 406 q 396 365 351 382 z "},"t":{"ha":488,"x_min":28,"x_max":460,"o":"m 460 0 q 411 -6 442 -3 q 347 -8 381 -8 q 283 -3 319 -8 q 215 24 247 1 q 160 92 182 46 q 138 219 138 138 l 138 521 l 28 521 l 28 647 l 138 647 l 138 843 l 289 843 l 289 647 l 438 647 l 438 521 l 289 521 l 289 254 q 295 188 289 213 q 314 149 301 163 q 344 132 326 136 q 383 128 361 128 q 425 129 401 128 q 460 133 449 131 l 460 0 z "},"u":{"ha":790,"x_min":90,"x_max":689,"o":"m 689 647 l 689 0 l 538 0 l 538 90 q 453 10 507 38 q 326 -17 399 -17 q 208 7 256 -17 q 132 71 160 31 q 99 151 108 107 q 90 263 90 196 l 90 647 l 242 647 l 242 313 q 249 235 242 271 q 272 173 256 199 q 315 132 288 147 q 382 117 342 117 q 499 173 461 117 q 538 313 538 229 l 538 647 l 689 647 z "},"v":{"ha":686,"x_min":1,"x_max":685,"o":"m 164 647 l 342 217 l 522 647 l 685 647 l 392 0 l 290 0 l 1 647 l 164 647 z "},"w":{"ha":1046,"x_min":0,"x_max":1046,"o":"m 524 483 l 353 0 l 251 0 l 0 647 l 163 647 l 303 238 l 449 647 l 597 647 l 743 238 l 883 647 l 1046 647 l 794 0 l 693 0 l 524 483 z "},"x":{"ha":619,"x_min":11,"x_max":608,"o":"m 608 0 l 433 0 l 310 208 l 186 0 l 11 0 l 222 326 l 15 647 l 190 647 l 310 444 l 429 647 l 604 647 l 397 326 l 608 0 z "},"y":{"ha":803,"x_min":89,"x_max":704,"o":"m 393 -337 q 273 -321 328 -337 q 178 -271 218 -304 q 114 -187 138 -237 q 89 -71 90 -137 l 242 -71 q 291 -176 247 -142 q 394 -210 335 -210 q 458 -203 429 -210 q 508 -178 488 -196 q 541 -131 529 -160 q 553 -56 553 -101 l 553 93 q 468 13 522 40 q 342 -14 414 -14 q 223 10 271 -14 q 147 74 175 33 q 115 154 124 110 q 106 265 106 199 l 106 650 l 257 650 l 257 315 q 264 238 257 274 q 287 176 271 201 q 330 135 303 150 q 397 119 357 119 q 515 176 476 119 q 553 315 553 232 l 553 650 l 704 650 l 704 -56 q 624 -269 704 -197 q 393 -340 544 -340 l 393 -337 z "},"z":{"ha":608,"x_min":31,"x_max":589,"o":"m 589 647 l 283 135 l 589 135 l 589 0 l 31 0 l 338 513 l 39 513 l 39 647 l 589 647 z "},"{":{"ha":639,"x_min":111,"x_max":528,"o":"m 528 1103 l 528 989 l 467 989 q 427 979 442 989 q 404 954 413 969 q 394 921 396 939 q 392 885 392 903 l 392 532 q 376 458 392 488 q 338 410 360 428 q 293 383 317 392 q 254 374 269 375 q 293 363 269 371 q 338 338 317 356 q 376 287 360 319 q 392 201 392 254 l 392 -107 q 394 -142 392 -124 q 404 -176 396 -161 q 427 -201 413 -192 q 467 -211 442 -211 l 528 -211 l 528 -325 l 429 -325 q 362 -313 396 -325 q 301 -278 328 -301 q 256 -217 274 -254 q 239 -132 239 -181 l 239 181 q 225 241 239 217 q 192 281 211 265 q 150 303 172 296 q 111 310 128 310 l 111 433 q 150 440 128 433 q 192 460 172 446 q 225 497 211 475 q 239 553 239 519 l 239 910 q 256 994 239 958 q 301 1055 274 1031 q 362 1091 328 1079 q 429 1103 396 1103 l 528 1103 z "},"|":{"ha":354,"x_min":114,"x_max":244,"o":"m 114 -325 l 114 1103 l 244 1103 l 244 -325 l 114 -325 z "},"}":{"ha":639,"x_min":111,"x_max":528,"o":"m 210 1103 q 277 1091 243 1103 q 338 1055 311 1079 q 383 994 365 1031 q 400 910 400 958 l 400 553 q 414 497 400 519 q 447 460 428 475 q 489 440 467 446 q 528 433 511 433 l 528 310 q 489 303 511 310 q 447 281 467 296 q 414 241 428 265 q 400 181 400 217 l 400 -132 q 383 -217 400 -181 q 338 -278 365 -254 q 277 -313 311 -301 q 210 -325 243 -325 l 111 -325 l 111 -211 l 172 -211 q 212 -201 197 -211 q 235 -176 226 -192 q 245 -142 243 -161 q 247 -107 247 -124 l 247 201 q 263 287 247 254 q 300 338 278 319 q 346 363 322 356 q 385 374 369 371 q 346 383 369 375 q 300 410 322 392 q 263 458 278 428 q 247 532 247 488 l 247 885 q 245 921 247 903 q 235 954 243 939 q 212 979 226 969 q 172 989 197 989 l 111 989 l 111 1103 l 210 1103 z "},"~":{"ha":732,"x_min":56,"x_max":676,"o":"m 56 397 q 132 461 90 443 q 210 479 174 479 q 289 466 247 479 q 374 435 331 453 q 454 401 414 418 q 524 385 494 385 q 610 409 571 385 q 676 461 649 433 l 676 332 q 600 268 642 286 q 522 250 558 250 q 445 263 482 250 q 372 296 408 276 q 294 330 336 315 q 203 344 253 344 q 122 320 160 344 q 56 268 83 296 l 56 397 z "}," ":{"ha":347,"x_min":0,"x_max":0,"o":""},"¡":{"ha":429,"x_min":104,"x_max":331,"o":"m 135 308 l 300 308 l 300 -347 l 135 -347 l 135 308 m 104 528 q 138 608 104 575 q 217 642 171 642 q 297 608 264 642 q 331 528 331 575 q 297 449 331 482 q 217 415 264 415 q 138 449 171 415 q 104 528 104 482 z "},"¢":{"ha":806,"x_min":81,"x_max":711,"o":"m 558 572 q 517 658 551 625 q 406 690 483 690 q 329 674 361 690 q 275 628 297 657 q 242 563 253 600 q 232 485 232 526 q 242 406 232 443 q 275 340 253 368 q 332 296 297 313 q 415 279 367 279 q 513 307 482 279 q 560 383 544 335 l 711 383 q 635 227 696 292 q 461 147 574 163 l 461 0 l 347 0 l 347 149 q 232 190 282 158 q 149 267 182 221 q 98 369 115 313 q 81 485 81 425 q 98 601 81 544 q 149 703 115 657 q 232 780 182 749 q 347 821 282 811 l 347 969 l 461 969 l 461 821 q 569 789 524 813 q 645 731 615 765 q 690 656 675 697 q 710 572 706 614 l 558 572 z "},"£":{"ha":806,"x_min":60,"x_max":764,"o":"m 313 722 q 313 692 313 711 q 313 651 313 674 q 314 602 314 628 q 314 554 314 576 l 513 554 l 513 440 l 314 440 q 310 340 313 389 q 303 250 308 290 q 290 181 297 210 q 271 143 282 153 l 685 143 l 685 0 l 90 0 l 90 118 q 119 165 107 133 q 138 239 131 196 q 148 333 144 282 q 154 438 151 385 l 60 438 l 60 551 l 154 551 q 154 598 154 574 q 153 646 154 622 q 153 690 153 669 q 153 722 153 710 q 178 831 153 782 q 244 916 203 881 q 342 970 286 951 q 458 989 397 989 q 581 967 525 989 q 677 904 636 944 q 741 808 718 864 q 764 685 764 753 l 604 685 q 569 801 604 757 q 451 846 535 846 q 351 815 390 846 q 313 722 313 785 z "},"¤":{"ha":999,"x_min":122,"x_max":876,"o":"m 692 228 q 499 174 610 174 q 308 228 390 174 l 218 139 l 122 233 l 213 324 q 158 514 158 410 q 172 615 158 567 q 213 703 186 663 l 124 793 l 218 889 l 307 799 q 395 840 347 825 q 499 854 443 854 q 603 840 556 854 q 692 799 651 825 l 781 888 l 876 793 l 786 703 q 842 514 842 619 q 786 324 842 407 l 875 235 l 781 139 l 692 228 m 499 308 q 577 325 542 308 q 638 369 613 342 q 676 435 663 397 q 690 514 690 472 q 676 593 690 556 q 638 658 663 631 q 577 703 613 686 q 499 719 542 719 q 421 703 456 719 q 361 658 386 686 q 323 593 336 631 q 310 514 310 556 q 323 435 310 472 q 361 369 336 397 q 421 325 386 342 q 499 308 456 308 z "},"¥":{"ha":806,"x_min":-42,"x_max":847,"o":"m 143 972 l 404 554 l 663 972 l 847 972 l 506 421 l 686 421 l 686 307 l 475 307 l 475 219 l 686 219 l 686 106 l 475 106 l 475 0 l 332 0 l 332 106 l 125 106 l 125 219 l 332 219 l 332 307 l 125 307 l 125 421 l 301 421 l -42 972 l 143 972 z "},"¦":{"ha":354,"x_min":113,"x_max":244,"o":"m 113 464 l 113 1103 l 244 1103 l 244 464 l 113 464 m 244 313 l 244 -325 l 113 -325 l 113 313 l 244 313 z "},"§":{"ha":806,"x_min":53,"x_max":751,"o":"m 389 86 q 272 126 332 104 q 164 180 213 149 q 84 256 115 211 q 53 365 53 300 q 93 506 53 449 q 213 586 133 563 q 135 669 160 619 q 111 781 111 718 q 136 882 111 836 q 203 960 161 928 q 302 1010 246 993 q 419 1028 358 1028 q 540 1008 483 1028 q 638 950 596 988 q 703 860 679 913 q 728 746 728 808 l 567 746 q 525 854 567 813 q 419 896 483 896 q 315 867 358 896 q 272 781 272 838 q 284 732 272 753 q 316 696 296 711 q 362 669 336 681 q 415 649 388 657 q 532 608 472 629 q 640 555 592 586 q 720 478 689 524 q 751 369 751 433 q 738 290 751 328 q 701 223 724 253 q 649 174 678 193 q 592 149 621 154 q 669 65 644 114 q 693 -46 693 17 q 668 -148 693 -103 q 601 -226 643 -193 q 502 -276 558 -258 q 385 -293 446 -293 q 265 -273 321 -293 q 167 -215 208 -253 q 101 -126 125 -178 q 76 -11 76 -74 l 238 -11 q 279 -119 238 -78 q 385 -161 321 -161 q 442 -154 415 -161 q 488 -133 468 -147 q 520 -97 508 -118 q 532 -46 532 -75 q 520 3 532 -18 q 488 39 508 24 q 442 66 468 54 q 389 86 417 78 m 590 353 q 574 410 590 388 q 528 453 558 433 q 454 486 497 471 q 356 518 411 501 q 254 476 294 513 q 214 382 214 440 q 235 319 214 346 q 292 274 257 293 q 367 240 326 254 q 447 215 408 226 q 550 258 510 221 q 590 353 590 294 z "},"¨":{"ha":826,"x_min":136,"x_max":667,"o":"m 454 882 q 485 958 454 926 q 560 989 515 989 q 635 958 604 989 q 667 882 667 926 q 635 807 667 838 q 560 776 604 776 q 485 807 515 776 q 454 882 454 838 m 136 882 q 167 958 136 926 q 242 989 197 989 q 317 958 286 989 q 349 882 349 926 q 317 807 349 838 q 242 776 286 776 q 167 807 197 776 q 136 882 136 838 z "},"©":{"ha":1117,"x_min":56,"x_max":1061,"o":"m 558 -24 q 348 19 442 -24 q 190 132 254 61 q 90 295 125 203 q 56 486 56 388 q 90 677 56 585 q 190 840 125 769 q 348 953 254 911 q 558 996 442 996 q 769 953 675 996 q 927 840 863 911 q 1026 677 992 769 q 1061 486 1061 585 q 1026 295 1061 388 q 927 132 992 203 q 769 19 863 61 q 558 -24 675 -24 m 825 389 q 794 315 817 349 q 738 256 771 281 q 662 217 704 231 q 571 203 619 203 q 451 226 504 203 q 361 288 397 249 q 306 378 325 326 q 286 488 286 431 q 305 593 286 542 q 359 683 324 644 q 445 746 394 722 q 561 769 496 769 q 667 753 621 769 q 747 708 714 736 q 799 641 781 679 q 825 558 818 603 l 722 558 q 670 645 710 610 q 561 681 631 681 q 488 665 521 681 q 433 622 456 649 q 399 560 411 594 q 388 488 388 525 q 400 413 388 449 q 436 351 413 378 q 494 309 460 325 q 571 293 528 293 q 664 320 624 293 q 719 389 704 347 l 825 389 m 558 72 q 717 107 647 72 q 837 199 788 142 q 913 331 886 257 q 939 486 939 406 q 913 641 939 567 q 837 773 886 715 q 717 865 788 831 q 558 900 647 900 q 399 865 469 900 q 280 773 329 831 q 204 641 231 715 q 178 486 178 567 q 204 331 178 406 q 280 199 231 257 q 399 107 329 142 q 558 72 469 72 z "},"ª":{"ha":838,"x_min":53,"x_max":736,"o":"m 736 647 l 736 0 l 585 0 l 585 88 q 498 11 554 39 q 385 -17 442 -17 q 250 10 311 -17 q 145 85 189 38 q 77 193 101 132 q 53 324 53 254 q 77 453 53 392 q 145 563 101 515 q 250 637 189 610 q 385 664 311 664 q 498 636 442 664 q 585 560 554 608 l 585 647 l 736 647 m 393 118 q 472 135 436 118 q 532 179 507 151 q 571 244 557 207 q 585 324 585 282 q 571 403 585 365 q 532 468 557 440 q 472 513 507 496 q 393 529 436 529 q 315 513 350 529 q 256 468 281 496 q 217 403 231 440 q 204 324 204 365 q 217 244 204 282 q 256 179 231 207 q 315 135 281 151 q 393 118 350 118 z "},"«":{"ha":656,"x_min":56,"x_max":600,"o":"m 600 132 l 328 360 l 328 449 l 600 676 l 600 531 l 449 404 l 600 278 l 600 132 m 328 132 l 56 360 l 56 449 l 328 676 l 328 531 l 176 404 l 328 278 l 328 132 z "},"¬":{"ha":806,"x_min":122,"x_max":683,"o":"m 532 435 l 122 435 l 122 569 l 683 569 l 683 222 l 532 222 l 532 435 z "},"­":{"ha":408,"x_min":42,"x_max":367,"o":"m 367 328 l 42 328 l 42 463 l 367 463 l 367 328 z "},"®":{"ha":1117,"x_min":56,"x_max":1061,"o":"m 558 -24 q 348 19 442 -24 q 190 132 254 61 q 90 295 125 203 q 56 486 56 388 q 90 677 56 585 q 190 840 125 769 q 348 953 254 911 q 558 996 442 996 q 769 953 675 996 q 927 840 863 911 q 1026 677 992 769 q 1061 486 1061 585 q 1026 295 1061 388 q 927 132 992 203 q 769 19 863 61 q 558 -24 675 -24 m 558 72 q 717 107 647 72 q 837 199 788 142 q 913 331 886 257 q 939 486 939 406 q 913 641 939 567 q 837 773 886 715 q 717 865 788 831 q 558 900 647 900 q 399 865 469 900 q 280 773 329 831 q 204 641 231 715 q 178 486 178 567 q 204 331 178 406 q 280 199 231 257 q 399 107 329 142 q 558 72 469 72 m 369 218 l 369 783 l 600 783 q 682 767 646 783 q 744 724 718 751 q 785 661 771 697 q 799 585 799 625 q 767 475 799 524 q 679 403 736 426 l 792 218 l 672 218 l 569 388 l 476 388 l 476 218 l 369 218 m 589 481 q 659 511 633 481 q 685 585 685 542 q 659 659 685 628 q 589 690 633 690 l 476 690 l 476 481 l 589 481 z "},"¯":{"ha":771,"x_min":136,"x_max":633,"o":"m 633 1004 l 136 1004 l 136 1139 l 633 1139 l 633 1004 z "},"°":{"ha":453,"x_min":28,"x_max":425,"o":"m 425 797 q 410 719 425 756 q 367 656 394 683 q 304 614 340 629 q 226 599 268 599 q 149 614 185 599 q 85 656 113 629 q 43 719 58 683 q 28 797 28 756 q 43 875 28 839 q 85 938 58 911 q 149 981 113 965 q 226 996 185 996 q 304 981 268 996 q 367 938 340 965 q 410 875 394 911 q 425 797 425 839 m 318 797 q 291 863 318 835 q 226 892 264 892 q 162 863 189 892 q 135 797 135 835 q 162 731 135 758 q 226 704 189 704 q 291 731 264 704 q 318 797 318 758 z "},"±":{"ha":806,"x_min":122,"x_max":683,"o":"m 326 300 l 326 513 l 122 513 l 122 647 l 326 647 l 326 861 l 478 861 l 478 647 l 683 647 l 683 513 l 478 513 l 478 300 l 326 300 m 122 0 l 122 135 l 683 135 l 683 0 l 122 0 z "},"²":{"ha":524,"x_min":76,"x_max":450,"o":"m 76 438 q 87 547 76 503 q 116 622 97 592 q 160 674 135 653 q 218 714 186 694 q 297 766 265 742 q 329 831 329 790 q 312 876 329 863 q 268 890 294 890 q 219 872 239 890 q 200 813 200 854 l 78 813 q 127 935 78 886 q 268 983 176 983 q 338 974 304 983 q 396 945 371 965 q 435 894 421 925 q 450 822 450 864 q 435 760 450 788 q 400 712 421 733 q 355 674 379 690 q 311 646 331 658 q 265 615 283 628 q 236 590 247 601 q 221 566 225 578 q 217 538 217 554 l 447 538 l 447 438 l 76 438 l 76 438 z "},"³":{"ha":543,"x_min":67,"x_max":464,"o":"m 189 617 q 212 549 189 572 q 271 525 235 525 q 324 547 306 525 q 342 596 342 568 q 324 649 342 629 q 263 669 307 669 l 215 669 l 215 765 l 263 765 q 319 783 304 765 q 333 831 333 801 q 317 876 333 863 q 272 890 300 890 q 218 869 232 890 q 204 813 204 849 l 82 813 q 92 878 82 847 q 126 932 103 908 q 184 969 149 956 q 269 983 219 983 q 340 974 307 983 q 399 945 374 964 q 440 899 425 926 q 456 833 456 871 q 432 758 456 789 q 376 715 408 726 q 438 670 413 703 q 464 588 464 638 q 448 519 464 549 q 406 468 432 489 q 344 437 379 447 q 272 426 310 426 q 119 479 172 426 q 67 617 67 532 l 189 617 z "},"´":{"ha":796,"x_min":111,"x_max":529,"o":"m 183 715 l 111 833 l 457 1024 l 529 906 l 183 715 z "},"µ":{"ha":806,"x_min":103,"x_max":701,"o":"m 103 647 l 254 647 l 254 313 q 261 235 254 271 q 284 173 268 199 q 327 132 300 147 q 394 117 354 117 q 512 173 474 117 q 550 313 550 229 l 550 647 l 701 647 l 701 0 l 550 0 l 550 90 q 465 10 519 38 q 339 -17 411 -17 q 254 -6 294 -17 l 254 -325 l 103 -325 l 103 647 z "},"¶":{"ha":928,"x_min":21,"x_max":826,"o":"m 321 457 q 202 473 257 457 q 107 522 147 489 q 44 604 67 554 q 21 722 21 654 q 38 827 21 783 q 84 901 56 871 q 149 951 113 932 q 223 979 185 969 q 299 992 261 989 q 367 996 336 996 l 826 996 l 826 871 l 753 871 l 753 -206 l 610 -206 l 610 869 l 464 869 l 464 -206 l 321 -206 l 321 457 z "},"·":{"ha":390,"x_min":83,"x_max":307,"o":"m 83 433 q 116 513 83 481 q 194 546 149 546 q 274 513 242 546 q 307 433 307 481 q 274 355 307 388 q 194 322 242 322 q 116 355 149 322 q 83 433 83 388 z "},"¸":{"ha":771,"x_min":244,"x_max":526,"o":"m 268 0 l 365 0 l 365 -89 q 417 -71 383 -71 q 454 -78 435 -71 q 490 -101 474 -86 q 516 -139 506 -117 q 526 -190 526 -161 q 518 -238 526 -214 q 492 -282 510 -262 q 447 -313 474 -301 q 385 -325 421 -325 q 356 -322 376 -325 q 313 -308 335 -319 q 270 -272 290 -296 q 244 -206 250 -247 l 333 -206 q 385 -247 346 -247 q 423 -232 408 -247 q 438 -190 438 -217 q 422 -153 438 -167 q 386 -139 407 -139 q 343 -164 357 -139 l 268 -164 l 268 0 z "},"¹":{"ha":392,"x_min":64,"x_max":299,"o":"m 64 879 q 127 885 103 879 q 165 901 151 890 q 185 931 179 913 q 190 972 190 949 l 299 972 l 299 438 l 174 438 l 174 792 l 64 792 l 64 879 z "},"º":{"ha":789,"x_min":53,"x_max":736,"o":"m 393 -17 q 253 10 315 -17 q 146 85 190 38 q 77 193 101 132 q 53 324 53 254 q 77 453 53 392 q 146 563 101 515 q 253 637 190 610 q 393 664 315 664 q 534 637 471 664 q 642 563 597 610 q 712 453 688 515 q 736 324 736 392 q 712 193 736 254 q 642 85 688 132 q 534 10 597 38 q 393 -17 471 -17 m 393 118 q 472 135 436 118 q 532 179 507 151 q 571 244 557 207 q 585 324 585 282 q 571 403 585 365 q 532 468 557 440 q 472 513 507 496 q 393 529 436 529 q 315 513 350 529 q 256 468 281 496 q 217 403 231 440 q 204 324 204 365 q 217 244 204 282 q 256 179 231 207 q 315 135 281 151 q 393 118 350 118 z "},"»":{"ha":656,"x_min":56,"x_max":600,"o":"m 56 278 l 207 404 l 56 531 l 56 676 l 328 449 l 328 360 l 56 132 l 56 278 m 328 278 l 479 404 l 328 531 l 328 676 l 600 449 l 600 360 l 328 132 l 328 278 z "},"¼":{"ha":1319,"x_min":100,"x_max":1185,"o":"m 100 879 q 163 885 139 879 q 201 901 188 890 q 221 931 215 913 q 226 972 226 949 l 335 972 l 335 438 l 210 438 l 210 792 l 100 792 l 100 879 m 997 149 l 785 149 l 785 535 l 907 535 l 907 251 l 997 251 l 997 400 l 1119 400 l 1119 251 l 1185 251 l 1185 149 l 1119 149 l 1119 0 l 997 0 l 997 149 m 813 1044 l 933 975 l 326 -71 l 206 -1 l 813 1044 z "},"½":{"ha":1319,"x_min":100,"x_max":1156,"o":"m 100 879 q 163 885 139 879 q 201 901 188 890 q 221 931 215 913 q 226 972 226 949 l 335 972 l 335 438 l 210 438 l 210 792 l 100 792 l 100 879 m 782 0 q 792 110 782 65 q 822 185 803 154 q 866 236 840 215 q 924 276 892 257 q 1003 328 971 304 q 1035 393 1035 353 q 1017 439 1035 425 q 974 453 1000 453 q 925 435 944 453 q 906 375 906 417 l 783 375 q 833 497 783 449 q 974 546 882 546 q 1043 537 1010 546 q 1101 508 1076 528 q 1141 457 1126 488 q 1156 385 1156 426 q 1141 323 1156 350 q 1106 274 1126 296 q 1060 237 1085 253 q 1017 208 1036 221 q 971 177 989 190 q 942 152 953 164 q 926 128 931 140 q 922 100 922 117 l 1153 100 l 1153 0 l 782 0 m 813 1044 l 933 975 l 326 -71 l 206 -1 l 813 1044 z "},"¾":{"ha":1319,"x_min":63,"x_max":1185,"o":"m 185 617 q 208 549 185 572 q 267 525 231 525 q 319 547 301 525 q 338 596 338 568 q 320 649 338 629 q 258 669 303 669 l 211 669 l 211 765 l 258 765 q 315 783 300 765 q 329 831 329 801 q 313 876 329 863 q 268 890 296 890 q 214 869 228 890 q 200 813 200 849 l 78 813 q 88 878 78 847 q 122 932 99 908 q 180 969 144 956 q 265 983 215 983 q 336 974 303 983 q 395 945 369 964 q 436 899 421 926 q 451 833 451 871 q 428 758 451 789 q 372 715 404 726 q 434 670 408 703 q 460 588 460 638 q 444 519 460 549 q 401 468 428 489 q 340 437 375 447 q 268 426 306 426 q 115 479 168 426 q 63 617 63 532 l 185 617 m 997 149 l 785 149 l 785 535 l 907 535 l 907 251 l 997 251 l 997 400 l 1119 400 l 1119 251 l 1185 251 l 1185 149 l 1119 149 l 1119 0 l 997 0 l 997 149 m 813 1044 l 933 975 l 326 -71 l 206 -1 l 813 1044 z "},"¿":{"ha":710,"x_min":65,"x_max":676,"o":"m 468 350 q 464 267 468 304 q 448 197 460 229 q 415 136 436 164 q 360 83 394 108 q 315 49 339 68 q 272 8 292 31 q 238 -43 251 -15 q 225 -104 225 -71 q 266 -203 225 -171 q 371 -235 307 -235 q 426 -226 400 -235 q 473 -197 453 -217 q 505 -146 493 -176 q 517 -74 517 -115 l 676 -74 q 651 -204 676 -147 q 585 -300 626 -261 q 488 -358 543 -339 q 371 -378 432 -378 q 253 -358 308 -378 q 156 -303 197 -339 q 90 -217 114 -268 q 65 -104 65 -167 q 81 -17 65 -56 q 119 51 96 21 q 167 103 142 81 q 213 142 193 125 q 267 190 247 169 q 298 231 288 210 q 312 281 308 253 q 315 350 315 308 l 468 350 m 508 517 q 499 472 508 493 q 474 434 490 450 q 438 409 458 418 q 392 400 417 400 q 345 409 367 400 q 308 434 324 418 q 283 472 292 450 q 274 517 274 493 q 283 562 274 540 q 308 599 292 583 q 345 625 324 615 q 392 635 367 635 q 438 625 417 635 q 474 599 458 615 q 499 562 490 583 q 508 517 508 540 z "},"À":{"ha":793,"x_min":4,"x_max":789,"o":"m 789 0 l 621 0 l 579 124 l 214 124 l 172 0 l 4 0 l 340 972 l 453 972 l 789 0 m 263 267 l 531 267 l 397 707 l 263 267 m 219 1231 l 292 1349 l 638 1158 l 565 1040 l 219 1231 z "},"Á":{"ha":793,"x_min":4,"x_max":789,"o":"m 789 0 l 621 0 l 579 124 l 214 124 l 172 0 l 4 0 l 340 972 l 453 972 l 789 0 m 263 267 l 531 267 l 397 707 l 263 267 m 261 1014 l 189 1132 l 535 1322 l 607 1204 l 261 1014 z "},"Â":{"ha":793,"x_min":4,"x_max":789,"o":"m 789 0 l 621 0 l 579 124 l 214 124 l 172 0 l 4 0 l 340 972 l 453 972 l 789 0 m 263 267 l 531 267 l 397 707 l 263 267 m 396 1350 l 647 1133 l 560 1036 l 397 1186 l 236 1038 l 147 1133 l 396 1350 z "},"Ã":{"ha":793,"x_min":4,"x_max":789,"o":"m 789 0 l 621 0 l 579 124 l 214 124 l 172 0 l 4 0 l 340 972 l 453 972 l 789 0 m 263 267 l 531 267 l 397 707 l 263 267 m 488 1221 q 534 1240 517 1221 q 567 1282 551 1258 l 675 1225 q 588 1131 638 1158 q 490 1103 538 1103 q 427 1113 454 1103 q 378 1133 400 1122 q 338 1154 356 1144 q 301 1164 319 1164 q 256 1147 272 1164 q 225 1103 240 1129 l 122 1174 q 206 1258 160 1233 q 301 1282 253 1282 q 365 1272 338 1282 q 413 1251 392 1263 q 451 1231 433 1240 q 488 1221 468 1221 z "},"Ä":{"ha":793,"x_min":4,"x_max":789,"o":"m 789 0 l 621 0 l 579 124 l 214 124 l 172 0 l 4 0 l 340 972 l 453 972 l 789 0 m 263 267 l 531 267 l 397 707 l 263 267 m 446 1188 q 478 1267 446 1235 q 557 1300 511 1300 q 637 1267 604 1300 q 669 1188 669 1235 q 637 1109 669 1142 q 557 1076 604 1076 q 478 1109 511 1076 q 446 1188 446 1142 m 128 1188 q 160 1267 128 1235 q 239 1300 193 1300 q 319 1267 286 1300 q 351 1188 351 1235 q 319 1109 351 1142 q 239 1076 286 1076 q 160 1109 193 1076 q 128 1188 128 1142 z "},"Å":{"ha":793,"x_min":4,"x_max":789,"o":"m 789 0 l 621 0 l 579 124 l 214 124 l 172 0 l 4 0 l 340 972 l 453 972 l 789 0 m 263 267 l 531 267 l 397 707 l 263 267 m 397 1356 q 463 1342 432 1356 q 518 1305 494 1328 q 555 1251 542 1282 q 568 1185 568 1219 q 555 1119 568 1150 q 518 1065 542 1088 q 463 1028 494 1042 q 397 1014 432 1014 q 331 1028 361 1014 q 276 1065 300 1042 q 240 1119 253 1088 q 226 1185 226 1150 q 240 1251 226 1219 q 276 1306 253 1282 q 331 1342 300 1329 q 397 1356 361 1356 m 397 1261 q 344 1239 365 1261 q 322 1185 322 1217 q 344 1133 322 1154 q 397 1111 365 1111 q 451 1133 429 1111 q 472 1186 472 1154 q 451 1240 472 1218 q 397 1261 429 1261 z "},"Æ":{"ha":1226,"x_min":3,"x_max":1125,"o":"m 724 829 l 724 554 l 1125 554 l 1125 411 l 724 411 l 724 143 l 1125 143 l 1125 0 l 564 0 l 564 125 l 235 125 l 176 0 l 3 0 l 475 972 l 1125 972 l 1125 829 l 724 829 m 564 268 l 564 822 l 303 268 l 564 268 z "},"Ç":{"ha":1076,"x_min":53,"x_max":1025,"o":"m 857 618 q 824 711 849 668 q 763 785 800 754 q 677 835 726 817 q 568 853 628 853 q 419 822 485 853 q 308 741 353 792 q 240 624 264 690 q 217 488 217 558 q 241 346 217 413 q 312 228 265 279 q 427 149 358 178 q 585 119 496 119 q 669 134 626 119 q 747 174 711 149 q 810 235 783 200 q 850 313 838 271 l 1025 313 q 972 185 1010 244 q 876 81 933 125 q 747 9 819 36 q 590 -22 675 -18 l 590 -82 q 649 -64 611 -64 q 719 -92 686 -64 q 751 -176 751 -121 q 743 -222 751 -200 q 717 -263 735 -244 q 672 -293 699 -282 q 610 -304 646 -304 q 581 -301 601 -304 q 538 -287 560 -299 q 495 -254 515 -276 q 469 -192 475 -232 l 558 -192 q 610 -226 571 -226 q 648 -212 633 -226 q 663 -176 663 -199 q 648 -139 663 -153 q 613 -125 633 -125 q 568 -150 582 -125 l 493 -150 l 493 -19 q 308 38 389 -7 q 169 151 226 83 q 83 306 113 219 q 53 488 53 393 q 87 678 53 586 q 185 840 121 769 q 341 953 250 911 q 547 996 432 996 q 740 966 656 996 q 883 885 824 936 q 978 766 943 835 q 1025 618 1014 697 l 857 618 z "},"È":{"ha":757,"x_min":101,"x_max":663,"o":"m 261 829 l 261 554 l 663 554 l 663 411 l 261 411 l 261 143 l 663 143 l 663 0 l 101 0 l 101 972 l 663 972 l 663 829 l 261 829 m 199 1206 l 271 1324 l 617 1133 l 544 1015 l 199 1206 z "},"É":{"ha":757,"x_min":101,"x_max":663,"o":"m 261 829 l 261 554 l 663 554 l 663 411 l 261 411 l 261 143 l 663 143 l 663 0 l 101 0 l 101 972 l 663 972 l 663 829 l 261 829 m 243 1040 l 171 1158 l 517 1349 l 589 1231 l 243 1040 z "},"Ê":{"ha":757,"x_min":101,"x_max":663,"o":"m 261 829 l 261 554 l 663 554 l 663 411 l 261 411 l 261 143 l 663 143 l 663 0 l 101 0 l 101 972 l 663 972 l 663 829 l 261 829 m 388 1350 l 639 1133 l 551 1036 l 389 1186 l 228 1038 l 139 1133 l 388 1350 z "},"Ë":{"ha":757,"x_min":101,"x_max":675,"o":"m 261 829 l 261 554 l 663 554 l 663 411 l 261 411 l 261 143 l 663 143 l 663 0 l 101 0 l 101 972 l 663 972 l 663 829 l 261 829 m 451 1188 q 484 1267 451 1235 q 563 1300 517 1300 q 642 1267 610 1300 q 675 1188 675 1235 q 642 1109 675 1142 q 563 1076 610 1076 q 484 1109 517 1076 q 451 1188 451 1142 m 133 1188 q 166 1267 133 1235 q 244 1300 199 1300 q 324 1267 292 1300 q 357 1188 357 1235 q 324 1109 357 1142 q 244 1076 292 1076 q 166 1109 199 1076 q 133 1188 133 1142 z "},"Ì":{"ha":368,"x_min":-25,"x_max":393,"o":"m 101 972 l 267 972 l 267 0 l 101 0 l 101 972 m -25 1204 l 47 1322 l 393 1132 l 321 1014 l -25 1204 z "},"Í":{"ha":368,"x_min":-25,"x_max":393,"o":"m 101 972 l 267 972 l 267 0 l 101 0 l 101 972 m 47 1014 l -25 1132 l 321 1322 l 393 1204 l 47 1014 z "},"Î":{"ha":368,"x_min":-65,"x_max":435,"o":"m 101 972 l 267 972 l 267 0 l 101 0 l 101 972 m 183 1350 l 435 1133 l 347 1036 l 185 1186 l 24 1038 l -65 1133 l 183 1350 z "},"Ï":{"ha":368,"x_min":-81,"x_max":461,"o":"m 101 972 l 267 972 l 267 0 l 101 0 l 101 972 m 238 1188 q 270 1267 238 1235 q 349 1300 303 1300 q 428 1267 396 1300 q 461 1188 461 1235 q 428 1109 461 1142 q 349 1076 396 1076 q 270 1109 303 1076 q 238 1188 238 1142 m -81 1188 q -48 1267 -81 1235 q 31 1300 -15 1300 q 110 1267 78 1300 q 143 1188 143 1235 q 110 1109 143 1142 q 31 1076 78 1076 q -48 1109 -15 1076 q -81 1188 -81 1142 z "},"Ð":{"ha":974,"x_min":-65,"x_max":921,"o":"m 417 972 q 630 931 536 972 q 788 821 724 889 q 887 665 853 753 q 921 486 921 578 q 887 307 921 394 q 788 151 853 219 q 630 42 724 83 q 417 0 536 0 l 101 0 l 101 431 l -65 431 l -65 544 l 101 544 l 101 972 l 417 972 m 432 431 l 261 431 l 261 143 l 417 143 q 561 172 497 143 q 668 249 625 201 q 734 359 711 297 q 757 486 757 421 q 734 613 757 551 q 668 723 711 675 q 561 800 625 771 q 417 829 497 829 l 261 829 l 261 544 l 432 544 l 432 431 z "},"Ñ":{"ha":922,"x_min":101,"x_max":821,"o":"m 661 281 l 661 972 l 821 972 l 821 0 l 646 0 l 261 692 l 261 0 l 101 0 l 101 972 l 276 972 l 661 281 m 538 1221 q 584 1240 567 1221 q 617 1282 601 1258 l 725 1225 q 638 1131 688 1158 q 540 1103 588 1103 q 477 1113 504 1103 q 428 1133 450 1122 q 388 1154 406 1144 q 351 1164 369 1164 q 306 1147 322 1164 q 275 1103 290 1129 l 172 1174 q 256 1258 210 1233 q 351 1282 303 1282 q 415 1272 388 1282 q 463 1251 442 1263 q 501 1231 483 1240 q 538 1221 518 1221 z "},"Ò":{"ha":1111,"x_min":53,"x_max":1058,"o":"m 556 -24 q 345 19 439 -24 q 187 132 251 61 q 88 295 122 203 q 53 486 53 388 q 88 677 53 585 q 187 840 122 769 q 345 953 251 911 q 556 996 439 996 q 766 953 672 996 q 924 840 860 911 q 1024 677 989 769 q 1058 486 1058 585 q 1024 295 1058 388 q 924 132 989 203 q 766 19 860 61 q 556 -24 672 -24 m 556 119 q 695 150 633 119 q 801 232 757 181 q 867 349 844 283 q 890 486 890 415 q 867 623 890 557 q 801 740 844 689 q 695 822 757 792 q 556 853 633 853 q 416 822 478 853 q 310 740 354 792 q 244 623 267 689 q 221 486 221 557 q 244 349 221 415 q 310 232 267 283 q 416 150 354 181 q 556 119 478 119 m 321 1231 l 393 1349 l 739 1158 l 667 1040 l 321 1231 z "},"Ó":{"ha":1111,"x_min":53,"x_max":1058,"o":"m 556 -24 q 345 19 439 -24 q 187 132 251 61 q 88 295 122 203 q 53 486 53 388 q 88 677 53 585 q 187 840 122 769 q 345 953 251 911 q 556 996 439 996 q 766 953 672 996 q 924 840 860 911 q 1024 677 989 769 q 1058 486 1058 585 q 1024 295 1058 388 q 924 132 989 203 q 766 19 860 61 q 556 -24 672 -24 m 556 119 q 695 150 633 119 q 801 232 757 181 q 867 349 844 283 q 890 486 890 415 q 867 623 890 557 q 801 740 844 689 q 695 822 757 792 q 556 853 633 853 q 416 822 478 853 q 310 740 354 792 q 244 623 267 689 q 221 486 221 557 q 244 349 221 415 q 310 232 267 283 q 416 150 354 181 q 556 119 478 119 m 439 1040 l 367 1158 l 713 1349 l 785 1231 l 439 1040 z "},"Ô":{"ha":1111,"x_min":53,"x_max":1058,"o":"m 556 -24 q 345 19 439 -24 q 187 132 251 61 q 88 295 122 203 q 53 486 53 388 q 88 677 53 585 q 187 840 122 769 q 345 953 251 911 q 556 996 439 996 q 766 953 672 996 q 924 840 860 911 q 1024 677 989 769 q 1058 486 1058 585 q 1024 295 1058 388 q 924 132 989 203 q 766 19 860 61 q 556 -24 672 -24 m 556 119 q 695 150 633 119 q 801 232 757 181 q 867 349 844 283 q 890 486 890 415 q 867 623 890 557 q 801 740 844 689 q 695 822 757 792 q 556 853 633 853 q 416 822 478 853 q 310 740 354 792 q 244 623 267 689 q 221 486 221 557 q 244 349 221 415 q 310 232 267 283 q 416 150 354 181 q 556 119 478 119 m 556 1350 l 807 1133 l 719 1036 l 557 1186 l 396 1038 l 307 1133 l 556 1350 z "},"Õ":{"ha":1111,"x_min":53,"x_max":1058,"o":"m 556 -24 q 345 19 439 -24 q 187 132 251 61 q 88 295 122 203 q 53 486 53 388 q 88 677 53 585 q 187 840 122 769 q 345 953 251 911 q 556 996 439 996 q 766 953 672 996 q 924 840 860 911 q 1024 677 989 769 q 1058 486 1058 585 q 1024 295 1058 388 q 924 132 989 203 q 766 19 860 61 q 556 -24 672 -24 m 556 119 q 695 150 633 119 q 801 232 757 181 q 867 349 844 283 q 890 486 890 415 q 867 623 890 557 q 801 740 844 689 q 695 822 757 792 q 556 853 633 853 q 416 822 478 853 q 310 740 354 792 q 244 623 267 689 q 221 486 221 557 q 244 349 221 415 q 310 232 267 283 q 416 150 354 181 q 556 119 478 119 m 654 1221 q 701 1240 683 1221 q 733 1282 718 1258 l 842 1225 q 754 1131 804 1158 q 657 1103 704 1103 q 594 1113 621 1103 q 544 1133 567 1122 q 504 1154 522 1144 q 468 1164 486 1164 q 423 1147 439 1164 q 392 1103 407 1129 l 289 1174 q 373 1258 326 1233 q 468 1282 419 1282 q 531 1272 504 1282 q 579 1251 558 1263 q 617 1231 600 1240 q 654 1221 635 1221 z "},"Ö":{"ha":1111,"x_min":53,"x_max":1058,"o":"m 556 -24 q 345 19 439 -24 q 187 132 251 61 q 88 295 122 203 q 53 486 53 388 q 88 677 53 585 q 187 840 122 769 q 345 953 251 911 q 556 996 439 996 q 766 953 672 996 q 924 840 860 911 q 1024 677 989 769 q 1058 486 1058 585 q 1024 295 1058 388 q 924 132 989 203 q 766 19 860 61 q 556 -24 672 -24 m 285 1188 q 317 1267 285 1235 q 396 1300 350 1300 q 476 1267 443 1300 q 508 1188 508 1235 q 476 1109 508 1142 q 396 1076 443 1076 q 317 1109 350 1076 q 285 1188 285 1142 m 603 1188 q 635 1267 603 1235 q 714 1300 668 1300 q 794 1267 761 1300 q 826 1188 826 1235 q 794 1109 826 1142 q 714 1076 761 1076 q 635 1109 668 1076 q 603 1188 603 1142 m 221 486 q 244 349 221 415 q 310 232 267 283 q 416 150 354 181 q 556 119 478 119 q 695 150 633 119 q 801 232 757 181 q 867 349 844 283 q 890 486 890 415 q 867 623 890 557 q 801 740 844 689 q 695 822 757 792 q 556 853 633 853 q 416 822 478 853 q 310 740 354 792 q 244 623 267 689 q 221 486 221 557 z "},"×":{"ha":806,"x_min":150,"x_max":654,"o":"m 547 649 l 654 542 l 503 390 l 649 244 l 553 150 l 408 294 l 257 144 l 150 251 l 300 401 l 157 546 l 251 642 l 396 497 l 547 649 z "},"Ø":{"ha":1111,"x_min":53,"x_max":1058,"o":"m 556 -24 q 404 -3 472 -24 l 350 -129 l 244 -82 l 297 43 q 193 125 239 76 q 116 231 147 174 q 69 353 85 289 q 53 486 53 418 q 88 677 53 585 q 187 840 122 769 q 345 953 251 911 q 556 996 439 996 q 697 976 631 996 l 749 1094 l 853 1047 l 804 933 q 912 851 864 900 q 992 744 960 803 q 1041 620 1024 686 q 1058 486 1058 554 q 1024 295 1058 388 q 924 132 989 203 q 766 19 860 61 q 556 -24 672 -24 m 890 486 q 852 660 890 578 q 743 793 814 742 l 461 132 q 556 119 504 119 q 695 150 633 119 q 801 232 757 181 q 867 349 844 283 q 890 486 890 415 m 221 486 q 256 317 221 397 q 358 185 292 238 l 640 842 q 556 853 599 853 q 416 822 478 853 q 310 740 354 792 q 244 623 267 689 q 221 486 221 557 z "},"Ù":{"ha":889,"x_min":94,"x_max":794,"o":"m 94 972 l 254 972 l 254 325 q 267 246 254 283 q 306 181 281 208 q 365 136 331 153 q 443 119 400 119 q 522 136 486 119 q 582 181 557 153 q 621 246 607 208 q 635 325 635 283 l 635 972 l 794 972 l 794 325 q 769 191 794 254 q 699 80 744 128 q 588 4 653 32 q 443 -24 524 -24 q 300 4 364 -24 q 190 80 236 32 q 119 191 144 128 q 94 325 94 254 l 94 972 m 256 1231 l 328 1349 l 674 1158 l 601 1040 l 256 1231 z "},"Ú":{"ha":889,"x_min":94,"x_max":794,"o":"m 94 972 l 254 972 l 254 325 q 267 246 254 283 q 306 181 281 208 q 365 136 331 153 q 443 119 400 119 q 522 136 486 119 q 582 181 557 153 q 621 246 607 208 q 635 325 635 283 l 635 972 l 794 972 l 794 325 q 769 191 794 254 q 699 80 744 128 q 588 4 653 32 q 443 -24 524 -24 q 300 4 364 -24 q 190 80 236 32 q 119 191 144 128 q 94 325 94 254 l 94 972 m 274 1040 l 201 1158 l 547 1349 l 619 1231 l 274 1040 z "},"Û":{"ha":889,"x_min":94,"x_max":794,"o":"m 94 972 l 254 972 l 254 325 q 267 246 254 283 q 306 181 281 208 q 365 136 331 153 q 443 119 400 119 q 522 136 486 119 q 582 181 557 153 q 621 246 607 208 q 635 325 635 283 l 635 972 l 794 972 l 794 325 q 769 191 794 254 q 699 80 744 128 q 588 4 653 32 q 443 -24 524 -24 q 300 4 364 -24 q 190 80 236 32 q 119 191 144 128 q 94 325 94 254 l 94 972 m 436 1350 l 688 1133 l 600 1036 l 438 1186 l 276 1038 l 188 1133 l 436 1350 z "},"Ü":{"ha":889,"x_min":94,"x_max":794,"o":"m 94 972 l 254 972 l 254 325 q 267 246 254 283 q 306 181 281 208 q 365 136 331 153 q 443 119 400 119 q 522 136 486 119 q 582 181 557 153 q 621 246 607 208 q 635 325 635 283 l 635 972 l 794 972 l 794 325 q 769 191 794 254 q 699 80 744 128 q 588 4 653 32 q 443 -24 524 -24 q 300 4 364 -24 q 190 80 236 32 q 119 191 144 128 q 94 325 94 254 l 94 972 m 490 1188 q 523 1267 490 1235 q 601 1300 556 1300 q 681 1267 649 1300 q 714 1188 714 1235 q 681 1109 714 1142 q 601 1076 649 1076 q 523 1109 556 1076 q 490 1188 490 1142 m 172 1188 q 205 1267 172 1235 q 283 1300 238 1300 q 363 1267 331 1300 q 396 1188 396 1235 q 363 1109 396 1142 q 283 1076 331 1076 q 205 1109 238 1076 q 172 1188 172 1142 z "},"Ý":{"ha":836,"x_min":15,"x_max":843,"o":"m 361 0 l 186 0 l 379 389 l 15 972 l 200 972 l 460 554 l 668 972 l 843 972 l 361 0 m 338 1040 l 265 1158 l 611 1349 l 683 1231 l 338 1040 z "},"Þ":{"ha":696,"x_min":101,"x_max":654,"o":"m 101 972 l 244 972 l 244 790 l 328 790 q 467 764 407 790 q 569 694 528 738 q 633 594 611 650 q 654 479 654 538 q 633 365 654 421 q 569 265 611 308 q 467 194 528 221 q 328 168 407 168 l 244 168 l 244 0 l 101 0 l 101 972 m 244 664 l 244 294 l 328 294 q 406 310 372 294 q 464 352 440 326 q 499 411 488 378 q 511 479 511 444 q 499 547 511 514 q 464 606 488 581 q 406 648 440 632 q 328 664 372 664 l 244 664 z "},"ß":{"ha":785,"x_min":94,"x_max":729,"o":"m 300 131 q 358 122 326 125 q 407 118 389 118 q 468 128 438 118 q 523 158 499 138 q 563 208 547 178 q 578 282 578 239 q 569 332 578 304 q 539 384 560 360 q 484 425 518 408 q 401 442 450 442 l 347 442 l 347 576 l 397 576 q 471 588 440 576 q 519 620 501 600 q 546 667 538 640 q 554 722 554 693 q 542 776 554 751 q 507 817 529 800 q 456 844 485 835 q 397 854 428 854 q 288 807 331 854 q 246 685 246 760 l 246 0 l 94 0 l 94 685 q 117 808 94 753 q 179 904 139 864 q 275 967 219 944 q 397 989 331 989 q 514 970 458 989 q 613 916 569 951 q 681 831 656 881 q 706 722 706 782 q 666 585 706 635 q 563 508 626 536 q 626 474 596 496 q 678 424 656 453 q 715 359 701 394 q 729 282 729 324 q 700 147 729 204 q 625 54 671 90 q 522 1 579 18 q 407 -17 464 -17 q 343 -11 372 -17 q 300 0 314 -6 l 300 131 z "},"à":{"ha":838,"x_min":53,"x_max":736,"o":"m 736 647 l 736 0 l 585 0 l 585 88 q 498 11 554 39 q 385 -17 442 -17 q 250 10 311 -17 q 145 85 189 38 q 77 193 101 132 q 53 324 53 254 q 77 453 53 392 q 145 563 101 515 q 250 637 189 610 q 385 664 311 664 q 498 636 442 664 q 585 560 554 608 l 585 647 l 736 647 m 393 118 q 472 135 436 118 q 532 179 507 151 q 571 244 557 207 q 585 324 585 282 q 571 403 585 365 q 532 468 557 440 q 472 513 507 496 q 393 529 436 529 q 315 513 350 529 q 256 468 281 496 q 217 403 231 440 q 204 324 204 365 q 217 244 204 282 q 256 179 231 207 q 315 135 281 151 q 393 118 350 118 m 181 878 l 253 996 l 599 806 l 526 688 l 181 878 z "},"á":{"ha":838,"x_min":53,"x_max":736,"o":"m 736 647 l 736 0 l 585 0 l 585 88 q 498 11 554 39 q 385 -17 442 -17 q 250 10 311 -17 q 145 85 189 38 q 77 193 101 132 q 53 324 53 254 q 77 453 53 392 q 145 563 101 515 q 250 637 189 610 q 385 664 311 664 q 498 636 442 664 q 585 560 554 608 l 585 647 l 736 647 m 393 118 q 472 135 436 118 q 532 179 507 151 q 571 244 557 207 q 585 324 585 282 q 571 403 585 365 q 532 468 557 440 q 472 513 507 496 q 393 529 436 529 q 315 513 350 529 q 256 468 281 496 q 217 403 231 440 q 204 324 204 365 q 217 244 204 282 q 256 179 231 207 q 315 135 281 151 q 393 118 350 118 m 263 688 l 190 806 l 536 996 l 608 878 l 263 688 z "},"â":{"ha":838,"x_min":53,"x_max":736,"o":"m 736 647 l 736 0 l 585 0 l 585 88 q 498 11 554 39 q 385 -17 442 -17 q 250 10 311 -17 q 145 85 189 38 q 77 193 101 132 q 53 324 53 254 q 77 453 53 392 q 145 563 101 515 q 250 637 189 610 q 385 664 311 664 q 498 636 442 664 q 585 560 554 608 l 585 647 l 736 647 m 393 118 q 472 135 436 118 q 532 179 507 151 q 571 244 557 207 q 585 324 585 282 q 571 403 585 365 q 532 468 557 440 q 472 513 507 496 q 393 529 436 529 q 315 513 350 529 q 256 468 281 496 q 217 403 231 440 q 204 324 204 365 q 217 244 204 282 q 256 179 231 207 q 315 135 281 151 q 393 118 350 118 m 393 1040 l 644 824 l 557 726 l 394 876 l 233 728 l 144 824 l 393 1040 z "},"ã":{"ha":838,"x_min":53,"x_max":736,"o":"m 736 647 l 736 0 l 585 0 l 585 88 q 498 11 554 39 q 385 -17 442 -17 q 250 10 311 -17 q 145 85 189 38 q 77 193 101 132 q 53 324 53 254 q 77 453 53 392 q 145 563 101 515 q 250 637 189 610 q 385 664 311 664 q 498 636 442 664 q 585 560 554 608 l 585 647 l 736 647 m 393 118 q 472 135 436 118 q 532 179 507 151 q 571 244 557 207 q 585 324 585 282 q 571 403 585 365 q 532 468 557 440 q 472 513 507 496 q 393 529 436 529 q 315 513 350 529 q 256 468 281 496 q 217 403 231 440 q 204 324 204 365 q 217 244 204 282 q 256 179 231 207 q 315 135 281 151 q 393 118 350 118 m 515 914 q 562 933 544 914 q 594 975 579 951 l 703 918 q 615 824 665 851 q 518 796 565 796 q 455 806 482 796 q 406 826 428 815 q 365 847 383 838 q 329 857 347 857 q 284 840 300 857 q 253 796 268 822 l 150 867 q 234 951 188 926 q 329 975 281 975 q 392 965 365 975 q 440 944 419 956 q 478 924 461 933 q 515 914 496 914 z "},"ä":{"ha":838,"x_min":53,"x_max":736,"o":"m 585 0 l 585 88 q 498 11 554 39 q 385 -17 442 -17 q 250 10 311 -17 q 145 85 189 38 q 77 193 101 132 q 53 324 53 254 q 77 453 53 392 q 145 563 101 515 q 250 637 189 610 q 385 664 311 664 q 498 636 442 664 q 585 560 554 608 l 585 647 l 736 647 l 736 0 l 585 0 m 393 118 q 472 135 436 118 q 532 179 507 151 q 571 244 557 207 q 585 324 585 282 q 571 403 585 365 q 532 468 557 440 q 472 513 507 496 q 393 529 436 529 q 315 513 350 529 q 256 468 281 496 q 217 403 231 440 q 204 324 204 365 q 217 244 204 282 q 256 179 231 207 q 315 135 281 151 q 393 118 350 118 m 550 742 q 472 774 504 742 q 439 853 439 807 q 472 933 439 900 q 550 965 504 965 q 630 933 597 965 q 663 853 663 900 q 630 774 663 807 q 550 742 597 742 m 121 853 q 153 933 121 900 q 232 965 186 965 q 312 933 279 965 q 344 853 344 900 q 312 774 344 807 q 232 742 279 742 q 153 774 186 742 q 121 853 121 807 z "},"å":{"ha":838,"x_min":53,"x_max":736,"o":"m 736 647 l 736 0 l 585 0 l 585 88 q 498 11 554 39 q 385 -17 442 -17 q 250 10 311 -17 q 145 85 189 38 q 77 193 101 132 q 53 324 53 254 q 77 453 53 392 q 145 563 101 515 q 250 637 189 610 q 385 664 311 664 q 498 636 442 664 q 585 560 554 608 l 585 647 l 736 647 m 393 118 q 472 135 436 118 q 532 179 507 151 q 571 244 557 207 q 585 324 585 282 q 571 403 585 365 q 532 468 557 440 q 472 513 507 496 q 393 529 436 529 q 315 513 350 529 q 256 468 281 496 q 217 403 231 440 q 204 324 204 365 q 217 244 204 282 q 256 179 231 207 q 315 135 281 151 q 393 118 350 118 m 389 707 q 319 722 351 707 q 263 760 288 736 q 225 817 239 785 q 211 885 211 849 q 225 955 211 922 q 263 1012 239 988 q 319 1050 288 1036 q 389 1064 351 1064 q 459 1049 426 1064 q 516 1010 492 1035 q 554 953 540 986 q 568 885 568 921 q 554 817 568 849 q 516 760 540 785 q 459 722 492 736 q 389 707 426 707 m 389 974 q 328 947 353 974 q 304 885 304 921 q 328 825 304 850 q 389 800 353 800 q 450 826 425 800 q 475 888 475 851 q 451 949 475 924 q 389 974 426 974 z "},"æ":{"ha":1267,"x_min":53,"x_max":1204,"o":"m 736 647 l 736 622 q 813 653 771 642 q 904 664 856 664 q 1022 642 967 664 q 1117 580 1076 619 q 1181 488 1158 540 q 1204 372 1204 435 q 1203 333 1204 356 q 1197 278 1203 310 l 739 278 q 749 213 739 243 q 778 159 758 182 q 831 123 799 136 q 908 110 863 110 q 963 117 940 110 q 1002 135 986 124 q 1028 162 1018 146 q 1046 194 1039 178 l 1199 194 q 1167 115 1190 153 q 1108 47 1144 76 q 1021 1 1071 18 q 908 -17 971 -17 q 813 -5 856 -17 q 736 26 771 7 l 736 0 l 585 0 l 585 88 q 498 11 554 39 q 385 -17 442 -17 q 250 10 311 -17 q 145 85 189 38 q 77 193 101 132 q 53 324 53 254 q 77 453 53 392 q 145 563 101 515 q 250 637 189 610 q 385 664 311 664 q 498 636 442 664 q 585 560 554 608 l 585 647 l 736 647 m 900 538 q 787 500 833 538 q 740 390 740 463 l 1057 390 q 1013 497 1057 457 q 900 538 969 538 m 393 118 q 472 135 436 118 q 532 179 507 151 q 571 244 557 207 q 585 324 585 282 q 571 404 585 367 q 532 469 557 442 q 472 513 507 497 q 393 529 436 529 q 315 513 350 529 q 256 468 281 496 q 217 403 231 440 q 204 324 204 365 q 217 244 204 282 q 256 179 231 207 q 315 135 281 151 q 393 118 350 118 z "},"ç":{"ha":742,"x_min":56,"x_max":686,"o":"m 310 -10 q 200 34 247 3 q 120 110 153 65 q 72 210 88 156 q 56 324 56 265 q 76 451 56 389 q 138 560 97 513 q 239 635 179 607 q 378 664 299 664 q 513 642 457 664 q 606 584 569 619 q 662 503 643 549 q 685 411 681 458 l 533 411 q 492 497 526 464 q 381 529 458 529 q 304 513 336 529 q 250 467 272 496 q 217 402 228 439 q 207 324 207 365 q 217 244 207 282 q 250 179 228 207 q 307 135 272 151 q 390 118 342 118 q 488 146 457 118 q 535 222 519 174 l 686 222 q 657 132 678 174 q 602 59 636 90 q 519 8 568 28 q 407 -15 471 -11 l 407 -82 q 465 -64 428 -64 q 535 -92 503 -64 q 568 -176 568 -121 q 560 -222 568 -200 q 533 -263 551 -244 q 489 -293 515 -282 q 426 -304 463 -304 q 397 -301 418 -304 q 354 -287 376 -299 q 312 -254 332 -276 q 286 -192 292 -232 l 375 -192 q 426 -226 388 -226 q 465 -212 450 -226 q 479 -176 479 -199 q 465 -139 479 -153 q 429 -125 450 -125 q 385 -150 399 -125 l 310 -150 l 310 -10 z "},"è":{"ha":738,"x_min":56,"x_max":675,"o":"m 206 278 q 218 213 208 243 q 248 159 228 182 q 300 123 268 136 q 379 110 332 110 q 474 135 444 110 q 517 194 503 160 l 669 194 q 640 115 663 153 q 579 47 617 76 q 492 1 542 18 q 379 -17 442 -17 q 237 10 297 -17 q 136 82 176 36 q 76 190 96 128 q 56 324 56 253 q 77 458 56 396 q 139 567 99 521 q 239 638 179 613 q 375 664 299 664 q 492 642 438 664 q 588 580 547 619 q 652 488 629 540 q 675 372 675 435 q 674 333 675 356 q 668 278 674 310 l 206 278 m 371 550 q 253 510 300 550 q 206 390 206 469 l 528 390 q 484 508 528 465 q 371 550 440 550 m 201 878 l 274 996 l 619 806 l 547 688 l 201 878 z "},"é":{"ha":738,"x_min":56,"x_max":675,"o":"m 206 278 q 218 213 208 243 q 248 159 228 182 q 300 123 268 136 q 379 110 332 110 q 474 135 444 110 q 517 194 503 160 l 669 194 q 640 115 663 153 q 579 47 617 76 q 492 1 542 18 q 379 -17 442 -17 q 237 10 297 -17 q 136 82 176 36 q 76 190 96 128 q 56 324 56 253 q 77 458 56 396 q 139 567 99 521 q 239 638 179 613 q 375 664 299 664 q 492 642 438 664 q 588 580 547 619 q 652 488 629 540 q 675 372 675 435 q 674 333 675 356 q 668 278 674 310 l 206 278 m 371 550 q 253 510 300 550 q 206 390 206 469 l 528 390 q 484 508 528 465 q 371 550 440 550 m 228 688 l 156 806 l 501 996 l 574 878 l 228 688 z "},"ê":{"ha":738,"x_min":56,"x_max":675,"o":"m 206 278 q 218 213 208 243 q 248 159 228 182 q 300 123 268 136 q 379 110 332 110 q 474 135 444 110 q 517 194 503 160 l 669 194 q 640 115 663 153 q 579 47 617 76 q 492 1 542 18 q 379 -17 442 -17 q 237 10 297 -17 q 136 82 176 36 q 76 190 96 128 q 56 324 56 253 q 77 458 56 396 q 139 567 99 521 q 239 638 179 613 q 375 664 299 664 q 492 642 438 664 q 588 580 547 619 q 652 488 629 540 q 675 372 675 435 q 674 333 675 356 q 668 278 674 310 l 206 278 m 371 550 q 253 510 300 550 q 206 390 206 469 l 528 390 q 484 508 528 465 q 371 550 440 550 m 374 1040 l 625 824 l 538 726 l 375 876 l 214 728 l 125 824 l 374 1040 z "},"ë":{"ha":738,"x_min":56,"x_max":675,"o":"m 206 278 q 218 213 208 243 q 248 159 228 182 q 300 123 268 136 q 379 110 332 110 q 474 135 444 110 q 517 194 503 160 l 669 194 q 640 115 663 153 q 579 47 617 76 q 492 1 542 18 q 379 -17 442 -17 q 237 10 297 -17 q 136 82 176 36 q 76 190 96 128 q 56 324 56 253 q 77 458 56 396 q 139 567 99 521 q 239 638 179 613 q 375 664 299 664 q 492 642 438 664 q 588 580 547 619 q 652 488 629 540 q 675 372 675 435 q 674 333 675 356 q 668 278 674 310 l 206 278 m 371 550 q 253 510 300 550 q 206 390 206 469 l 528 390 q 484 508 528 465 q 371 550 440 550 m 419 853 q 452 933 419 900 q 531 965 485 965 q 610 933 578 965 q 643 853 643 900 q 610 774 643 807 q 531 742 578 742 q 452 774 485 742 q 419 853 419 807 m 101 853 q 134 933 101 900 q 213 965 167 965 q 292 933 260 965 q 325 853 325 900 q 292 774 325 807 q 213 742 260 742 q 134 774 167 742 q 101 853 101 807 z "},"ì":{"ha":354,"x_min":-32,"x_max":386,"o":"m 101 647 l 253 647 l 253 0 l 101 0 l 101 647 m -32 906 l 40 1024 l 386 833 l 314 715 l -32 906 z "},"í":{"ha":354,"x_min":-32,"x_max":386,"o":"m 101 647 l 253 647 l 253 0 l 101 0 l 101 647 m 40 715 l -32 833 l 314 1024 l 386 906 l 40 715 z "},"î":{"ha":354,"x_min":-72,"x_max":428,"o":"m 101 647 l 253 647 l 253 0 l 101 0 l 101 647 m 176 1040 l 428 824 l 340 726 l 178 876 l 17 728 l -72 824 l 176 1040 z "},"ï":{"ha":354,"x_min":-50,"x_max":436,"o":"m 101 647 l 253 647 l 253 0 l 101 0 l 101 647 m 213 853 q 245 933 213 900 q 324 965 278 965 q 403 933 371 965 q 436 853 436 900 q 403 774 436 807 q 324 742 371 742 q 245 774 278 742 q 213 853 213 807 m -50 853 q -17 933 -50 900 q 61 965 15 965 q 141 933 108 965 q 174 853 174 900 q 141 774 174 807 q 61 742 108 742 q -17 774 15 742 q -50 853 -50 807 z "},"ð":{"ha":786,"x_min":53,"x_max":736,"o":"m 393 -17 q 253 10 315 -17 q 146 85 190 38 q 77 193 101 132 q 53 324 53 254 q 77 453 53 392 q 146 563 101 515 q 253 637 190 610 q 393 664 315 664 l 406 664 l 354 749 l 218 672 l 167 763 l 297 833 l 213 972 l 396 972 l 433 908 l 549 972 l 599 885 l 488 822 l 674 525 q 719 430 701 481 q 736 324 736 379 q 712 193 736 254 q 642 85 688 132 q 534 10 597 38 q 393 -17 471 -17 m 393 118 q 472 135 436 118 q 532 179 507 151 q 571 244 557 207 q 585 324 585 282 q 571 403 585 365 q 532 468 557 440 q 472 513 507 496 q 393 529 436 529 q 315 513 350 529 q 256 468 281 496 q 217 403 231 440 q 204 324 204 365 q 217 244 204 282 q 256 179 231 207 q 315 135 281 151 q 393 118 350 118 z "},"ñ":{"ha":790,"x_min":101,"x_max":700,"o":"m 101 647 l 253 647 l 253 557 q 338 637 283 610 q 464 664 392 664 q 583 640 535 664 q 658 576 631 617 q 691 496 682 540 q 700 385 700 451 l 700 0 l 549 0 l 549 335 q 542 413 549 376 q 519 474 535 449 q 476 515 503 500 q 408 531 449 531 q 291 474 329 531 q 253 335 253 418 l 253 0 l 101 0 l 101 647 m 499 914 q 545 933 528 914 q 578 975 563 951 l 686 918 q 599 824 649 851 q 501 796 549 796 q 438 806 465 796 q 389 826 411 815 q 349 847 367 838 q 313 857 331 857 q 267 840 283 857 q 236 796 251 822 l 133 867 q 217 951 171 926 q 313 975 264 975 q 376 965 349 975 q 424 944 403 956 q 462 924 444 933 q 499 914 479 914 z "},"ò":{"ha":789,"x_min":53,"x_max":736,"o":"m 393 -17 q 253 10 315 -17 q 146 85 190 38 q 77 193 101 132 q 53 324 53 254 q 77 453 53 392 q 146 563 101 515 q 253 637 190 610 q 393 664 315 664 q 534 637 471 664 q 642 563 597 610 q 712 453 688 515 q 736 324 736 392 q 712 193 736 254 q 642 85 688 132 q 534 10 597 38 q 393 -17 471 -17 m 393 118 q 472 135 436 118 q 532 179 507 151 q 571 244 557 207 q 585 324 585 282 q 571 403 585 365 q 532 468 557 440 q 472 513 507 496 q 393 529 436 529 q 315 513 350 529 q 256 468 281 496 q 217 403 231 440 q 204 324 204 365 q 217 244 204 282 q 256 179 231 207 q 315 135 281 151 q 393 118 350 118 m 199 878 l 271 996 l 617 806 l 544 688 l 199 878 z "},"ó":{"ha":789,"x_min":53,"x_max":736,"o":"m 393 -17 q 253 10 315 -17 q 146 85 190 38 q 77 193 101 132 q 53 324 53 254 q 77 453 53 392 q 146 563 101 515 q 253 637 190 610 q 393 664 315 664 q 534 637 471 664 q 642 563 597 610 q 712 453 688 515 q 736 324 736 392 q 712 193 736 254 q 642 85 688 132 q 534 10 597 38 q 393 -17 471 -17 m 393 118 q 472 135 436 118 q 532 179 507 151 q 571 244 557 207 q 585 324 585 282 q 571 403 585 365 q 532 468 557 440 q 472 513 507 496 q 393 529 436 529 q 315 513 350 529 q 256 468 281 496 q 217 403 231 440 q 204 324 204 365 q 217 244 204 282 q 256 179 231 207 q 315 135 281 151 q 393 118 350 118 m 217 688 l 144 806 l 490 996 l 563 878 l 217 688 z "},"ô":{"ha":789,"x_min":53,"x_max":736,"o":"m 393 -17 q 253 10 315 -17 q 146 85 190 38 q 77 193 101 132 q 53 324 53 254 q 77 453 53 392 q 146 563 101 515 q 253 637 190 610 q 393 664 315 664 q 534 637 471 664 q 642 563 597 610 q 712 453 688 515 q 736 324 736 392 q 712 193 736 254 q 642 85 688 132 q 534 10 597 38 q 393 -17 471 -17 m 393 118 q 472 135 436 118 q 532 179 507 151 q 571 244 557 207 q 585 324 585 282 q 571 403 585 365 q 532 468 557 440 q 472 513 507 496 q 393 529 436 529 q 315 513 350 529 q 256 468 281 496 q 217 403 231 440 q 204 324 204 365 q 217 244 204 282 q 256 179 231 207 q 315 135 281 151 q 393 118 350 118 m 392 1040 l 643 824 l 556 726 l 393 876 l 232 728 l 143 824 l 392 1040 z "},"õ":{"ha":789,"x_min":53,"x_max":736,"o":"m 393 -17 q 253 10 315 -17 q 146 85 190 38 q 77 193 101 132 q 53 324 53 254 q 77 453 53 392 q 146 563 101 515 q 253 637 190 610 q 393 664 315 664 q 534 637 471 664 q 642 563 597 610 q 712 453 688 515 q 736 324 736 392 q 712 193 736 254 q 642 85 688 132 q 534 10 597 38 q 393 -17 471 -17 m 393 118 q 472 135 436 118 q 532 179 507 151 q 571 244 557 207 q 585 324 585 282 q 571 403 585 365 q 532 468 557 440 q 472 513 507 496 q 393 529 436 529 q 315 513 350 529 q 256 468 281 496 q 217 403 231 440 q 204 324 204 365 q 217 244 204 282 q 256 179 231 207 q 315 135 281 151 q 393 118 350 118 m 482 914 q 528 933 511 914 q 561 975 546 951 l 669 918 q 582 824 632 851 q 485 796 532 796 q 422 806 449 796 q 372 826 394 815 q 332 847 350 838 q 296 857 314 857 q 251 840 267 857 q 219 796 235 822 l 117 867 q 201 951 154 926 q 296 975 247 975 q 359 965 332 975 q 407 944 386 956 q 445 924 428 933 q 482 914 463 914 z "},"ö":{"ha":789,"x_min":53,"x_max":736,"o":"m 235 742 q 156 774 189 742 q 124 853 124 807 q 156 933 124 900 q 235 965 189 965 q 315 933 282 965 q 347 853 347 900 q 315 774 347 807 q 235 742 282 742 m 442 853 q 474 933 442 900 q 553 965 507 965 q 633 933 600 965 q 665 853 665 900 q 633 774 665 807 q 553 742 600 742 q 474 774 507 742 q 442 853 442 807 m 393 -17 q 253 10 315 -17 q 146 85 190 38 q 77 193 101 132 q 53 324 53 254 q 77 453 53 392 q 146 563 101 515 q 253 637 190 610 q 393 664 315 664 q 534 637 471 664 q 642 563 597 610 q 712 453 688 515 q 736 324 736 392 q 712 193 736 254 q 642 85 688 132 q 534 10 597 38 q 393 -17 471 -17 m 393 118 q 472 135 436 118 q 532 179 507 151 q 571 244 557 207 q 585 324 585 282 q 571 403 585 365 q 532 468 557 440 q 472 513 507 496 q 393 529 436 529 q 315 513 350 529 q 256 468 281 496 q 217 403 231 440 q 204 324 204 365 q 217 244 204 282 q 256 179 231 207 q 315 135 281 151 q 393 118 350 118 z "},"÷":{"ha":806,"x_min":122,"x_max":683,"o":"m 122 258 l 122 393 l 683 393 l 683 258 l 122 258 m 292 560 q 324 640 292 607 q 403 672 357 672 q 483 640 450 672 q 515 560 515 607 q 483 481 515 514 q 403 449 450 449 q 324 481 357 449 q 292 560 292 514 m 292 103 q 324 183 292 150 q 403 215 357 215 q 483 183 450 215 q 515 103 515 150 q 483 24 515 57 q 403 -8 450 -8 q 324 24 357 -8 q 292 103 292 57 z "},"ø":{"ha":789,"x_min":53,"x_max":736,"o":"m 569 619 q 692 496 649 575 q 736 324 736 417 q 712 193 736 254 q 642 85 688 132 q 534 10 597 38 q 393 -17 471 -17 q 299 -4 342 -17 l 251 -115 l 160 -76 l 207 35 q 93 157 133 81 q 53 324 53 233 q 77 453 53 392 q 146 563 101 515 q 253 637 190 610 q 393 664 315 664 q 436 661 415 664 q 476 654 457 658 l 524 764 l 615 725 l 569 619 m 393 118 q 472 135 436 118 q 532 179 507 151 q 571 244 557 207 q 585 324 585 282 q 566 415 585 372 q 513 488 547 458 l 354 121 q 373 118 364 118 q 393 118 382 118 m 204 324 q 265 168 204 229 l 421 526 q 407 528 414 528 q 393 529 400 529 q 315 513 350 529 q 256 468 281 496 q 217 403 231 440 q 204 324 204 365 z "},"ù":{"ha":790,"x_min":90,"x_max":689,"o":"m 689 0 l 538 0 l 538 90 q 453 10 507 38 q 326 -17 399 -17 q 208 7 256 -17 q 132 71 160 31 q 99 151 108 107 q 90 263 90 196 l 90 647 l 242 647 l 242 313 q 249 235 242 271 q 272 173 256 199 q 315 132 288 147 q 382 117 342 117 q 499 173 461 117 q 538 313 538 229 l 538 647 l 689 647 l 689 0 m 186 878 l 258 996 l 604 806 l 532 688 l 186 878 z "},"ú":{"ha":790,"x_min":90,"x_max":689,"o":"m 689 0 l 538 0 l 538 90 q 453 10 507 38 q 326 -17 399 -17 q 208 7 256 -17 q 132 71 160 31 q 99 151 108 107 q 90 263 90 196 l 90 647 l 242 647 l 242 313 q 249 235 242 271 q 272 173 256 199 q 315 132 288 147 q 382 117 342 117 q 499 173 461 117 q 538 313 538 229 l 538 647 l 689 647 l 689 0 m 250 688 l 178 806 l 524 996 l 596 878 l 250 688 z "},"û":{"ha":790,"x_min":90,"x_max":689,"o":"m 689 0 l 538 0 l 538 90 q 453 10 507 38 q 326 -17 399 -17 q 208 7 256 -17 q 132 71 160 31 q 99 151 108 107 q 90 263 90 196 l 90 647 l 242 647 l 242 313 q 249 235 242 271 q 272 173 256 199 q 315 132 288 147 q 382 117 342 117 q 499 173 461 117 q 538 313 538 229 l 538 647 l 689 647 l 689 0 m 396 1040 l 647 824 l 560 726 l 397 876 l 236 728 l 147 824 l 396 1040 z "},"ü":{"ha":790,"x_min":90,"x_max":689,"o":"m 689 0 l 538 0 l 538 90 q 453 10 507 38 q 326 -17 399 -17 q 208 7 256 -17 q 132 71 160 31 q 99 151 108 107 q 90 263 90 196 l 90 647 l 242 647 l 242 313 q 249 235 242 271 q 272 173 256 199 q 315 132 288 147 q 382 117 342 117 q 499 173 461 117 q 538 313 538 229 l 538 647 l 689 647 l 689 0 m 439 853 q 472 933 439 900 q 550 965 504 965 q 630 933 597 965 q 663 853 663 900 q 630 774 663 807 q 550 742 597 742 q 472 774 504 742 q 439 853 439 807 m 121 853 q 153 933 121 900 q 232 965 186 965 q 312 933 279 965 q 344 853 344 900 q 312 774 344 807 q 232 742 279 742 q 153 774 186 742 q 121 853 121 807 z "},"ý":{"ha":803,"x_min":90,"x_max":706,"o":"m 393 -340 q 273 -324 328 -340 q 178 -274 218 -307 q 115 -190 138 -240 q 90 -74 92 -140 l 243 -74 q 292 -178 249 -144 q 396 -212 336 -212 q 460 -206 431 -212 q 510 -181 489 -199 q 542 -133 531 -162 q 554 -58 554 -104 l 554 90 q 469 10 524 38 q 343 -17 415 -17 q 224 7 272 -17 q 149 71 176 31 q 116 151 125 107 q 107 263 107 196 l 107 647 l 258 647 l 258 313 q 265 235 258 271 q 288 173 272 199 q 331 132 304 147 q 399 117 358 117 q 516 173 478 117 q 554 313 554 229 l 554 647 l 706 647 l 706 -58 q 625 -271 706 -199 q 393 -340 546 -340 m 267 688 l 194 806 l 540 996 l 613 878 l 267 688 z "},"þ":{"ha":832,"x_min":101,"x_max":785,"o":"m 101 -325 l 101 972 l 253 972 l 253 560 q 340 636 283 608 q 453 664 396 664 q 588 637 526 664 q 692 563 649 610 q 760 453 736 515 q 785 324 785 392 q 760 193 785 254 q 692 85 736 132 q 588 10 649 38 q 453 -17 526 -17 q 340 11 396 -17 q 253 88 283 39 l 253 -325 l 101 -325 m 444 118 q 522 135 488 118 q 582 179 557 151 q 620 244 607 207 q 633 324 633 282 q 620 403 633 365 q 582 468 607 440 q 522 513 557 496 q 444 529 488 529 q 365 513 400 529 q 304 468 329 496 q 266 403 279 440 q 253 324 253 365 q 266 244 253 282 q 304 179 279 207 q 365 135 329 151 q 444 118 400 118 z "},"ÿ":{"ha":803,"x_min":90,"x_max":706,"o":"m 393 -340 q 273 -324 328 -340 q 178 -274 218 -307 q 115 -190 138 -240 q 90 -74 92 -140 l 243 -74 q 292 -178 249 -144 q 396 -212 336 -212 q 460 -206 431 -212 q 510 -181 489 -199 q 542 -133 531 -162 q 554 -58 554 -104 l 554 90 q 469 10 524 38 q 343 -17 415 -17 q 224 7 272 -17 q 149 71 176 31 q 116 151 125 107 q 107 263 107 196 l 107 647 l 258 647 l 258 313 q 265 235 258 271 q 288 173 272 199 q 331 132 304 147 q 399 117 358 117 q 516 173 478 117 q 554 313 554 229 l 554 647 l 706 647 l 706 -58 q 625 -271 706 -199 q 393 -340 546 -340 m 468 853 q 499 928 468 897 q 574 960 529 960 q 649 928 618 960 q 681 853 681 897 q 649 778 681 808 q 574 747 618 747 q 499 778 529 747 q 468 853 468 808 m 150 853 q 181 928 150 897 q 256 960 211 960 q 331 928 300 960 q 363 853 363 897 q 331 778 363 808 q 256 747 300 747 q 181 778 211 747 q 150 853 150 808 z "},"Ā":{"ha":793,"x_min":4,"x_max":789,"o":"m 789 0 l 621 0 l 579 124 l 214 124 l 172 0 l 4 0 l 340 972 l 453 972 l 789 0 m 263 267 l 531 267 l 397 707 l 263 267 m 644 1115 l 147 1115 l 147 1250 l 644 1250 l 644 1115 z "},"ā":{"ha":838,"x_min":53,"x_max":736,"o":"m 736 647 l 736 0 l 585 0 l 585 88 q 498 11 554 39 q 385 -17 442 -17 q 250 10 311 -17 q 145 85 189 38 q 77 193 101 132 q 53 324 53 254 q 77 453 53 392 q 145 563 101 515 q 250 637 189 610 q 385 664 311 664 q 498 636 442 664 q 585 560 554 608 l 585 647 l 736 647 m 393 118 q 472 135 436 118 q 532 179 507 151 q 571 244 557 207 q 585 324 585 282 q 571 403 585 365 q 532 468 557 440 q 472 513 507 496 q 393 529 436 529 q 315 513 350 529 q 256 468 281 496 q 217 403 231 440 q 204 324 204 365 q 217 244 204 282 q 256 179 231 207 q 315 135 281 151 q 393 118 350 118 m 632 786 l 135 786 l 135 921 l 632 921 l 632 786 z "},"Ă":{"ha":793,"x_min":4,"x_max":789,"o":"m 789 0 l 621 0 l 579 124 l 214 124 l 172 0 l 4 0 l 340 972 l 453 972 l 789 0 m 263 267 l 531 267 l 397 707 l 263 267 m 397 1197 q 484 1224 450 1197 q 532 1297 518 1251 l 674 1297 q 641 1212 665 1251 q 580 1143 617 1172 q 497 1097 543 1114 q 397 1081 450 1081 q 296 1097 343 1081 q 213 1143 249 1114 q 153 1212 176 1172 q 121 1297 129 1251 l 263 1297 q 310 1224 276 1251 q 397 1197 344 1197 z "},"ă":{"ha":838,"x_min":53,"x_max":736,"o":"m 736 647 l 736 0 l 585 0 l 585 88 q 498 11 554 39 q 385 -17 442 -17 q 250 10 311 -17 q 145 85 189 38 q 77 193 101 132 q 53 324 53 254 q 77 453 53 392 q 145 563 101 515 q 250 637 189 610 q 385 664 311 664 q 498 636 442 664 q 585 560 554 608 l 585 647 l 736 647 m 393 118 q 472 135 436 118 q 532 179 507 151 q 571 244 557 207 q 585 324 585 282 q 571 403 585 365 q 532 468 557 440 q 472 513 507 496 q 393 529 436 529 q 315 513 350 529 q 256 468 281 496 q 217 403 231 440 q 204 324 204 365 q 217 244 204 282 q 256 179 231 207 q 315 135 281 151 q 393 118 350 118 m 390 872 q 477 899 443 872 q 525 972 511 926 l 667 972 q 634 887 658 926 q 573 818 610 847 q 490 772 536 789 q 390 756 443 756 q 289 772 336 756 q 206 818 242 789 q 146 887 169 847 q 114 972 122 926 l 256 972 q 303 899 269 926 q 390 872 338 872 z "},"Ą":{"ha":793,"x_min":4,"x_max":790,"o":"m 263 267 l 531 267 l 397 707 l 263 267 m 790 -274 q 734 -287 768 -281 q 664 -294 700 -294 q 544 -255 585 -294 q 504 -160 504 -215 q 535 -76 504 -115 q 621 0 565 -36 l 579 124 l 214 124 l 172 0 l 4 0 l 340 972 l 453 972 l 789 0 l 726 0 q 699 -20 713 -10 q 674 -43 685 -31 q 656 -72 663 -56 q 649 -108 649 -87 q 665 -160 649 -137 q 713 -182 682 -182 q 750 -178 729 -182 q 790 -165 771 -174 l 790 -274 z "},"ą":{"ha":838,"x_min":53,"x_max":740,"o":"m 736 0 l 697 0 q 665 -23 681 -11 q 635 -49 649 -35 q 614 -82 622 -64 q 606 -122 606 -100 q 620 -164 606 -146 q 663 -182 635 -182 q 700 -178 679 -182 q 740 -165 721 -174 l 740 -274 q 684 -287 718 -281 q 614 -294 650 -294 q 489 -255 531 -294 q 447 -160 447 -215 q 482 -74 447 -112 q 585 7 517 -35 l 585 88 q 498 11 554 39 q 385 -17 442 -17 q 250 10 311 -17 q 145 85 189 38 q 77 193 101 132 q 53 324 53 254 q 77 453 53 392 q 145 563 101 515 q 250 637 189 610 q 385 664 311 664 q 498 636 442 664 q 585 560 554 608 l 585 647 l 736 647 l 736 0 m 393 118 q 472 135 436 118 q 532 179 507 151 q 571 244 557 207 q 585 324 585 282 q 571 403 585 365 q 532 468 557 440 q 472 513 507 496 q 393 529 436 529 q 315 513 350 529 q 256 468 281 496 q 217 403 231 440 q 204 324 204 365 q 217 244 204 282 q 256 179 231 207 q 315 135 281 151 q 393 118 350 118 z "},"Ć":{"ha":1076,"x_min":53,"x_max":1025,"o":"m 1025 313 q 968 181 1008 242 q 868 74 928 119 q 731 2 808 28 q 564 -24 653 -24 q 350 18 444 -24 q 190 130 256 60 q 88 292 124 200 q 53 488 53 385 q 87 678 53 586 q 185 840 121 769 q 341 953 250 911 q 547 996 432 996 q 740 966 656 996 q 883 885 824 936 q 978 766 943 835 q 1025 618 1014 697 l 857 618 q 824 711 849 668 q 763 785 800 754 q 677 835 726 817 q 568 853 628 853 q 419 822 485 853 q 308 741 353 792 q 240 624 264 690 q 217 488 217 558 q 241 346 217 413 q 312 228 265 279 q 427 149 358 178 q 585 119 496 119 q 669 134 626 119 q 747 174 711 149 q 810 235 783 200 q 850 313 838 271 l 1025 313 m 401 1040 l 329 1158 l 675 1349 l 747 1231 l 401 1040 z "},"ć":{"ha":742,"x_min":56,"x_max":686,"o":"m 533 411 q 492 497 526 464 q 381 529 458 529 q 304 513 336 529 q 250 467 272 496 q 217 402 228 439 q 207 324 207 365 q 217 244 207 282 q 250 179 228 207 q 307 135 272 151 q 390 118 342 118 q 488 146 457 118 q 535 222 519 174 l 686 222 q 656 128 678 172 q 595 52 633 85 q 503 1 557 19 q 379 -17 450 -17 q 240 12 300 -17 q 138 88 179 40 q 76 196 97 135 q 56 324 56 257 q 76 451 56 389 q 138 560 97 513 q 239 635 179 607 q 378 664 299 664 q 513 642 457 664 q 606 584 569 619 q 662 503 643 549 q 685 411 681 458 l 533 411 m 233 688 l 161 806 l 507 996 l 579 878 l 233 688 z "},"Ĉ":{"ha":1076,"x_min":53,"x_max":1025,"o":"m 1025 313 q 968 181 1008 242 q 868 74 928 119 q 731 2 808 28 q 564 -24 653 -24 q 350 18 444 -24 q 190 130 256 60 q 88 292 124 200 q 53 488 53 385 q 87 678 53 586 q 185 840 121 769 q 341 953 250 911 q 547 996 432 996 q 740 966 656 996 q 883 885 824 936 q 978 766 943 835 q 1025 618 1014 697 l 857 618 q 824 711 849 668 q 763 785 800 754 q 677 835 726 817 q 568 853 628 853 q 419 822 485 853 q 308 741 353 792 q 240 624 264 690 q 217 488 217 558 q 241 346 217 413 q 312 228 265 279 q 427 149 358 178 q 585 119 496 119 q 669 134 626 119 q 747 174 711 149 q 810 235 783 200 q 850 313 838 271 l 1025 313 m 550 1350 l 801 1133 l 714 1036 l 551 1186 l 390 1038 l 301 1133 l 550 1350 z "},"ĉ":{"ha":742,"x_min":56,"x_max":686,"o":"m 533 411 q 492 497 526 464 q 381 529 458 529 q 304 513 336 529 q 250 467 272 496 q 217 402 228 439 q 207 324 207 365 q 217 244 207 282 q 250 179 228 207 q 307 135 272 151 q 390 118 342 118 q 488 146 457 118 q 535 222 519 174 l 686 222 q 656 128 678 172 q 595 52 633 85 q 503 1 557 19 q 379 -17 450 -17 q 240 12 300 -17 q 138 88 179 40 q 76 196 97 135 q 56 324 56 257 q 76 451 56 389 q 138 560 97 513 q 239 635 179 607 q 378 664 299 664 q 513 642 457 664 q 606 584 569 619 q 662 503 643 549 q 685 411 681 458 l 533 411 m 386 1040 l 638 824 l 550 726 l 388 876 l 226 728 l 138 824 l 386 1040 z "},"Ċ":{"ha":1076,"x_min":53,"x_max":1025,"o":"m 1025 313 q 968 181 1008 242 q 868 74 928 119 q 731 2 808 28 q 564 -24 653 -24 q 350 18 444 -24 q 190 130 256 60 q 88 292 124 200 q 53 488 53 385 q 87 678 53 586 q 185 840 121 769 q 341 953 250 911 q 547 996 432 996 q 740 966 656 996 q 883 885 824 936 q 978 766 943 835 q 1025 618 1014 697 l 857 618 q 824 711 849 668 q 763 785 800 754 q 677 835 726 817 q 568 853 628 853 q 419 822 485 853 q 308 741 353 792 q 240 624 264 690 q 217 488 217 558 q 241 346 217 413 q 312 228 265 279 q 427 149 358 178 q 585 119 496 119 q 669 134 626 119 q 747 174 711 149 q 810 235 783 200 q 850 313 838 271 l 1025 313 m 436 1201 q 469 1281 436 1249 q 547 1314 501 1314 q 627 1281 594 1314 q 660 1201 660 1249 q 627 1123 660 1156 q 547 1090 594 1090 q 469 1123 501 1090 q 436 1201 436 1156 z "},"ċ":{"ha":742,"x_min":56,"x_max":686,"o":"m 533 411 q 492 497 526 464 q 381 529 458 529 q 304 513 336 529 q 250 467 272 496 q 217 402 228 439 q 207 324 207 365 q 217 244 207 282 q 250 179 228 207 q 307 135 272 151 q 390 118 342 118 q 488 146 457 118 q 535 222 519 174 l 686 222 q 656 128 678 172 q 595 52 633 85 q 503 1 557 19 q 379 -17 450 -17 q 240 12 300 -17 q 138 88 179 40 q 76 196 97 135 q 56 324 56 257 q 76 451 56 389 q 138 560 97 513 q 239 635 179 607 q 378 664 299 664 q 513 642 457 664 q 606 584 569 619 q 662 503 643 549 q 685 411 681 458 l 533 411 m 268 851 q 301 931 268 899 q 379 964 333 964 q 459 931 426 964 q 492 851 492 899 q 459 773 492 806 q 379 740 426 740 q 301 773 333 740 q 268 851 268 806 z "},"Č":{"ha":1076,"x_min":53,"x_max":1025,"o":"m 1025 313 q 968 181 1008 242 q 868 74 928 119 q 731 2 808 28 q 564 -24 653 -24 q 350 18 444 -24 q 190 130 256 60 q 88 292 124 200 q 53 488 53 385 q 87 678 53 586 q 185 840 121 769 q 341 953 250 911 q 547 996 432 996 q 740 966 656 996 q 883 885 824 936 q 978 766 943 835 q 1025 618 1014 697 l 857 618 q 824 711 849 668 q 763 785 800 754 q 677 835 726 817 q 568 853 628 853 q 419 822 485 853 q 308 741 353 792 q 240 624 264 690 q 217 488 217 558 q 241 346 217 413 q 312 228 265 279 q 427 149 358 178 q 585 119 496 119 q 669 134 626 119 q 747 174 711 149 q 810 235 783 200 q 850 313 838 271 l 1025 313 m 286 1253 l 375 1349 l 536 1200 l 699 1350 l 786 1253 l 535 1036 l 286 1253 z "},"č":{"ha":742,"x_min":56,"x_max":686,"o":"m 533 411 q 492 497 526 464 q 381 529 458 529 q 304 513 336 529 q 250 467 272 496 q 217 402 228 439 q 207 324 207 365 q 217 244 207 282 q 250 179 228 207 q 307 135 272 151 q 390 118 342 118 q 488 146 457 118 q 535 222 519 174 l 686 222 q 656 128 678 172 q 595 52 633 85 q 503 1 557 19 q 379 -17 450 -17 q 240 12 300 -17 q 138 88 179 40 q 76 196 97 135 q 56 324 56 257 q 76 451 56 389 q 138 560 97 513 q 239 635 179 607 q 378 664 299 664 q 513 642 457 664 q 606 584 569 619 q 662 503 643 549 q 685 411 681 458 l 533 411 m 132 936 l 221 1032 l 382 883 l 544 1033 l 632 936 l 381 719 l 132 936 z "},"Ď":{"ha":974,"x_min":101,"x_max":921,"o":"m 417 972 q 631 931 538 972 q 790 821 725 889 q 888 665 854 753 q 921 486 921 578 q 888 307 921 394 q 790 151 854 219 q 631 42 725 83 q 417 0 538 0 l 101 0 l 101 972 l 417 972 m 261 829 l 261 143 l 417 143 q 561 172 497 143 q 668 249 625 201 q 734 359 711 297 q 757 486 757 421 q 734 613 757 551 q 668 723 711 675 q 561 800 625 771 q 417 829 497 829 l 261 829 m 203 1253 l 292 1349 l 453 1200 l 615 1350 l 703 1253 l 451 1036 l 203 1253 z "},"ď":{"ha":1043,"x_min":53,"x_max":1043,"o":"m 393 118 q 472 135 436 118 q 532 179 507 151 q 571 244 557 207 q 585 324 585 282 q 571 403 585 365 q 532 468 557 440 q 472 513 507 496 q 393 529 436 529 q 315 513 350 529 q 256 468 281 496 q 217 403 231 440 q 204 324 204 365 q 217 244 204 282 q 256 179 231 207 q 315 135 281 151 q 393 118 350 118 m 585 972 l 736 972 l 736 0 l 585 0 l 585 88 q 498 11 554 39 q 385 -17 442 -17 q 250 10 311 -17 q 145 85 189 38 q 77 193 101 132 q 53 324 53 254 q 77 453 53 392 q 145 563 101 515 q 250 637 189 610 q 385 664 311 664 q 498 636 442 664 q 585 560 554 608 l 585 972 m 817 915 q 848 992 817 960 q 924 1024 879 1024 q 1010 986 978 1024 q 1043 886 1043 949 q 985 715 1043 764 q 822 664 928 665 l 822 732 q 880 740 857 732 q 918 760 903 747 q 941 788 933 772 q 951 818 949 803 q 940 813 949 815 q 924 811 932 811 q 846 841 875 811 q 817 915 817 871 z "},"Đ":{"ha":974,"x_min":-64,"x_max":921,"o":"m 417 972 q 631 931 538 972 q 790 821 725 889 q 888 665 854 753 q 921 486 921 578 q 888 307 921 394 q 790 151 854 219 q 631 42 725 83 q 417 0 538 0 l 101 0 l 101 419 l -64 419 l -64 554 l 101 554 l 101 972 l 417 972 m 433 419 l 261 419 l 261 143 l 417 143 q 561 172 497 143 q 668 249 625 201 q 734 359 711 297 q 757 486 757 421 q 734 613 757 551 q 668 723 711 675 q 561 800 625 771 q 417 829 497 829 l 261 829 l 261 554 l 433 554 l 433 419 z "},"đ":{"ha":838,"x_min":53,"x_max":793,"o":"m 793 736 l 736 736 l 736 0 l 585 0 l 585 88 q 498 11 554 39 q 385 -17 442 -17 q 250 10 311 -17 q 145 85 189 38 q 77 193 101 132 q 53 324 53 254 q 77 453 53 392 q 145 563 101 515 q 250 637 189 610 q 385 664 311 664 q 498 636 442 664 q 585 560 554 608 l 585 736 l 435 736 l 435 836 l 585 836 l 585 972 l 736 972 l 736 836 l 793 836 l 793 736 m 393 118 q 472 135 436 118 q 532 179 507 151 q 571 244 557 207 q 585 324 585 282 q 571 403 585 365 q 532 468 557 440 q 472 513 507 496 q 393 529 436 529 q 315 513 350 529 q 256 468 281 496 q 217 403 231 440 q 204 324 204 365 q 217 244 204 282 q 256 179 231 207 q 315 135 281 151 q 393 118 350 118 z "},"Ē":{"ha":757,"x_min":101,"x_max":663,"o":"m 261 829 l 261 554 l 663 554 l 663 411 l 261 411 l 261 143 l 663 143 l 663 0 l 101 0 l 101 972 l 663 972 l 663 829 l 261 829 m 628 1115 l 131 1115 l 131 1250 l 628 1250 l 628 1115 z "},"ē":{"ha":738,"x_min":56,"x_max":675,"o":"m 206 278 q 218 213 208 243 q 248 159 228 182 q 300 123 268 136 q 379 110 332 110 q 474 135 444 110 q 517 194 503 160 l 669 194 q 640 115 663 153 q 579 47 617 76 q 492 1 542 18 q 379 -17 442 -17 q 237 10 297 -17 q 136 82 176 36 q 76 190 96 128 q 56 324 56 253 q 77 458 56 396 q 139 567 99 521 q 239 638 179 613 q 375 664 299 664 q 492 642 438 664 q 588 580 547 619 q 652 488 629 540 q 675 372 675 435 q 674 333 675 356 q 668 278 674 310 l 206 278 m 371 550 q 253 510 300 550 q 206 390 206 469 l 528 390 q 484 508 528 465 q 371 550 440 550 m 632 786 l 135 786 l 135 921 l 632 921 l 632 786 z "},"Ĕ":{"ha":757,"x_min":101,"x_max":663,"o":"m 261 829 l 261 554 l 663 554 l 663 411 l 261 411 l 261 143 l 663 143 l 663 0 l 101 0 l 101 972 l 663 972 l 663 829 l 261 829 m 385 1197 q 472 1224 438 1197 q 519 1297 506 1251 l 661 1297 q 628 1212 653 1251 q 567 1143 604 1172 q 484 1097 531 1114 q 385 1081 438 1081 q 283 1097 331 1081 q 200 1143 236 1114 q 140 1212 164 1172 q 108 1297 117 1251 l 250 1297 q 298 1224 264 1251 q 385 1197 332 1197 z "},"ĕ":{"ha":738,"x_min":56,"x_max":675,"o":"m 206 278 q 218 213 208 243 q 248 159 228 182 q 300 123 268 136 q 379 110 332 110 q 474 135 444 110 q 517 194 503 160 l 669 194 q 640 115 663 153 q 579 47 617 76 q 492 1 542 18 q 379 -17 442 -17 q 237 10 297 -17 q 136 82 176 36 q 76 190 96 128 q 56 324 56 253 q 77 458 56 396 q 139 567 99 521 q 239 638 179 613 q 375 664 299 664 q 492 642 438 664 q 588 580 547 619 q 652 488 629 540 q 675 372 675 435 q 674 333 675 356 q 668 278 674 310 l 206 278 m 371 550 q 253 510 300 550 q 206 390 206 469 l 528 390 q 484 508 528 465 q 371 550 440 550 m 372 872 q 459 899 425 872 q 507 972 493 926 l 649 972 q 616 887 640 926 q 555 818 592 847 q 472 772 518 789 q 372 756 425 756 q 271 772 318 756 q 188 818 224 789 q 128 887 151 847 q 96 972 104 926 l 238 972 q 285 899 251 926 q 372 872 319 872 z "},"Ė":{"ha":757,"x_min":101,"x_max":663,"o":"m 261 829 l 261 554 l 663 554 l 663 411 l 261 411 l 261 143 l 663 143 l 663 0 l 101 0 l 101 972 l 663 972 l 663 829 l 261 829 m 267 1201 q 299 1281 267 1249 q 378 1314 332 1314 q 458 1281 425 1314 q 490 1201 490 1249 q 458 1123 490 1156 q 378 1090 425 1090 q 299 1123 332 1090 q 267 1201 267 1156 z "},"ė":{"ha":738,"x_min":56,"x_max":675,"o":"m 206 278 q 218 213 208 243 q 248 159 228 182 q 300 123 268 136 q 379 110 332 110 q 474 135 444 110 q 517 194 503 160 l 669 194 q 640 115 663 153 q 579 47 617 76 q 492 1 542 18 q 379 -17 442 -17 q 237 10 297 -17 q 136 82 176 36 q 76 190 96 128 q 56 324 56 253 q 77 458 56 396 q 139 567 99 521 q 239 638 179 613 q 375 664 299 664 q 492 642 438 664 q 588 580 547 619 q 652 488 629 540 q 675 372 675 435 q 674 333 675 356 q 668 278 674 310 l 206 278 m 371 550 q 253 510 300 550 q 206 390 206 469 l 528 390 q 484 508 528 465 q 371 550 440 550 m 257 851 q 290 931 257 899 q 368 964 322 964 q 448 931 415 964 q 481 851 481 899 q 448 773 481 806 q 368 740 415 740 q 290 773 322 740 q 257 851 257 806 z "},"Ę":{"ha":757,"x_min":101,"x_max":663,"o":"m 101 0 l 101 972 l 663 972 l 663 829 l 261 829 l 261 554 l 663 554 l 663 411 l 261 411 l 261 143 l 663 143 l 663 0 l 599 0 q 571 -20 585 -10 q 546 -43 557 -31 q 528 -72 535 -56 q 521 -108 521 -87 q 538 -160 521 -137 q 585 -182 554 -182 q 622 -178 601 -182 q 663 -165 643 -174 l 663 -274 q 606 -287 640 -281 q 536 -294 572 -294 q 417 -255 457 -294 q 376 -160 376 -215 q 403 -78 376 -115 q 486 0 431 -40 l 101 0 z "},"ę":{"ha":738,"x_min":56,"x_max":675,"o":"m 510 -274 q 453 -287 488 -281 q 383 -294 419 -294 q 264 -255 304 -294 q 224 -160 224 -215 q 247 -83 224 -118 q 317 -11 269 -47 q 201 30 250 -1 q 120 106 153 61 q 72 208 88 151 q 56 324 56 264 q 77 458 56 396 q 139 567 99 521 q 239 638 179 613 q 375 664 299 664 q 492 642 438 664 q 588 580 547 619 q 652 488 629 540 q 675 372 675 435 q 674 333 675 356 q 668 278 674 310 l 210 278 q 219 213 210 243 q 249 159 229 182 q 301 123 269 136 q 379 110 333 110 q 434 117 411 110 q 473 135 457 124 q 499 162 489 146 q 517 194 510 178 l 669 194 q 643 122 663 157 q 592 59 624 88 q 519 11 561 31 q 426 -14 478 -8 q 385 -53 403 -31 q 368 -108 368 -75 q 385 -160 368 -137 q 432 -182 401 -182 q 469 -178 449 -182 q 510 -165 490 -174 l 510 -274 m 371 550 q 253 510 300 550 q 206 390 206 469 l 528 390 q 484 508 528 465 q 371 550 440 550 z "},"Ě":{"ha":757,"x_min":101,"x_max":663,"o":"m 261 829 l 261 554 l 663 554 l 663 411 l 261 411 l 261 143 l 663 143 l 663 0 l 101 0 l 101 972 l 663 972 l 663 829 l 261 829 m 126 1253 l 215 1349 l 376 1200 l 539 1350 l 626 1253 l 375 1036 l 126 1253 z "},"ě":{"ha":738,"x_min":56,"x_max":675,"o":"m 206 278 q 218 213 208 243 q 248 159 228 182 q 300 123 268 136 q 379 110 332 110 q 474 135 444 110 q 517 194 503 160 l 669 194 q 640 115 663 153 q 579 47 617 76 q 492 1 542 18 q 379 -17 442 -17 q 237 10 297 -17 q 136 82 176 36 q 76 190 96 128 q 56 324 56 253 q 77 458 56 396 q 139 567 99 521 q 239 638 179 613 q 375 664 299 664 q 492 642 438 664 q 588 580 547 619 q 652 488 629 540 q 675 372 675 435 q 674 333 675 356 q 668 278 674 310 l 206 278 m 371 550 q 253 510 300 550 q 206 390 206 469 l 528 390 q 484 508 528 465 q 371 550 440 550 m 119 936 l 208 1032 l 369 883 l 532 1033 l 619 936 l 368 719 l 119 936 z "},"Ĝ":{"ha":1164,"x_min":53,"x_max":1133,"o":"m 671 488 l 1133 488 l 1133 344 l 1026 344 q 972 195 1010 263 q 874 79 933 128 q 735 3 815 31 q 553 -24 654 -24 q 340 19 433 -24 q 183 132 247 61 q 86 295 119 203 q 53 486 53 388 q 88 677 53 585 q 188 840 122 769 q 345 953 253 911 q 553 996 438 996 q 712 971 639 996 q 840 903 785 946 q 928 802 894 860 q 967 681 961 744 l 806 681 q 778 748 799 717 q 724 803 757 779 q 647 840 690 826 q 553 853 603 853 q 413 822 475 853 q 306 741 350 792 q 240 624 263 690 q 217 486 217 557 q 239 349 217 415 q 306 231 261 282 q 417 150 350 181 q 574 119 483 119 q 685 138 636 119 q 770 187 735 156 q 828 259 806 218 q 857 344 850 300 l 671 344 l 671 488 m 554 1350 l 806 1133 l 718 1036 l 556 1186 l 394 1038 l 306 1133 l 554 1350 z "},"ĝ":{"ha":833,"x_min":53,"x_max":736,"o":"m 736 -32 q 644 -268 736 -192 q 536 -323 600 -306 q 390 -340 472 -340 q 250 -317 310 -340 q 150 -257 190 -294 q 88 -173 110 -221 q 64 -74 67 -125 l 217 -74 q 265 -166 222 -126 q 390 -206 308 -206 q 533 -165 482 -206 q 585 -32 585 -124 l 585 88 q 498 11 554 39 q 385 -17 442 -17 q 250 10 311 -17 q 145 85 189 38 q 77 193 101 132 q 53 324 53 254 q 77 453 53 392 q 145 563 101 515 q 250 637 189 610 q 385 664 311 664 q 498 636 442 664 q 585 560 554 608 l 585 647 l 736 647 l 736 -32 m 393 529 q 315 513 350 529 q 256 468 281 496 q 217 403 231 440 q 204 324 204 365 q 217 244 204 282 q 256 179 231 207 q 315 135 281 151 q 393 118 350 118 q 472 135 436 118 q 532 179 507 151 q 571 244 557 207 q 585 324 585 282 q 571 403 585 365 q 532 468 557 440 q 472 513 507 496 q 393 529 436 529 m 385 1040 l 636 824 l 549 726 l 386 876 l 225 728 l 136 824 l 385 1040 z "},"Ğ":{"ha":1164,"x_min":53,"x_max":1133,"o":"m 671 488 l 1133 488 l 1133 344 l 1026 344 q 972 195 1010 263 q 874 79 933 128 q 735 3 815 31 q 553 -24 654 -24 q 340 19 433 -24 q 183 132 247 61 q 86 295 119 203 q 53 486 53 388 q 88 677 53 585 q 188 840 122 769 q 345 953 253 911 q 553 996 438 996 q 712 971 639 996 q 840 903 785 946 q 928 802 894 860 q 967 681 961 744 l 806 681 q 778 748 799 717 q 724 803 757 779 q 647 840 690 826 q 553 853 603 853 q 413 822 475 853 q 306 741 350 792 q 240 624 263 690 q 217 486 217 557 q 239 349 217 415 q 306 231 261 282 q 417 150 350 181 q 574 119 483 119 q 685 138 636 119 q 770 187 735 156 q 828 259 806 218 q 857 344 850 300 l 671 344 l 671 488 m 553 1197 q 640 1224 606 1197 q 688 1297 674 1251 l 829 1297 q 797 1212 821 1251 q 735 1143 772 1172 q 652 1097 699 1114 q 553 1081 606 1081 q 451 1097 499 1081 q 368 1143 404 1114 q 308 1212 332 1172 q 276 1297 285 1251 l 418 1297 q 466 1224 432 1251 q 553 1197 500 1197 z "},"ğ":{"ha":833,"x_min":53,"x_max":736,"o":"m 736 -32 q 644 -268 736 -192 q 536 -323 600 -306 q 390 -340 472 -340 q 250 -317 310 -340 q 150 -257 190 -294 q 88 -173 110 -221 q 64 -74 67 -125 l 217 -74 q 265 -166 222 -126 q 390 -206 308 -206 q 533 -165 482 -206 q 585 -32 585 -124 l 585 88 q 498 11 554 39 q 385 -17 442 -17 q 250 10 311 -17 q 145 85 189 38 q 77 193 101 132 q 53 324 53 254 q 77 453 53 392 q 145 563 101 515 q 250 637 189 610 q 385 664 311 664 q 498 636 442 664 q 585 560 554 608 l 585 647 l 736 647 l 736 -32 m 393 529 q 315 513 350 529 q 256 468 281 496 q 217 403 231 440 q 204 324 204 365 q 217 244 204 282 q 256 179 231 207 q 315 135 281 151 q 393 118 350 118 q 472 135 436 118 q 532 179 507 151 q 571 244 557 207 q 585 324 585 282 q 571 403 585 365 q 532 468 557 440 q 472 513 507 496 q 393 529 436 529 m 390 872 q 477 899 443 872 q 525 972 511 926 l 667 972 q 634 887 658 926 q 573 818 610 847 q 490 772 536 789 q 390 756 443 756 q 289 772 336 756 q 206 818 242 789 q 146 887 169 847 q 114 972 122 926 l 256 972 q 303 899 269 926 q 390 872 338 872 z "},"Ġ":{"ha":1164,"x_min":53,"x_max":1133,"o":"m 671 488 l 1133 488 l 1133 344 l 1026 344 q 972 195 1010 263 q 874 79 933 128 q 735 3 815 31 q 553 -24 654 -24 q 340 19 433 -24 q 183 132 247 61 q 86 295 119 203 q 53 486 53 388 q 88 677 53 585 q 188 840 122 769 q 345 953 253 911 q 553 996 438 996 q 712 971 639 996 q 840 903 785 946 q 928 802 894 860 q 967 681 961 744 l 806 681 q 778 748 799 717 q 724 803 757 779 q 647 840 690 826 q 553 853 603 853 q 413 822 475 853 q 306 741 350 792 q 240 624 263 690 q 217 486 217 557 q 239 349 217 415 q 306 231 261 282 q 417 150 350 181 q 574 119 483 119 q 685 138 636 119 q 770 187 735 156 q 828 259 806 218 q 857 344 850 300 l 671 344 l 671 488 m 442 1201 q 474 1281 442 1249 q 553 1314 507 1314 q 633 1281 600 1314 q 665 1201 665 1249 q 633 1123 665 1156 q 553 1090 600 1090 q 474 1123 507 1090 q 442 1201 442 1156 z "},"ġ":{"ha":833,"x_min":53,"x_max":736,"o":"m 736 -32 q 644 -268 736 -192 q 536 -323 600 -306 q 390 -340 472 -340 q 250 -317 310 -340 q 150 -257 190 -294 q 88 -173 110 -221 q 64 -74 67 -125 l 217 -74 q 265 -166 222 -126 q 390 -206 308 -206 q 533 -165 482 -206 q 585 -32 585 -124 l 585 88 q 498 11 554 39 q 385 -17 442 -17 q 250 10 311 -17 q 145 85 189 38 q 77 193 101 132 q 53 324 53 254 q 77 453 53 392 q 145 563 101 515 q 250 637 189 610 q 385 664 311 664 q 498 636 442 664 q 585 560 554 608 l 585 647 l 736 647 l 736 -32 m 393 529 q 315 513 350 529 q 256 468 281 496 q 217 403 231 440 q 204 324 204 365 q 217 244 204 282 q 256 179 231 207 q 315 135 281 151 q 393 118 350 118 q 472 135 436 118 q 532 179 507 151 q 571 244 557 207 q 585 324 585 282 q 571 403 585 365 q 532 468 557 440 q 472 513 507 496 q 393 529 436 529 m 263 851 q 295 931 263 899 q 374 964 328 964 q 453 931 421 964 q 486 851 486 899 q 453 773 486 806 q 374 740 421 740 q 295 773 328 740 q 263 851 263 806 z "},"Ģ":{"ha":1164,"x_min":53,"x_max":1133,"o":"m 671 488 l 1133 488 l 1133 344 l 1026 344 q 972 195 1010 263 q 874 79 933 128 q 735 3 815 31 q 553 -24 654 -24 q 340 19 433 -24 q 183 132 247 61 q 86 295 119 203 q 53 486 53 388 q 88 677 53 585 q 188 840 122 769 q 345 953 253 911 q 553 996 438 996 q 712 971 639 996 q 840 903 785 946 q 928 802 894 860 q 967 681 961 744 l 806 681 q 778 748 799 717 q 724 803 757 779 q 647 840 690 826 q 553 853 603 853 q 413 822 475 853 q 306 741 350 792 q 240 624 263 690 q 217 486 217 557 q 239 349 217 415 q 306 231 261 282 q 417 150 350 181 q 574 119 483 119 q 685 138 636 119 q 770 187 735 156 q 828 259 806 218 q 857 344 850 300 l 671 344 l 671 488 m 464 -129 q 490 -65 464 -92 q 553 -39 517 -39 q 626 -71 597 -39 q 654 -154 654 -103 q 605 -298 654 -257 q 468 -340 556 -339 l 468 -283 q 517 -278 497 -283 q 550 -261 536 -272 q 576 -211 574 -242 q 567 -216 574 -214 q 553 -218 560 -218 q 488 -192 513 -218 q 464 -129 464 -165 z "},"ģ":{"ha":833,"x_min":53,"x_max":736,"o":"m 393 529 q 315 513 350 529 q 256 468 281 496 q 217 403 231 440 q 204 324 204 365 q 217 244 204 282 q 256 179 231 207 q 315 135 281 151 q 393 118 350 118 q 472 135 436 118 q 532 179 507 151 q 571 244 557 207 q 585 324 585 282 q 571 403 585 365 q 532 468 557 440 q 472 513 507 496 q 393 529 436 529 m 736 -32 q 644 -268 736 -192 q 536 -323 600 -306 q 390 -340 472 -340 q 250 -317 310 -340 q 150 -257 190 -294 q 88 -173 110 -221 q 64 -74 67 -125 l 217 -74 q 265 -166 222 -126 q 390 -206 308 -206 q 533 -165 482 -206 q 585 -32 585 -124 l 585 88 q 498 11 554 39 q 385 -17 442 -17 q 250 10 311 -17 q 145 85 189 38 q 77 193 101 132 q 53 324 53 254 q 77 453 53 392 q 145 563 101 515 q 250 637 189 610 q 385 664 311 664 q 498 636 442 664 q 585 560 554 608 l 585 647 l 736 647 l 736 -32 m 489 851 q 458 775 489 807 q 382 743 426 743 q 295 781 328 743 q 263 881 263 818 q 320 1052 263 1003 q 483 1103 378 1101 l 483 1035 q 388 1007 419 1035 q 365 980 372 996 q 354 949 357 964 q 365 953 357 951 q 382 956 374 956 q 460 926 431 956 q 489 851 489 896 z "},"Ĥ":{"ha":924,"x_min":101,"x_max":822,"o":"m 663 411 l 261 411 l 261 0 l 101 0 l 101 972 l 261 972 l 261 554 l 663 554 l 663 972 l 822 972 l 822 0 l 663 0 l 663 411 m 461 1350 l 713 1133 l 625 1036 l 463 1186 l 301 1038 l 213 1133 l 461 1350 z "},"ĥ":{"ha":790,"x_min":101,"x_max":700,"o":"m 101 972 l 253 972 l 253 557 q 338 637 283 610 q 464 664 392 664 q 583 640 535 664 q 658 576 631 617 q 691 496 682 540 q 700 385 700 451 l 700 0 l 549 0 l 549 335 q 542 413 549 376 q 519 474 535 449 q 476 515 503 500 q 408 531 449 531 q 291 474 329 531 q 253 335 253 418 l 253 0 l 101 0 l 101 972 m 396 1350 l 647 1133 l 560 1036 l 397 1186 l 236 1038 l 147 1133 l 396 1350 z "},"Ħ":{"ha":924,"x_min":101,"x_max":822,"o":"m 663 689 l 261 689 l 261 554 l 663 554 l 663 689 m 261 972 l 261 803 l 663 803 l 663 972 l 822 972 l 822 0 l 663 0 l 663 411 l 261 411 l 261 0 l 101 0 l 101 972 l 261 972 z "},"ħ":{"ha":790,"x_min":0,"x_max":700,"o":"m 447 736 l 253 736 l 253 557 q 338 637 283 610 q 464 664 392 664 q 583 640 535 664 q 658 576 631 617 q 691 496 682 540 q 700 385 700 451 l 700 0 l 549 0 l 549 335 q 542 413 549 376 q 519 474 535 449 q 476 515 503 500 q 408 531 449 531 q 291 474 329 531 q 253 335 253 418 l 253 0 l 101 0 l 101 736 l 0 736 l 0 836 l 101 836 l 101 972 l 253 972 l 253 836 l 447 836 l 447 736 z "},"Ĩ":{"ha":368,"x_min":-94,"x_max":458,"o":"m 101 972 l 267 972 l 267 0 l 101 0 l 101 972 m 271 1221 q 317 1240 300 1221 q 350 1282 335 1258 l 458 1225 q 371 1131 421 1158 q 274 1103 321 1103 q 210 1113 238 1103 q 161 1133 183 1122 q 121 1154 139 1144 q 85 1164 103 1164 q 40 1147 56 1164 q 8 1103 24 1129 l -94 1174 q -10 1258 -57 1233 q 85 1282 36 1282 q 148 1272 121 1282 q 196 1251 175 1263 q 234 1231 217 1240 q 271 1221 251 1221 z "},"ĩ":{"ha":354,"x_min":-94,"x_max":458,"o":"m 101 647 l 253 647 l 253 0 l 101 0 l 101 647 m 271 914 q 317 933 300 914 q 350 975 335 951 l 458 918 q 371 824 421 851 q 274 796 321 796 q 210 806 238 796 q 161 826 183 815 q 121 847 139 838 q 85 857 103 857 q 40 840 56 857 q 8 796 24 822 l -94 867 q -10 951 -57 926 q 85 975 36 975 q 148 965 121 975 q 196 944 175 956 q 234 924 217 933 q 271 914 251 914 z "},"Ī":{"ha":368,"x_min":-64,"x_max":433,"o":"m 101 972 l 267 972 l 267 0 l 101 0 l 101 972 m 433 1115 l -64 1115 l -64 1250 l 433 1250 l 433 1115 z "},"ī":{"ha":354,"x_min":-72,"x_max":425,"o":"m 101 647 l 253 647 l 253 0 l 101 0 l 101 647 m 425 785 l -72 785 l -72 919 l 425 919 l 425 785 z "},"Ĭ":{"ha":368,"x_min":-92,"x_max":461,"o":"m 101 972 l 267 972 l 267 0 l 101 0 l 101 972 m 185 1197 q 272 1224 238 1197 q 319 1297 306 1251 l 461 1297 q 428 1212 453 1251 q 367 1143 404 1172 q 284 1097 331 1114 q 185 1081 238 1081 q 83 1097 131 1081 q 0 1143 36 1114 q -60 1212 -36 1172 q -92 1297 -83 1251 l 50 1297 q 98 1224 64 1251 q 185 1197 132 1197 z "},"ĭ":{"ha":354,"x_min":-97,"x_max":456,"o":"m 101 647 l 253 647 l 253 0 l 101 0 l 101 647 m 179 872 q 266 899 232 872 q 314 972 300 926 l 456 972 q 423 887 447 926 q 362 818 399 847 q 278 772 325 789 q 179 756 232 756 q 78 772 125 756 q -6 818 31 789 q -65 887 -42 847 q -97 972 -89 926 l 44 972 q 92 899 58 926 q 179 872 126 872 z "},"Į":{"ha":368,"x_min":22,"x_max":308,"o":"m 267 0 l 244 0 q 217 -20 231 -10 q 192 -43 203 -31 q 174 -72 181 -56 q 167 -108 167 -87 q 183 -160 167 -137 q 231 -182 200 -182 q 268 -178 247 -182 q 308 -165 289 -174 l 308 -274 q 252 -287 286 -281 q 182 -294 218 -294 q 63 -255 103 -294 q 22 -160 22 -215 q 49 -78 22 -115 q 132 0 76 -40 l 101 0 l 101 972 l 267 972 l 267 0 z "},"į":{"ha":354,"x_min":13,"x_max":299,"o":"m 299 -274 q 242 -287 276 -281 q 172 -294 208 -294 q 53 -255 93 -294 q 13 -160 13 -215 q 40 -78 13 -115 q 122 0 67 -40 l 101 0 l 101 647 l 253 647 l 253 0 l 235 0 q 207 -20 221 -10 q 182 -43 193 -31 q 164 -72 171 -56 q 157 -108 157 -87 q 174 -160 157 -137 q 221 -182 190 -182 q 258 -178 238 -182 q 299 -165 279 -174 l 299 -274 m 65 883 q 98 963 65 931 q 176 996 131 996 q 256 963 224 996 q 289 883 289 931 q 256 805 289 838 q 176 772 224 772 q 98 805 131 772 q 65 883 65 838 z "},"İ":{"ha":368,"x_min":72,"x_max":296,"o":"m 101 972 l 267 972 l 267 0 l 101 0 l 101 972 m 72 1201 q 105 1281 72 1249 q 183 1314 138 1314 q 263 1281 231 1314 q 296 1201 296 1249 q 263 1123 296 1156 q 183 1090 231 1090 q 105 1123 138 1090 q 72 1201 72 1156 z "},"ı":{"ha":331,"x_min":90,"x_max":242,"o":"m 90 647 l 242 647 l 242 0 l 90 0 l 90 647 z "},"Ĳ":{"ha":1113,"x_min":101,"x_max":1018,"o":"m 1018 315 q 997 183 1018 244 q 935 75 976 121 q 835 3 894 29 q 700 -24 776 -24 q 566 3 625 -24 q 467 76 507 29 q 406 184 426 122 q 385 317 385 246 l 544 317 q 583 174 544 229 q 700 119 621 119 q 819 174 779 119 q 858 315 858 228 l 858 972 l 1018 972 l 1018 315 m 101 972 l 267 972 l 267 0 l 101 0 l 101 972 z "},"ĳ":{"ha":697,"x_min":65,"x_max":632,"o":"m 65 883 q 98 963 65 931 q 176 996 131 996 q 256 963 224 996 q 289 883 289 931 q 256 805 289 838 q 176 772 224 772 q 98 805 131 772 q 65 883 65 838 m 253 647 l 253 0 l 101 0 l 101 647 l 253 647 m 596 -151 q 584 -242 596 -206 q 553 -299 572 -278 q 509 -330 533 -321 q 460 -339 485 -339 q 391 -335 424 -339 q 343 -324 358 -331 l 343 -199 q 376 -206 365 -204 q 396 -207 386 -207 q 432 -192 419 -207 q 444 -142 444 -178 l 444 647 l 596 647 l 596 -151 m 408 883 q 441 963 408 931 q 519 996 474 996 q 599 963 567 996 q 632 883 632 931 q 599 805 632 838 q 519 772 567 772 q 441 805 474 772 q 408 883 408 838 z "},"Ĵ":{"ha":744,"x_min":17,"x_max":821,"o":"m 650 315 q 629 183 650 244 q 567 75 608 121 q 467 3 526 29 q 332 -24 408 -24 q 198 3 257 -24 q 99 76 139 29 q 38 184 58 122 q 17 317 17 246 l 176 317 q 215 174 176 229 q 332 119 253 119 q 451 174 411 119 q 490 315 490 228 l 490 972 l 650 972 l 650 315 m 569 1350 l 821 1133 l 733 1036 l 571 1186 l 410 1038 l 321 1133 l 569 1350 z "},"ĵ":{"ha":354,"x_min":-67,"x_max":433,"o":"m 253 -151 q 241 -242 253 -206 q 210 -299 229 -278 q 166 -330 190 -321 q 117 -339 142 -339 q 48 -335 81 -339 q 0 -324 15 -331 l 0 -199 q 33 -206 22 -204 q 53 -207 43 -207 q 89 -192 76 -207 q 101 -142 101 -178 l 101 647 l 253 647 l 253 -151 m 182 1040 l 433 824 l 346 726 l 183 876 l 22 728 l -67 824 l 182 1040 z "},"Ķ":{"ha":843,"x_min":101,"x_max":822,"o":"m 622 0 l 261 426 l 261 0 l 101 0 l 101 972 l 261 972 l 261 544 l 622 972 l 822 972 l 411 486 l 822 0 l 622 0 m 336 -114 q 363 -50 336 -76 q 425 -24 389 -24 q 498 -56 469 -24 q 526 -139 526 -87 q 477 -283 526 -242 q 340 -325 428 -324 l 340 -268 q 389 -262 369 -268 q 422 -246 408 -257 q 449 -196 446 -226 q 439 -201 446 -199 q 425 -203 432 -203 q 360 -176 385 -203 q 336 -114 336 -150 z "},"ķ":{"ha":693,"x_min":101,"x_max":679,"o":"m 679 647 l 410 324 l 679 0 l 490 0 l 253 285 l 253 0 l 101 0 l 101 972 l 253 972 l 253 361 l 490 647 l 679 647 m 253 -114 q 279 -50 253 -76 q 342 -24 306 -24 q 415 -56 386 -24 q 443 -139 443 -87 q 394 -283 443 -242 q 257 -325 344 -324 l 257 -268 q 306 -262 286 -268 q 339 -246 325 -257 q 365 -196 363 -226 q 356 -201 363 -199 q 342 -203 349 -203 q 277 -176 301 -203 q 253 -114 253 -150 z "},"ĸ":{"ha":693,"x_min":101,"x_max":679,"o":"m 410 324 l 679 0 l 490 0 l 253 285 l 253 0 l 101 0 l 101 647 l 253 647 l 253 361 l 490 647 l 679 647 l 410 324 z "},"Ĺ":{"ha":596,"x_min":-24,"x_max":561,"o":"m 561 143 l 561 0 l 101 0 l 101 972 l 261 972 l 261 143 l 561 143 m 49 1040 l -24 1158 l 322 1349 l 394 1231 l 49 1040 z "},"ĺ":{"ha":354,"x_min":-32,"x_max":386,"o":"m 101 972 l 253 972 l 253 0 l 101 0 l 101 972 m 40 1043 l -32 1161 l 314 1351 l 386 1233 l 40 1043 z "},"Ļ":{"ha":596,"x_min":101,"x_max":561,"o":"m 101 972 l 261 972 l 261 143 l 561 143 l 561 0 l 101 0 l 101 972 m 203 -114 q 229 -50 203 -76 q 292 -24 256 -24 q 365 -56 336 -24 q 393 -139 393 -87 q 344 -283 393 -242 q 207 -325 294 -324 l 207 -268 q 256 -262 236 -268 q 289 -246 275 -257 q 315 -196 313 -226 q 292 -203 308 -203 q 227 -176 251 -203 q 203 -114 203 -150 z "},"ļ":{"ha":354,"x_min":82,"x_max":272,"o":"m 101 972 l 253 972 l 253 0 l 101 0 l 101 972 m 82 -114 q 108 -50 82 -76 q 171 -24 135 -24 q 244 -56 215 -24 q 272 -139 272 -87 q 223 -283 272 -242 q 86 -325 174 -324 l 86 -268 q 135 -262 115 -268 q 168 -246 154 -257 q 194 -196 192 -226 q 171 -203 188 -203 q 106 -176 131 -203 q 82 -114 82 -150 z "},"Ľ":{"ha":596,"x_min":101,"x_max":626,"o":"m 561 143 l 561 0 l 101 0 l 101 972 l 261 972 l 261 143 l 561 143 m 400 919 q 431 996 400 964 q 507 1028 463 1028 q 594 990 561 1028 q 626 890 626 953 q 569 719 626 768 q 406 668 511 669 l 406 736 q 463 744 440 736 q 501 764 486 751 q 524 792 517 776 q 535 822 532 807 q 524 817 532 819 q 507 815 515 815 q 429 845 458 815 q 400 919 400 875 z "},"ľ":{"ha":560,"x_min":101,"x_max":560,"o":"m 101 972 l 253 972 l 253 0 l 101 0 l 101 972 m 333 919 q 365 996 333 964 q 440 1028 396 1028 q 527 990 494 1028 q 560 890 560 953 q 502 719 560 768 q 339 668 444 669 l 339 736 q 397 744 374 736 q 435 764 419 751 q 458 792 450 776 q 468 822 465 807 q 457 817 465 819 q 440 815 449 815 q 363 845 392 815 q 333 919 333 875 z "},"Ŀ":{"ha":596,"x_min":101,"x_max":596,"o":"m 561 143 l 561 0 l 101 0 l 101 972 l 261 972 l 261 143 l 561 143 m 372 550 q 405 630 372 597 q 483 663 438 663 q 563 630 531 663 q 596 550 596 597 q 563 472 596 504 q 483 439 531 439 q 405 472 438 439 q 372 550 372 504 z "},"ŀ":{"ha":503,"x_min":101,"x_max":553,"o":"m 101 972 l 253 972 l 253 0 l 101 0 l 101 972 m 329 483 q 362 563 329 531 q 440 596 394 596 q 520 563 488 596 q 553 483 553 531 q 520 405 553 438 q 440 372 488 372 q 362 405 394 372 q 329 483 329 438 z "},"Ł":{"ha":596,"x_min":39,"x_max":561,"o":"m 561 143 l 561 0 l 101 0 l 101 354 l 39 328 l 39 453 l 101 479 l 101 972 l 261 972 l 261 544 l 493 642 l 493 517 l 261 419 l 261 143 l 561 143 z "},"ł":{"ha":354,"x_min":8,"x_max":363,"o":"m 101 408 l 8 358 l 8 472 l 101 522 l 101 972 l 267 972 l 267 610 l 363 661 l 363 543 l 267 492 l 267 0 l 101 0 l 101 408 z "},"Ń":{"ha":922,"x_min":101,"x_max":821,"o":"m 661 281 l 661 972 l 821 972 l 821 0 l 646 0 l 261 692 l 261 0 l 101 0 l 101 972 l 276 972 l 661 281 m 324 1040 l 251 1158 l 597 1349 l 669 1231 l 324 1040 z "},"ń":{"ha":790,"x_min":101,"x_max":700,"o":"m 101 647 l 253 647 l 253 557 q 338 637 283 610 q 464 664 392 664 q 583 640 535 664 q 658 576 631 617 q 691 496 682 540 q 700 385 700 451 l 700 0 l 549 0 l 549 335 q 542 413 549 376 q 519 474 535 449 q 476 515 503 500 q 408 531 449 531 q 291 474 329 531 q 253 335 253 418 l 253 0 l 101 0 l 101 647 m 258 688 l 186 806 l 532 996 l 604 878 l 258 688 z "},"Ņ":{"ha":922,"x_min":101,"x_max":821,"o":"m 646 0 l 261 692 l 261 0 l 101 0 l 101 972 l 276 972 l 661 281 l 661 972 l 821 972 l 821 0 l 646 0 m 365 -114 q 392 -50 365 -76 q 454 -24 418 -24 q 527 -56 499 -24 q 556 -139 556 -87 q 506 -283 556 -242 q 369 -325 457 -324 l 369 -268 q 418 -262 399 -268 q 451 -246 438 -257 q 478 -196 475 -226 q 468 -201 475 -199 q 454 -203 461 -203 q 390 -176 414 -203 q 365 -114 365 -150 z "},"ņ":{"ha":790,"x_min":101,"x_max":700,"o":"m 101 0 l 101 647 l 253 647 l 253 557 q 338 637 283 610 q 464 664 392 664 q 583 640 535 664 q 658 576 631 617 q 691 496 682 540 q 700 385 700 451 l 700 0 l 549 0 l 549 335 q 542 413 549 376 q 519 474 535 449 q 476 515 503 500 q 408 531 449 531 q 291 474 329 531 q 253 335 253 418 l 253 0 l 101 0 m 321 -114 q 347 -50 321 -76 q 410 -24 374 -24 q 483 -56 454 -24 q 511 -139 511 -87 q 462 -283 511 -242 q 325 -325 413 -324 l 325 -268 q 374 -262 354 -268 q 407 -246 393 -257 q 433 -196 431 -226 q 424 -201 431 -199 q 410 -203 417 -203 q 345 -176 369 -203 q 321 -114 321 -150 z "},"Ň":{"ha":922,"x_min":101,"x_max":821,"o":"m 661 281 l 661 972 l 821 972 l 821 0 l 646 0 l 261 692 l 261 0 l 101 0 l 101 972 l 276 972 l 661 281 m 210 1253 l 299 1349 l 460 1200 l 622 1350 l 710 1253 l 458 1036 l 210 1253 z "},"ň":{"ha":790,"x_min":101,"x_max":700,"o":"m 101 0 l 101 647 l 253 647 l 253 557 q 338 637 283 610 q 464 664 392 664 q 583 640 535 664 q 658 576 631 617 q 691 496 682 540 q 700 385 700 451 l 700 0 l 549 0 l 549 335 q 542 413 549 376 q 519 474 535 449 q 476 515 503 500 q 408 531 449 531 q 291 474 329 531 q 253 335 253 418 l 253 0 l 101 0 m 165 936 l 254 1032 l 415 883 l 578 1033 l 665 936 l 414 719 l 165 936 z "},"ŉ":{"ha":790,"x_min":-69,"x_max":700,"o":"m 101 0 l 101 647 l 253 647 l 253 557 q 338 637 283 610 q 464 664 392 664 q 583 640 535 664 q 658 576 631 617 q 691 496 682 540 q 700 385 700 451 l 700 0 l 549 0 l 549 335 q 542 413 549 376 q 519 474 535 449 q 476 515 503 500 q 408 531 449 531 q 291 474 329 531 q 253 335 253 418 l 253 0 l 101 0 m -69 933 q -43 997 -69 971 q 19 1024 -17 1024 q 92 992 64 1024 q 121 908 121 960 q 72 765 121 806 q -65 722 22 724 l -65 779 q -17 785 -36 779 q 17 801 3 792 q 43 851 40 821 q 33 847 40 849 q 19 844 26 844 q -45 871 -21 844 q -69 933 -69 897 z "},"Ŋ":{"ha":922,"x_min":101,"x_max":821,"o":"m 661 281 l 661 972 l 821 972 l 821 -1 q 800 -134 821 -72 q 738 -242 779 -196 q 638 -314 697 -287 q 503 -340 579 -340 q 369 -309 425 -340 q 272 -229 313 -278 l 376 -129 q 432 -178 406 -158 q 503 -197 458 -197 q 622 -143 582 -197 q 661 -1 661 -89 l 261 692 l 261 0 l 101 0 l 101 972 l 261 972 l 661 281 z "},"ŋ":{"ha":790,"x_min":101,"x_max":700,"o":"m 281 -140 q 333 -186 308 -168 q 400 -204 357 -204 q 512 -153 475 -204 q 549 -21 549 -103 l 549 335 q 542 413 549 376 q 519 474 535 449 q 476 515 503 500 q 408 531 449 531 q 291 474 329 531 q 253 335 253 418 l 253 0 l 101 0 l 101 647 l 253 647 l 253 557 q 338 637 283 610 q 464 664 392 664 q 583 640 535 664 q 658 576 631 617 q 691 496 682 540 q 700 385 700 451 l 700 -21 q 681 -146 700 -87 q 623 -247 661 -204 q 528 -315 585 -290 q 400 -340 472 -340 q 274 -310 326 -340 q 182 -235 221 -281 l 281 -140 z "},"Ō":{"ha":1111,"x_min":53,"x_max":1058,"o":"m 556 -24 q 345 19 439 -24 q 187 132 251 61 q 88 295 122 203 q 53 486 53 388 q 88 677 53 585 q 187 840 122 769 q 345 953 251 911 q 556 996 439 996 q 766 953 672 996 q 924 840 860 911 q 1024 677 989 769 q 1058 486 1058 585 q 1024 295 1058 388 q 924 132 989 203 q 766 19 860 61 q 556 -24 672 -24 m 556 119 q 695 150 633 119 q 801 232 757 181 q 867 349 844 283 q 890 486 890 415 q 867 623 890 557 q 801 740 844 689 q 695 822 757 792 q 556 853 633 853 q 416 822 478 853 q 310 740 354 792 q 244 623 267 689 q 221 486 221 557 q 244 349 221 415 q 310 232 267 283 q 416 150 354 181 q 556 119 478 119 m 804 1115 l 307 1115 l 307 1250 l 804 1250 l 804 1115 z "},"ō":{"ha":789,"x_min":53,"x_max":736,"o":"m 393 -17 q 253 10 315 -17 q 146 85 190 38 q 77 193 101 132 q 53 324 53 254 q 77 453 53 392 q 146 563 101 515 q 253 637 190 610 q 393 664 315 664 q 534 637 471 664 q 642 563 597 610 q 712 453 688 515 q 736 324 736 392 q 712 193 736 254 q 642 85 688 132 q 534 10 597 38 q 393 -17 471 -17 m 393 118 q 472 135 436 118 q 532 179 507 151 q 571 244 557 207 q 585 324 585 282 q 571 403 585 365 q 532 468 557 440 q 472 513 507 496 q 393 529 436 529 q 315 513 350 529 q 256 468 281 496 q 217 403 231 440 q 204 324 204 365 q 217 244 204 282 q 256 179 231 207 q 315 135 281 151 q 393 118 350 118 m 643 785 l 146 785 l 146 919 l 643 919 l 643 785 z "},"Ŏ":{"ha":1111,"x_min":53,"x_max":1058,"o":"m 556 -24 q 345 19 439 -24 q 187 132 251 61 q 88 295 122 203 q 53 486 53 388 q 88 677 53 585 q 187 840 122 769 q 345 953 251 911 q 556 996 439 996 q 766 953 672 996 q 924 840 860 911 q 1024 677 989 769 q 1058 486 1058 585 q 1024 295 1058 388 q 924 132 989 203 q 766 19 860 61 q 556 -24 672 -24 m 556 119 q 695 150 633 119 q 801 232 757 181 q 867 349 844 283 q 890 486 890 415 q 867 623 890 557 q 801 740 844 689 q 695 822 757 792 q 556 853 633 853 q 416 822 478 853 q 310 740 354 792 q 244 623 267 689 q 221 486 221 557 q 244 349 221 415 q 310 232 267 283 q 416 150 354 181 q 556 119 478 119 m 556 1197 q 642 1224 608 1197 q 690 1297 676 1251 l 832 1297 q 799 1212 824 1251 q 738 1143 775 1172 q 655 1097 701 1114 q 556 1081 608 1081 q 454 1097 501 1081 q 371 1143 407 1114 q 311 1212 335 1172 q 279 1297 288 1251 l 421 1297 q 469 1224 435 1251 q 556 1197 503 1197 z "},"ŏ":{"ha":789,"x_min":53,"x_max":736,"o":"m 393 -17 q 253 10 315 -17 q 146 85 190 38 q 77 193 101 132 q 53 324 53 254 q 77 453 53 392 q 146 563 101 515 q 253 637 190 610 q 393 664 315 664 q 534 637 471 664 q 642 563 597 610 q 712 453 688 515 q 736 324 736 392 q 712 193 736 254 q 642 85 688 132 q 534 10 597 38 q 393 -17 471 -17 m 393 118 q 472 135 436 118 q 532 179 507 151 q 571 244 557 207 q 585 324 585 282 q 571 403 585 365 q 532 468 557 440 q 472 513 507 496 q 393 529 436 529 q 315 513 350 529 q 256 468 281 496 q 217 403 231 440 q 204 324 204 365 q 217 244 204 282 q 256 179 231 207 q 315 135 281 151 q 393 118 350 118 m 393 872 q 480 899 446 872 q 528 972 514 926 l 669 972 q 637 887 661 926 q 576 818 613 847 q 492 772 539 789 q 393 756 446 756 q 292 772 339 756 q 208 818 244 789 q 149 887 172 847 q 117 972 125 926 l 258 972 q 306 899 272 926 q 393 872 340 872 z "},"Ő":{"ha":1111,"x_min":53,"x_max":1058,"o":"m 556 -24 q 345 19 439 -24 q 187 132 251 61 q 88 295 122 203 q 53 486 53 388 q 88 677 53 585 q 187 840 122 769 q 345 953 251 911 q 556 996 439 996 q 766 953 672 996 q 924 840 860 911 q 1024 677 989 769 q 1058 486 1058 585 q 1024 295 1058 388 q 924 132 989 203 q 766 19 860 61 q 556 -24 672 -24 m 556 119 q 695 150 633 119 q 801 232 757 181 q 867 349 844 283 q 890 486 890 415 q 867 623 890 557 q 801 740 844 689 q 695 822 757 792 q 556 853 633 853 q 416 822 478 853 q 310 740 354 792 q 244 623 267 689 q 221 486 221 557 q 244 349 221 415 q 310 232 267 283 q 416 150 354 181 q 556 119 478 119 m 749 1344 l 882 1278 l 647 1075 l 575 1114 l 749 1344 m 304 1114 l 478 1344 l 611 1278 l 376 1075 l 304 1114 z "},"ő":{"ha":789,"x_min":53,"x_max":739,"o":"m 393 -17 q 253 10 315 -17 q 146 85 190 38 q 77 193 101 132 q 53 324 53 254 q 77 453 53 392 q 146 563 101 515 q 253 637 190 610 q 393 664 315 664 q 534 637 471 664 q 642 563 597 610 q 712 453 688 515 q 736 324 736 392 q 712 193 736 254 q 642 85 688 132 q 534 10 597 38 q 393 -17 471 -17 m 393 118 q 472 135 436 118 q 532 179 507 151 q 571 244 557 207 q 585 324 585 282 q 571 403 585 365 q 532 468 557 440 q 472 513 507 496 q 393 529 436 529 q 315 513 350 529 q 256 468 281 496 q 217 403 231 440 q 204 324 204 365 q 217 244 204 282 q 256 179 231 207 q 315 135 281 151 q 393 118 350 118 m 335 1019 l 468 953 l 233 750 l 161 789 l 335 1019 m 504 750 l 432 789 l 606 1019 l 739 953 l 504 750 z "},"Œ":{"ha":1547,"x_min":53,"x_max":1453,"o":"m 1051 829 l 1051 554 l 1453 554 l 1453 411 l 1051 411 l 1051 143 l 1453 143 l 1453 0 l 892 0 l 892 99 q 744 7 829 40 q 556 -26 660 -26 q 345 16 439 -26 q 187 129 251 58 q 88 292 122 200 q 53 483 53 385 q 88 674 53 582 q 187 838 122 767 q 345 951 251 908 q 556 993 439 993 q 744 960 660 993 q 892 868 829 926 l 892 972 l 1453 972 l 1453 829 l 1051 829 m 556 117 q 695 147 633 117 q 801 229 757 178 q 867 347 844 281 q 890 483 890 413 q 867 620 890 554 q 801 738 844 686 q 695 819 757 789 q 556 850 633 850 q 416 819 478 850 q 310 738 354 789 q 244 620 267 686 q 221 483 221 554 q 244 347 221 413 q 310 229 267 281 q 416 147 354 178 q 556 117 478 117 z "},"œ":{"ha":1267,"x_min":53,"x_max":1204,"o":"m 739 278 q 749 213 739 243 q 778 159 758 182 q 831 123 799 136 q 908 110 863 110 q 963 117 940 110 q 1002 135 986 124 q 1028 162 1018 146 q 1046 194 1039 178 l 1199 194 q 1167 115 1190 153 q 1108 47 1144 76 q 1021 1 1071 18 q 908 -17 971 -17 q 758 15 821 -17 q 656 99 696 46 q 544 15 611 46 q 393 -17 476 -17 q 253 10 315 -17 q 146 85 190 38 q 77 193 101 132 q 53 324 53 254 q 77 453 53 392 q 146 563 101 515 q 253 637 190 610 q 393 664 315 664 q 542 633 476 664 q 653 550 608 603 q 757 633 693 603 q 904 664 821 664 q 1022 642 967 664 q 1117 580 1076 619 q 1181 488 1158 540 q 1204 372 1204 435 q 1203 333 1204 356 q 1197 278 1203 310 l 739 278 m 900 538 q 787 500 833 538 q 740 390 740 463 l 1057 390 q 1013 498 1057 458 q 900 538 969 538 m 393 118 q 472 134 436 118 q 532 177 507 150 q 571 242 557 204 q 585 324 585 279 q 571 404 585 367 q 532 469 557 442 q 472 513 507 497 q 393 529 436 529 q 315 513 350 529 q 256 468 281 496 q 217 403 231 440 q 204 324 204 365 q 217 244 204 282 q 256 179 231 207 q 315 135 281 151 q 393 118 350 118 z "},"Ŕ":{"ha":846,"x_min":101,"x_max":793,"o":"m 101 972 l 450 972 q 591 945 528 972 q 699 871 654 918 q 769 762 744 824 q 793 632 793 700 q 779 531 793 579 q 738 442 765 483 q 673 369 711 401 q 588 317 635 336 l 781 0 l 599 0 l 421 292 l 261 292 l 261 0 l 101 0 l 101 972 m 450 435 q 526 451 492 435 q 583 494 560 467 q 620 556 607 521 q 633 632 633 592 q 620 708 633 672 q 583 770 607 743 q 526 813 560 797 q 450 829 492 829 l 261 829 l 261 435 l 450 435 m 286 1040 l 214 1158 l 560 1349 l 632 1231 l 286 1040 z "},"ŕ":{"ha":525,"x_min":54,"x_max":513,"o":"m 513 507 q 483 513 494 511 q 453 514 471 514 q 304 458 356 514 q 253 279 253 401 l 253 0 l 101 0 l 101 647 l 253 647 l 253 543 q 284 585 264 565 q 331 622 304 606 q 390 647 358 638 q 453 656 421 656 q 513 646 489 656 l 513 507 m 126 715 l 54 833 l 400 1024 l 472 906 l 126 715 z "},"Ŗ":{"ha":846,"x_min":101,"x_max":793,"o":"m 101 972 l 450 972 q 591 945 528 972 q 699 871 654 918 q 769 762 744 824 q 793 632 793 700 q 779 531 793 579 q 738 442 765 483 q 673 369 711 401 q 588 317 635 336 l 781 0 l 599 0 l 421 292 l 261 292 l 261 0 l 101 0 l 101 972 m 328 -114 q 354 -50 328 -76 q 417 -24 381 -24 q 490 -56 461 -24 q 518 -139 518 -87 q 469 -283 518 -242 q 332 -325 419 -324 l 332 -268 q 413 -246 389 -268 q 440 -196 438 -224 q 432 -200 436 -199 q 417 -203 424 -203 q 352 -176 376 -203 q 328 -114 328 -150 m 261 829 l 261 435 l 450 435 q 526 451 492 435 q 583 494 560 467 q 620 556 607 521 q 633 632 633 592 q 620 708 633 672 q 583 770 607 743 q 526 813 560 797 q 450 829 492 829 l 261 829 z "},"ŗ":{"ha":525,"x_min":82,"x_max":513,"o":"m 513 507 q 483 513 494 511 q 453 514 471 514 q 304 458 356 514 q 253 279 253 401 l 253 0 l 101 0 l 101 647 l 253 647 l 253 543 q 284 585 264 565 q 331 622 304 606 q 390 647 358 638 q 453 656 421 656 q 513 646 489 656 l 513 507 m 82 -114 q 108 -50 82 -76 q 171 -24 135 -24 q 244 -56 215 -24 q 272 -139 272 -87 q 223 -283 272 -242 q 86 -325 174 -324 l 86 -268 q 135 -262 115 -268 q 168 -246 154 -257 q 194 -196 192 -226 q 171 -203 188 -203 q 106 -176 131 -203 q 82 -114 82 -150 z "},"Ř":{"ha":846,"x_min":101,"x_max":793,"o":"m 101 972 l 450 972 q 591 945 528 972 q 699 871 654 918 q 769 762 744 824 q 793 632 793 700 q 779 531 793 579 q 738 442 765 483 q 673 369 711 401 q 588 317 635 336 l 781 0 l 599 0 l 421 292 l 261 292 l 261 0 l 101 0 l 101 972 m 450 435 q 526 451 492 435 q 583 494 560 467 q 620 556 607 521 q 633 632 633 592 q 620 708 633 672 q 583 770 607 743 q 526 813 560 797 q 450 829 492 829 l 261 829 l 261 435 l 450 435 m 143 1253 l 232 1349 l 393 1200 l 556 1350 l 643 1253 l 392 1036 l 143 1253 z "},"ř":{"ha":525,"x_min":49,"x_max":549,"o":"m 513 507 q 483 513 494 511 q 453 514 471 514 q 304 458 356 514 q 253 279 253 401 l 253 0 l 101 0 l 101 647 l 253 647 l 253 543 q 284 585 264 565 q 331 622 304 606 q 390 647 358 638 q 453 656 421 656 q 513 646 489 656 l 513 507 m 49 936 l 138 1032 l 299 883 l 461 1033 l 549 936 l 297 719 l 49 936 z "},"Ś":{"ha":790,"x_min":58,"x_max":726,"o":"m 218 318 q 271 171 218 222 q 407 119 324 119 q 469 130 440 119 q 520 159 499 140 q 554 204 542 178 q 567 264 567 231 q 552 326 567 301 q 515 369 538 351 q 465 398 492 386 q 413 418 438 410 q 288 466 346 442 q 185 524 229 490 q 117 607 142 558 q 92 729 92 656 q 116 838 92 789 q 181 923 140 888 q 277 977 222 958 q 393 996 332 996 q 515 974 458 996 q 614 911 572 951 q 679 815 656 871 q 703 692 703 760 l 543 692 q 504 808 543 764 q 397 853 465 853 q 294 822 338 853 q 251 729 251 792 q 263 677 251 700 q 295 638 275 654 q 340 608 315 621 q 393 586 365 596 q 509 542 450 565 q 617 483 568 518 q 696 400 665 449 q 726 282 726 351 q 700 150 726 207 q 628 54 674 93 q 522 -4 582 15 q 393 -24 461 -24 q 266 -1 326 -24 q 160 66 206 22 q 86 173 114 110 q 58 318 58 236 l 218 318 m 258 1040 l 186 1158 l 532 1349 l 604 1231 l 258 1040 z "},"ś":{"ha":631,"x_min":50,"x_max":572,"o":"m 396 365 q 461 339 429 353 q 518 304 493 325 q 558 254 543 283 q 572 181 572 225 q 552 93 572 131 q 497 31 532 56 q 414 -5 461 7 q 314 -17 367 -17 q 214 -1 261 -17 q 130 44 167 14 q 72 117 93 74 q 50 218 50 161 l 197 218 q 233 128 197 154 q 322 103 268 103 q 397 119 367 103 q 428 178 428 136 q 415 214 428 200 q 378 240 403 228 q 315 264 353 251 q 226 296 278 276 q 165 323 193 308 q 115 357 136 338 q 83 406 94 376 q 72 476 72 435 q 92 557 72 522 q 144 616 111 592 q 222 652 178 640 q 315 664 265 664 q 412 647 367 664 q 490 601 457 631 q 543 532 524 572 q 563 444 563 492 l 415 444 q 391 517 415 490 q 311 544 367 544 q 245 526 272 544 q 218 474 218 508 q 229 440 218 453 q 263 416 240 426 q 318 394 285 406 q 396 365 351 382 m 179 688 l 107 806 l 453 996 l 525 878 l 179 688 z "},"Ŝ":{"ha":790,"x_min":58,"x_max":726,"o":"m 218 318 q 271 171 218 222 q 407 119 324 119 q 469 130 440 119 q 520 159 499 140 q 554 204 542 178 q 567 264 567 231 q 552 326 567 301 q 515 369 538 351 q 465 398 492 386 q 413 418 438 410 q 288 466 346 442 q 185 524 229 490 q 117 607 142 558 q 92 729 92 656 q 116 838 92 789 q 181 923 140 888 q 277 977 222 958 q 393 996 332 996 q 515 974 458 996 q 614 911 572 951 q 679 815 656 871 q 703 692 703 760 l 543 692 q 504 808 543 764 q 397 853 465 853 q 294 822 338 853 q 251 729 251 792 q 263 677 251 700 q 295 638 275 654 q 340 608 315 621 q 393 586 365 596 q 509 542 450 565 q 617 483 568 518 q 696 400 665 449 q 726 282 726 351 q 700 150 726 207 q 628 54 674 93 q 522 -4 582 15 q 393 -24 461 -24 q 266 -1 326 -24 q 160 66 206 22 q 86 173 114 110 q 58 318 58 236 l 218 318 m 393 1350 l 644 1133 l 557 1036 l 394 1186 l 233 1038 l 144 1133 l 393 1350 z "},"ŝ":{"ha":631,"x_min":50,"x_max":572,"o":"m 396 365 q 461 339 429 353 q 518 304 493 325 q 558 254 543 283 q 572 181 572 225 q 552 93 572 131 q 497 31 532 56 q 414 -5 461 7 q 314 -17 367 -17 q 214 -1 261 -17 q 130 44 167 14 q 72 117 93 74 q 50 218 50 161 l 197 218 q 233 128 197 154 q 322 103 268 103 q 397 119 367 103 q 428 178 428 136 q 415 214 428 200 q 378 240 403 228 q 315 264 353 251 q 226 296 278 276 q 165 323 193 308 q 115 357 136 338 q 83 406 94 376 q 72 476 72 435 q 92 557 72 522 q 144 616 111 592 q 222 652 178 640 q 315 664 265 664 q 412 647 367 664 q 490 601 457 631 q 543 532 524 572 q 563 444 563 492 l 415 444 q 391 517 415 490 q 311 544 367 544 q 245 526 272 544 q 218 474 218 508 q 229 440 218 453 q 263 416 240 426 q 318 394 285 406 q 396 365 351 382 m 315 1040 l 567 824 l 479 726 l 317 876 l 156 728 l 67 824 l 315 1040 z "},"Ş":{"ha":790,"x_min":58,"x_max":726,"o":"m 346 -21 q 235 13 288 -12 q 143 82 182 39 q 81 184 104 125 q 58 318 58 243 l 218 318 q 271 171 218 222 q 407 119 324 119 q 469 130 440 119 q 520 159 499 140 q 554 204 542 178 q 567 264 567 231 q 552 326 567 301 q 515 369 538 351 q 465 398 492 386 q 413 418 438 410 q 288 466 346 442 q 185 524 229 490 q 117 607 142 558 q 92 729 92 656 q 116 838 92 789 q 181 923 140 888 q 277 977 222 958 q 393 996 332 996 q 515 974 458 996 q 614 911 572 951 q 679 815 656 871 q 703 692 703 760 l 543 692 q 504 808 543 764 q 397 853 465 853 q 294 822 338 853 q 251 729 251 792 q 263 677 251 700 q 295 638 275 654 q 340 608 315 621 q 393 586 365 596 q 509 542 450 565 q 617 483 568 518 q 696 400 665 449 q 726 282 726 351 q 704 160 726 214 q 644 69 682 107 q 554 8 606 31 q 443 -21 503 -14 l 443 -89 q 494 -71 461 -71 q 532 -78 513 -71 q 567 -101 551 -86 q 594 -139 583 -117 q 604 -190 604 -161 q 596 -238 604 -214 q 569 -282 588 -262 q 525 -313 551 -301 q 463 -325 499 -325 q 433 -322 454 -325 q 390 -308 413 -319 q 348 -272 368 -296 q 322 -206 328 -247 l 411 -206 q 463 -247 424 -247 q 501 -232 486 -247 q 515 -190 515 -217 q 500 -153 515 -167 q 464 -139 485 -139 q 421 -164 435 -139 l 346 -164 l 346 -21 z "},"ş":{"ha":631,"x_min":50,"x_max":572,"o":"m 256 -11 q 175 14 213 -4 q 110 61 138 32 q 66 129 82 90 q 50 218 50 168 l 197 218 q 233 128 197 154 q 322 103 268 103 q 397 119 367 103 q 428 178 428 136 q 415 214 428 200 q 378 240 403 228 q 315 264 353 251 q 226 296 278 276 q 165 323 193 308 q 115 357 136 338 q 83 406 94 376 q 72 476 72 435 q 92 557 72 522 q 144 616 111 592 q 222 652 178 640 q 315 664 265 664 q 412 647 367 664 q 490 601 457 631 q 543 532 524 572 q 563 444 563 492 l 415 444 q 391 517 415 490 q 311 544 367 544 q 245 526 272 544 q 218 474 218 508 q 229 440 218 453 q 263 416 240 426 q 318 394 285 406 q 396 365 351 382 q 461 339 429 353 q 518 304 493 325 q 558 254 543 283 q 572 181 572 225 q 556 100 572 135 q 509 41 539 65 q 439 3 479 17 q 353 -14 399 -10 l 353 -89 q 404 -71 371 -71 q 442 -78 422 -71 q 477 -101 461 -86 q 503 -139 493 -117 q 514 -190 514 -161 q 506 -238 514 -214 q 479 -282 497 -262 q 435 -313 461 -301 q 372 -325 408 -325 q 343 -322 364 -325 q 300 -308 322 -319 q 258 -272 278 -296 q 232 -206 238 -247 l 321 -206 q 372 -247 333 -247 q 410 -232 396 -247 q 425 -190 425 -217 q 410 -153 425 -167 q 374 -139 394 -139 q 331 -164 344 -139 l 256 -164 l 256 -11 z "},"Š":{"ha":790,"x_min":58,"x_max":726,"o":"m 218 318 q 271 171 218 222 q 407 119 324 119 q 469 130 440 119 q 520 159 499 140 q 554 204 542 178 q 567 264 567 231 q 552 326 567 301 q 515 369 538 351 q 465 398 492 386 q 413 418 438 410 q 288 466 346 442 q 185 524 229 490 q 117 607 142 558 q 92 729 92 656 q 117 838 92 789 q 183 923 142 888 q 281 977 225 958 q 397 996 336 996 q 519 974 463 996 q 616 911 575 951 q 680 815 657 871 q 703 692 703 760 l 543 692 q 504 808 543 764 q 397 853 465 853 q 294 822 338 853 q 251 729 251 792 q 263 677 251 700 q 295 638 275 654 q 340 608 315 621 q 393 586 365 596 q 509 542 450 565 q 617 483 568 518 q 696 400 665 449 q 726 282 726 351 q 700 150 726 207 q 628 54 674 93 q 522 -4 582 15 q 393 -24 461 -24 q 266 -1 326 -24 q 160 66 206 22 q 86 173 114 110 q 58 318 58 236 l 218 318 m 150 1253 l 239 1349 l 400 1200 l 563 1350 l 650 1253 l 399 1036 l 150 1253 z "},"š":{"ha":631,"x_min":50,"x_max":572,"o":"m 396 365 q 461 339 429 353 q 518 304 493 325 q 558 254 543 283 q 572 181 572 225 q 552 93 572 131 q 497 31 532 56 q 414 -5 461 7 q 314 -17 367 -17 q 214 -1 261 -17 q 130 44 167 14 q 72 117 93 74 q 50 218 50 161 l 197 218 q 233 128 197 154 q 322 103 268 103 q 397 119 367 103 q 428 178 428 136 q 415 214 428 200 q 378 240 403 228 q 315 264 353 251 q 226 296 278 276 q 165 323 193 308 q 115 357 136 338 q 83 406 94 376 q 72 476 72 435 q 92 557 72 522 q 144 616 111 592 q 222 652 178 640 q 315 664 265 664 q 412 647 367 664 q 490 601 457 631 q 543 532 524 572 q 563 444 563 492 l 415 444 q 391 517 415 490 q 311 544 367 544 q 245 526 272 544 q 218 474 218 508 q 229 440 218 453 q 263 416 240 426 q 318 394 285 406 q 396 365 351 382 m 65 936 l 154 1032 l 315 883 l 478 1033 l 565 936 l 314 719 l 65 936 z "},"Ţ":{"ha":669,"x_min":14,"x_max":656,"o":"m 254 829 l 14 829 l 14 972 l 656 972 l 656 829 l 414 829 l 414 0 l 254 0 l 254 829 m 244 -114 q 271 -50 244 -76 q 333 -24 297 -24 q 406 -56 378 -24 q 435 -139 435 -87 q 385 -283 435 -242 q 249 -325 336 -324 l 249 -268 q 330 -246 306 -268 q 357 -196 354 -224 q 349 -200 353 -199 q 333 -203 340 -203 q 269 -176 293 -203 q 244 -114 244 -150 z "},"ţ":{"ha":488,"x_min":28,"x_max":460,"o":"m 28 647 l 138 647 l 138 843 l 289 843 l 289 647 l 438 647 l 438 521 l 289 521 l 289 254 q 295 188 289 213 q 314 149 301 163 q 344 132 326 136 q 383 128 361 128 q 425 129 401 128 q 460 133 449 131 l 460 0 q 411 -6 442 -3 q 347 -8 381 -8 q 283 -3 319 -8 q 215 24 247 1 q 160 92 182 46 q 138 219 138 138 l 138 521 l 28 521 l 28 647 m 199 -114 q 225 -50 199 -76 q 288 -24 251 -24 q 360 -56 332 -24 q 389 -139 389 -87 q 340 -283 389 -242 q 203 -325 290 -324 l 203 -268 q 251 -262 232 -268 q 285 -246 271 -257 q 311 -196 308 -226 q 288 -203 304 -203 q 223 -176 247 -203 q 199 -114 199 -150 z "},"Ť":{"ha":669,"x_min":14,"x_max":656,"o":"m 254 829 l 14 829 l 14 972 l 656 972 l 656 829 l 414 829 l 414 0 l 254 0 l 254 829 m 86 1253 l 175 1349 l 336 1200 l 499 1350 l 586 1253 l 335 1036 l 86 1253 z "},"ť":{"ha":783,"x_min":28,"x_max":693,"o":"m 28 647 l 138 647 l 138 843 l 289 843 l 289 647 l 438 647 l 438 521 l 289 521 l 289 254 q 295 188 289 213 q 314 149 301 163 q 344 132 326 136 q 383 128 361 128 q 425 129 401 128 q 460 133 449 131 l 460 0 q 411 -6 442 -3 q 347 -8 381 -8 q 283 -3 319 -8 q 215 24 247 1 q 160 92 182 46 q 138 219 138 138 l 138 521 l 28 521 l 28 647 m 467 888 q 498 964 467 932 q 574 996 529 996 q 660 958 628 996 q 693 858 693 921 q 635 687 693 736 q 472 636 578 638 l 472 704 q 530 712 507 704 q 568 732 553 719 q 591 760 583 744 q 601 790 599 775 q 590 785 599 788 q 574 783 582 783 q 496 813 525 783 q 467 888 467 843 z "},"Ŧ":{"ha":669,"x_min":14,"x_max":656,"o":"m 583 560 l 414 560 l 414 0 l 254 0 l 254 560 l 86 560 l 86 674 l 254 674 l 254 829 l 14 829 l 14 972 l 656 972 l 656 829 l 414 829 l 414 674 l 583 674 l 583 560 z "},"ŧ":{"ha":488,"x_min":28,"x_max":460,"o":"m 460 0 q 411 -6 442 -3 q 347 -8 381 -8 q 283 -3 319 -8 q 215 24 247 1 q 160 92 182 46 q 138 219 138 138 l 138 294 l 28 294 l 28 394 l 138 394 l 138 521 l 28 521 l 28 647 l 138 647 l 138 843 l 289 843 l 289 647 l 438 647 l 438 521 l 289 521 l 289 394 l 399 394 l 399 294 l 289 294 l 289 254 q 295 188 289 213 q 314 149 301 163 q 344 132 326 136 q 383 128 361 128 q 425 129 401 128 q 460 133 449 131 l 460 0 z "},"Ũ":{"ha":889,"x_min":94,"x_max":794,"o":"m 94 972 l 254 972 l 254 325 q 267 246 254 283 q 306 181 281 208 q 365 136 331 153 q 443 119 400 119 q 522 136 486 119 q 582 181 557 153 q 621 246 607 208 q 635 325 635 283 l 635 972 l 794 972 l 794 325 q 769 191 794 254 q 699 80 744 128 q 588 4 653 32 q 443 -24 524 -24 q 300 4 364 -24 q 190 80 236 32 q 119 191 144 128 q 94 325 94 254 l 94 972 m 538 1221 q 584 1240 567 1221 q 617 1282 601 1258 l 725 1225 q 638 1131 688 1158 q 540 1103 588 1103 q 477 1113 504 1103 q 428 1133 450 1122 q 388 1154 406 1144 q 351 1164 369 1164 q 306 1147 322 1164 q 275 1103 290 1129 l 172 1174 q 256 1258 210 1233 q 351 1282 303 1282 q 415 1272 388 1282 q 463 1251 442 1263 q 501 1231 483 1240 q 538 1221 518 1221 z "},"ũ":{"ha":790,"x_min":90,"x_max":689,"o":"m 689 0 l 538 0 l 538 90 q 453 10 507 38 q 326 -17 399 -17 q 208 7 256 -17 q 132 71 160 31 q 99 151 108 107 q 90 263 90 196 l 90 647 l 242 647 l 242 313 q 249 235 242 271 q 272 173 256 199 q 315 132 288 147 q 382 117 342 117 q 499 173 461 117 q 538 313 538 229 l 538 647 l 689 647 l 689 0 m 482 914 q 528 933 511 914 q 561 975 546 951 l 669 918 q 582 824 632 851 q 485 796 532 796 q 422 806 449 796 q 372 826 394 815 q 332 847 350 838 q 296 857 314 857 q 251 840 267 857 q 219 796 235 822 l 117 867 q 201 951 154 926 q 296 975 247 975 q 359 965 332 975 q 407 944 386 956 q 445 924 428 933 q 482 914 463 914 z "},"Ū":{"ha":889,"x_min":94,"x_max":794,"o":"m 94 972 l 254 972 l 254 325 q 267 246 254 283 q 306 181 281 208 q 365 136 331 153 q 443 119 400 119 q 522 136 486 119 q 582 181 557 153 q 621 246 607 208 q 635 325 635 283 l 635 972 l 794 972 l 794 325 q 769 191 794 254 q 699 80 744 128 q 588 4 653 32 q 443 -24 524 -24 q 300 4 364 -24 q 190 80 236 32 q 119 191 144 128 q 94 325 94 254 l 94 972 m 693 1115 l 196 1115 l 196 1250 l 693 1250 l 693 1115 z "},"ū":{"ha":790,"x_min":90,"x_max":689,"o":"m 689 0 l 538 0 l 538 90 q 453 10 507 38 q 326 -17 399 -17 q 208 7 256 -17 q 132 71 160 31 q 99 151 108 107 q 90 263 90 196 l 90 647 l 242 647 l 242 313 q 249 235 242 271 q 272 173 256 199 q 315 132 288 147 q 382 117 342 117 q 499 173 461 117 q 538 313 538 229 l 538 647 l 689 647 l 689 0 m 643 785 l 146 785 l 146 919 l 643 919 l 643 785 z "},"Ŭ":{"ha":889,"x_min":94,"x_max":794,"o":"m 94 972 l 254 972 l 254 325 q 267 246 254 283 q 306 181 281 208 q 365 136 331 153 q 443 119 400 119 q 522 136 486 119 q 582 181 557 153 q 621 246 607 208 q 635 325 635 283 l 635 972 l 794 972 l 794 325 q 769 191 794 254 q 699 80 744 128 q 588 4 653 32 q 443 -24 524 -24 q 300 4 364 -24 q 190 80 236 32 q 119 191 144 128 q 94 325 94 254 l 94 972 m 440 1197 q 527 1224 493 1197 q 575 1297 561 1251 l 717 1297 q 684 1212 708 1251 q 623 1143 660 1172 q 540 1097 586 1114 q 440 1081 493 1081 q 339 1097 386 1081 q 256 1143 292 1114 q 196 1212 219 1172 q 164 1297 172 1251 l 306 1297 q 353 1224 319 1251 q 440 1197 388 1197 z "},"ŭ":{"ha":790,"x_min":90,"x_max":689,"o":"m 689 0 l 538 0 l 538 90 q 453 10 507 38 q 326 -17 399 -17 q 208 7 256 -17 q 132 71 160 31 q 99 151 108 107 q 90 263 90 196 l 90 647 l 242 647 l 242 313 q 249 235 242 271 q 272 173 256 199 q 315 132 288 147 q 382 117 342 117 q 499 173 461 117 q 538 313 538 229 l 538 647 l 689 647 l 689 0 m 390 872 q 477 899 443 872 q 525 972 511 926 l 667 972 q 634 887 658 926 q 573 818 610 847 q 490 772 536 789 q 390 756 443 756 q 289 772 336 756 q 206 818 242 789 q 146 887 169 847 q 114 972 122 926 l 256 972 q 303 899 269 926 q 390 872 338 872 z "},"Ů":{"ha":889,"x_min":94,"x_max":794,"o":"m 94 972 l 254 972 l 254 325 q 267 246 254 283 q 306 181 281 208 q 365 136 331 153 q 443 119 400 119 q 522 136 486 119 q 582 181 557 153 q 621 246 607 208 q 635 325 635 283 l 635 972 l 794 972 l 794 325 q 769 191 794 254 q 699 80 744 128 q 588 4 653 32 q 443 -24 524 -24 q 300 4 364 -24 q 190 80 236 32 q 119 191 144 128 q 94 325 94 254 l 94 972 m 444 1356 q 510 1342 479 1356 q 565 1305 542 1328 q 602 1251 589 1282 q 615 1185 615 1219 q 602 1119 615 1150 q 565 1065 589 1088 q 510 1028 542 1042 q 444 1014 479 1014 q 378 1028 408 1014 q 324 1065 347 1042 q 287 1119 300 1088 q 274 1185 274 1150 q 287 1251 274 1219 q 324 1306 300 1282 q 378 1342 347 1329 q 444 1356 408 1356 m 444 1261 q 391 1239 413 1261 q 369 1185 369 1217 q 391 1133 369 1154 q 444 1111 413 1111 q 498 1133 476 1111 q 519 1186 519 1154 q 498 1240 519 1218 q 444 1261 476 1261 z "},"ů":{"ha":790,"x_min":90,"x_max":689,"o":"m 689 0 l 538 0 l 538 90 q 453 10 507 38 q 326 -17 399 -17 q 208 7 256 -17 q 132 71 160 31 q 99 151 108 107 q 90 263 90 196 l 90 647 l 242 647 l 242 313 q 249 235 242 271 q 272 173 256 199 q 315 132 288 147 q 382 117 342 117 q 499 173 461 117 q 538 313 538 229 l 538 647 l 689 647 l 689 0 m 389 1064 q 459 1049 426 1064 q 516 1010 492 1035 q 554 953 540 986 q 568 885 568 921 q 554 817 568 849 q 516 760 540 785 q 459 722 492 736 q 389 707 426 707 q 319 722 351 707 q 263 760 288 736 q 225 817 239 785 q 211 885 211 849 q 225 955 211 922 q 263 1012 239 988 q 319 1050 288 1036 q 389 1064 351 1064 m 389 974 q 328 947 353 974 q 304 885 304 921 q 328 825 304 850 q 389 800 353 800 q 450 826 425 800 q 475 888 475 851 q 451 949 475 924 q 389 974 426 974 z "},"Ű":{"ha":889,"x_min":94,"x_max":794,"o":"m 94 972 l 254 972 l 254 325 q 267 246 254 283 q 306 181 281 208 q 365 136 331 153 q 443 119 400 119 q 522 136 486 119 q 582 181 557 153 q 621 246 607 208 q 635 325 635 283 l 635 972 l 794 972 l 794 325 q 769 191 794 254 q 699 80 744 128 q 588 4 653 32 q 443 -24 524 -24 q 300 4 364 -24 q 190 80 236 32 q 119 191 144 128 q 94 325 94 254 l 94 972 m 658 1344 l 792 1278 l 557 1075 l 485 1114 l 658 1344 m 388 1344 l 521 1278 l 286 1075 l 214 1114 l 388 1344 z "},"ű":{"ha":790,"x_min":90,"x_max":726,"o":"m 689 647 l 689 0 l 538 0 l 538 90 q 453 10 507 38 q 326 -17 399 -17 q 208 7 256 -17 q 132 71 160 31 q 99 151 108 107 q 90 263 90 196 l 90 647 l 242 647 l 242 313 q 249 235 242 271 q 272 173 256 199 q 315 132 288 147 q 382 117 342 117 q 499 173 461 117 q 538 313 538 229 l 538 647 l 689 647 m 221 718 l 149 757 l 322 988 l 456 921 l 221 718 m 492 718 l 419 757 l 593 988 l 726 921 l 492 718 z "},"Ų":{"ha":889,"x_min":94,"x_max":794,"o":"m 576 -274 q 520 -287 554 -281 q 450 -294 486 -294 q 331 -255 371 -294 q 290 -160 290 -215 q 311 -86 290 -119 q 376 -18 332 -53 q 259 24 311 -7 q 171 101 207 56 q 115 205 135 147 q 94 325 94 263 l 94 972 l 254 972 l 254 325 q 267 246 254 283 q 306 181 281 208 q 365 136 331 153 q 443 119 400 119 q 522 136 486 119 q 582 181 557 153 q 621 246 607 208 q 635 325 635 283 l 635 972 l 794 972 l 794 325 q 773 199 794 258 q 710 92 751 139 q 612 16 669 46 q 483 -21 554 -14 q 449 -57 464 -36 q 435 -108 435 -78 q 451 -160 435 -137 q 499 -182 468 -182 q 536 -178 515 -182 q 576 -165 557 -174 l 576 -274 z "},"ų":{"ha":790,"x_min":90,"x_max":693,"o":"m 326 -17 q 208 7 256 -17 q 132 71 160 31 q 99 151 108 107 q 90 263 90 196 l 90 647 l 242 647 l 242 313 q 249 235 242 271 q 272 173 256 199 q 315 132 288 147 q 382 117 342 117 q 499 173 461 117 q 538 313 538 229 l 538 647 l 689 647 l 689 0 l 650 0 q 617 -23 633 -11 q 588 -49 601 -35 q 567 -82 575 -64 q 558 -122 558 -100 q 573 -164 558 -146 q 615 -182 588 -182 q 653 -178 632 -182 q 693 -165 674 -174 l 693 -274 q 637 -287 671 -281 q 567 -294 603 -294 q 442 -255 483 -294 q 400 -160 400 -215 q 435 -74 400 -112 q 538 7 469 -35 l 538 90 q 453 10 507 38 q 326 -17 399 -17 z "},"Ŵ":{"ha":1365,"x_min":7,"x_max":1358,"o":"m 683 693 l 458 0 l 343 0 l 7 972 l 175 972 l 399 279 l 624 972 l 742 972 l 967 279 l 1190 972 l 1358 972 l 1022 0 l 907 0 l 683 693 m 683 1350 l 935 1133 l 847 1036 l 685 1186 l 524 1038 l 435 1133 l 683 1350 z "},"ŵ":{"ha":1046,"x_min":0,"x_max":1046,"o":"m 524 483 l 353 0 l 251 0 l 0 647 l 163 647 l 303 238 l 449 647 l 597 647 l 743 238 l 883 647 l 1046 647 l 794 0 l 693 0 l 524 483 m 526 1040 l 778 824 l 690 726 l 528 876 l 367 728 l 278 824 l 526 1040 z "},"Ŷ":{"ha":836,"x_min":15,"x_max":843,"o":"m 361 0 l 186 0 l 379 389 l 15 972 l 200 972 l 460 554 l 668 972 l 843 972 l 361 0 m 443 1350 l 694 1133 l 607 1036 l 444 1186 l 283 1038 l 194 1133 l 443 1350 z "},"ŷ":{"ha":803,"x_min":90,"x_max":706,"o":"m 393 -340 q 273 -324 328 -340 q 178 -274 218 -307 q 115 -190 138 -240 q 90 -74 92 -140 l 243 -74 q 292 -178 249 -144 q 396 -212 336 -212 q 460 -206 431 -212 q 510 -181 489 -199 q 542 -133 531 -162 q 554 -58 554 -104 l 554 90 q 469 10 524 38 q 343 -17 415 -17 q 224 7 272 -17 q 149 71 176 31 q 116 151 125 107 q 107 263 107 196 l 107 647 l 258 647 l 258 313 q 265 235 258 271 q 288 173 272 199 q 331 132 304 147 q 399 117 358 117 q 516 173 478 117 q 554 313 554 229 l 554 647 l 706 647 l 706 -58 q 625 -271 706 -199 q 393 -340 546 -340 m 404 1040 l 656 824 l 568 726 l 406 876 l 244 728 l 156 824 l 404 1040 z "},"Ÿ":{"ha":836,"x_min":15,"x_max":843,"o":"m 361 0 l 186 0 l 379 389 l 15 972 l 200 972 l 460 554 l 668 972 l 843 972 l 361 0 m 513 1188 q 543 1263 513 1232 q 618 1294 574 1294 q 694 1263 663 1294 q 725 1188 725 1232 q 694 1113 725 1143 q 618 1082 663 1082 q 543 1113 574 1082 q 513 1188 513 1143 m 194 1188 q 225 1263 194 1232 q 300 1294 256 1294 q 376 1263 344 1294 q 407 1188 407 1232 q 376 1113 407 1143 q 300 1082 344 1082 q 225 1113 256 1082 q 194 1188 194 1143 z "},"Ź":{"ha":801,"x_min":18,"x_max":788,"o":"m 47 972 l 788 972 l 283 143 l 785 143 l 785 0 l 18 0 l 522 829 l 47 829 l 47 972 m 264 1040 l 192 1158 l 538 1349 l 610 1231 l 264 1040 z "},"ź":{"ha":608,"x_min":31,"x_max":589,"o":"m 589 647 l 283 135 l 589 135 l 589 0 l 31 0 l 338 513 l 39 513 l 39 647 l 589 647 m 168 686 l 96 804 l 442 994 l 514 876 l 168 686 z "},"Ż":{"ha":801,"x_min":18,"x_max":788,"o":"m 47 972 l 788 972 l 283 143 l 785 143 l 785 0 l 18 0 l 522 829 l 47 829 l 47 972 m 289 1201 q 322 1281 289 1249 q 400 1314 354 1314 q 480 1281 447 1314 q 513 1201 513 1249 q 480 1123 513 1156 q 400 1090 447 1090 q 322 1123 354 1090 q 289 1201 289 1156 z "},"ż":{"ha":608,"x_min":31,"x_max":589,"o":"m 589 647 l 283 135 l 589 135 l 589 0 l 31 0 l 338 513 l 39 513 l 39 647 l 589 647 m 193 851 q 226 931 193 899 q 304 964 258 964 q 384 931 351 964 q 417 851 417 899 q 384 773 417 806 q 304 740 351 740 q 226 773 258 740 q 193 851 193 806 z "},"Ž":{"ha":801,"x_min":18,"x_max":788,"o":"m 153 1253 l 242 1349 l 403 1200 l 565 1350 l 653 1253 l 401 1036 l 153 1253 m 47 972 l 788 972 l 283 143 l 785 143 l 785 0 l 18 0 l 522 829 l 47 829 l 47 972 z "},"ž":{"ha":608,"x_min":31,"x_max":589,"o":"m 67 936 l 156 1032 l 317 883 l 479 1033 l 567 936 l 315 719 l 67 936 m 589 647 l 283 135 l 589 135 l 589 0 l 31 0 l 338 513 l 39 513 l 39 647 l 589 647 z "},"ſ":{"ha":499,"x_min":28,"x_max":481,"o":"m 481 836 q 449 843 465 840 q 414 846 432 846 q 378 844 396 846 q 345 833 360 843 q 321 803 331 824 q 311 744 311 782 l 311 0 l 160 0 l 160 521 l 28 521 l 28 647 l 160 647 l 160 728 q 185 872 160 821 q 248 947 211 922 q 325 976 285 971 q 393 981 365 981 q 445 976 422 981 q 481 964 468 971 l 481 836 z "},"ƒ":{"ha":613,"x_min":-83,"x_max":618,"o":"m -61 -108 q -30 -115 -46 -112 q 4 -118 -14 -118 q 39 -116 22 -118 q 72 -104 56 -114 q 101 -74 88 -94 q 125 -17 114 -54 l 219 521 l 88 521 l 110 647 l 242 647 l 256 728 q 307 872 272 821 q 383 947 342 922 q 465 976 424 971 q 533 981 506 981 q 585 976 563 981 q 618 964 607 971 l 596 836 q 565 843 581 840 q 531 846 549 846 q 494 844 513 846 q 460 833 476 843 q 430 803 443 824 q 410 744 417 782 l 393 647 l 563 647 l 540 521 l 371 521 l 279 0 q 228 -144 263 -93 q 152 -219 193 -194 q 70 -248 111 -243 q 1 -253 29 -253 q -50 -248 -28 -253 q -83 -236 -72 -243 l -61 -108 z "},"Ǻ":{"ha":793,"x_min":4,"x_max":789,"o":"m 489 1047 q 478 1004 489 1024 q 453 972 468 985 l 789 0 l 621 0 l 579 124 l 214 124 l 172 0 l 4 0 l 339 969 q 299 1047 299 996 q 326 1114 299 1086 q 394 1142 354 1142 q 461 1114 433 1142 q 489 1047 489 1086 m 263 267 l 531 267 l 397 707 l 263 267 m 225 1088 l 179 1160 l 525 1350 l 571 1278 l 225 1088 m 394 1082 q 369 1072 379 1082 q 360 1047 360 1061 q 369 1024 360 1033 q 394 1014 379 1014 q 418 1024 408 1014 q 428 1047 428 1033 q 419 1072 428 1061 q 394 1082 410 1082 z "},"ǻ":{"ha":838,"x_min":53,"x_max":736,"o":"m 585 647 l 736 647 l 736 0 l 585 0 l 585 88 q 498 11 554 39 q 385 -17 442 -17 q 250 10 311 -17 q 145 85 189 38 q 77 193 101 132 q 53 324 53 254 q 77 453 53 392 q 145 563 101 515 q 250 637 189 610 q 385 664 311 664 q 498 636 442 664 q 585 560 554 608 l 585 647 m 393 529 q 315 513 350 529 q 256 468 281 496 q 217 403 231 440 q 204 324 204 365 q 217 244 204 282 q 256 179 231 207 q 315 135 281 151 q 393 118 350 118 q 472 135 436 118 q 532 179 507 151 q 571 244 557 207 q 585 324 585 282 q 571 403 585 365 q 532 468 557 440 q 472 513 507 496 q 393 529 436 529 m 442 844 q 426 885 442 868 q 385 901 410 901 q 344 884 360 901 q 328 843 328 867 q 344 803 328 819 q 385 786 361 786 q 425 803 408 786 q 442 844 442 821 m 251 843 q 290 938 251 899 q 385 976 329 976 q 437 966 413 976 q 479 937 461 956 q 508 894 497 918 q 518 843 518 869 q 508 792 518 815 q 479 749 497 768 q 437 720 461 731 q 385 710 413 710 q 333 720 357 710 q 290 749 308 731 q 262 792 272 768 q 251 843 251 815 m 163 1090 l 508 1281 l 581 1163 l 235 972 l 163 1090 z "},"Ǽ":{"ha":1226,"x_min":3,"x_max":1125,"o":"m 724 829 l 724 554 l 1125 554 l 1125 411 l 724 411 l 724 143 l 1125 143 l 1125 0 l 564 0 l 564 125 l 235 125 l 176 0 l 3 0 l 475 972 l 1125 972 l 1125 829 l 724 829 m 564 268 l 564 822 l 303 268 l 564 268 m 549 1040 l 476 1158 l 822 1349 l 894 1231 l 549 1040 z "},"ǽ":{"ha":1267,"x_min":53,"x_max":1204,"o":"m 736 647 l 736 622 q 813 653 771 642 q 904 664 856 664 q 1022 642 967 664 q 1117 580 1076 619 q 1181 488 1158 540 q 1204 372 1204 435 q 1203 333 1204 356 q 1197 278 1203 310 l 739 278 q 749 213 739 243 q 778 159 758 182 q 831 123 799 136 q 908 110 863 110 q 963 117 940 110 q 1002 135 986 124 q 1028 162 1018 146 q 1046 194 1039 178 l 1199 194 q 1167 115 1190 153 q 1108 47 1144 76 q 1021 1 1071 18 q 908 -17 971 -17 q 813 -5 856 -17 q 736 26 771 7 l 736 0 l 585 0 l 585 88 q 498 11 554 39 q 385 -17 442 -17 q 250 10 311 -17 q 145 85 189 38 q 77 193 101 132 q 53 324 53 254 q 77 453 53 392 q 145 563 101 515 q 250 637 189 610 q 385 664 311 664 q 498 636 442 664 q 585 560 554 608 l 585 647 l 736 647 m 900 538 q 787 500 833 538 q 740 390 740 463 l 1057 390 q 1013 497 1057 457 q 900 538 969 538 m 393 118 q 472 135 436 118 q 532 179 507 151 q 571 244 557 207 q 585 324 585 282 q 571 404 585 367 q 532 469 557 442 q 472 513 507 497 q 393 529 436 529 q 315 513 350 529 q 256 468 281 496 q 217 403 231 440 q 204 324 204 365 q 217 244 204 282 q 256 179 231 207 q 315 135 281 151 q 393 118 350 118 m 496 664 l 424 782 l 769 972 l 842 854 l 496 664 z "},"Ǿ":{"ha":1111,"x_min":53,"x_max":1058,"o":"m 556 -24 q 404 -3 472 -24 l 350 -129 l 244 -82 l 297 43 q 193 125 239 76 q 116 231 147 174 q 69 353 85 289 q 53 486 53 418 q 88 677 53 585 q 187 840 122 769 q 345 953 251 911 q 556 996 439 996 q 697 976 631 996 l 749 1094 l 853 1047 l 804 933 q 912 851 864 900 q 992 744 960 803 q 1041 620 1024 686 q 1058 486 1058 554 q 1024 295 1058 388 q 924 132 989 203 q 766 19 860 61 q 556 -24 672 -24 m 640 842 q 556 853 599 853 q 416 822 478 853 q 310 740 354 792 q 244 623 267 689 q 221 486 221 557 q 256 317 221 397 q 358 185 292 238 l 640 842 m 890 486 q 852 660 890 578 q 743 793 814 742 l 461 132 q 556 119 504 119 q 695 150 633 119 q 801 232 757 181 q 867 349 844 283 q 890 486 890 415 m 418 1040 l 346 1158 l 692 1349 l 764 1231 l 418 1040 z "},"ǿ":{"ha":789,"x_min":53,"x_max":736,"o":"m 569 619 q 692 496 649 575 q 736 324 736 417 q 712 193 736 254 q 642 85 688 132 q 534 10 597 38 q 393 -17 471 -17 q 299 -4 342 -17 l 251 -115 l 160 -76 l 207 35 q 93 157 133 81 q 53 324 53 233 q 77 453 53 392 q 146 563 101 515 q 253 637 190 610 q 393 664 315 664 q 436 661 415 664 q 476 654 457 658 l 524 764 l 615 725 l 569 619 m 393 118 q 472 135 436 118 q 532 179 507 151 q 571 244 557 207 q 585 324 585 282 q 566 415 585 372 q 513 488 547 458 l 354 121 q 373 118 364 118 q 393 118 382 118 m 204 324 q 265 168 204 229 l 421 526 q 407 528 414 528 q 393 529 400 529 q 315 513 350 529 q 256 468 281 496 q 217 403 231 440 q 204 324 204 365 m 257 688 l 185 806 l 531 996 l 603 878 l 257 688 z "},"Ș":{"ha":790,"x_min":58,"x_max":726,"o":"m 218 318 q 271 171 218 222 q 407 119 324 119 q 469 130 440 119 q 520 159 499 140 q 554 204 542 178 q 567 264 567 231 q 552 326 567 301 q 515 369 538 351 q 465 398 492 386 q 413 418 438 410 q 288 466 346 442 q 185 524 229 490 q 117 607 142 558 q 92 729 92 656 q 116 838 92 789 q 181 923 140 888 q 277 977 222 958 q 393 996 332 996 q 515 974 458 996 q 614 911 572 951 q 679 815 656 871 q 703 692 703 760 l 543 692 q 504 808 543 764 q 397 853 465 853 q 294 822 338 853 q 251 729 251 792 q 263 677 251 700 q 295 638 275 654 q 340 608 315 621 q 393 586 365 596 q 509 542 450 565 q 617 483 568 518 q 696 400 665 449 q 726 282 726 351 q 700 150 726 207 q 628 54 674 93 q 522 -4 582 15 q 393 -24 461 -24 q 266 -1 326 -24 q 160 66 206 22 q 86 173 114 110 q 58 318 58 236 l 218 318 m 300 -129 q 326 -65 300 -92 q 389 -39 353 -39 q 462 -71 433 -39 q 490 -154 490 -103 q 441 -298 490 -257 q 304 -340 392 -339 l 304 -283 q 385 -261 361 -283 q 413 -211 410 -239 q 404 -215 408 -214 q 389 -218 396 -218 q 324 -192 349 -218 q 300 -129 300 -165 z "},"ș":{"ha":631,"x_min":50,"x_max":572,"o":"m 225 -114 q 251 -50 225 -76 q 314 -24 278 -24 q 387 -56 358 -24 q 415 -139 415 -87 q 366 -283 415 -242 q 229 -325 317 -324 l 229 -268 q 278 -262 258 -268 q 311 -246 297 -257 q 338 -196 335 -226 q 314 -203 331 -203 q 249 -176 274 -203 q 225 -114 225 -150 m 197 218 q 233 128 197 154 q 322 103 268 103 q 397 119 367 103 q 428 178 428 136 q 415 214 428 200 q 378 240 403 228 q 315 264 353 251 q 226 296 278 276 q 165 323 193 308 q 115 357 136 338 q 83 406 94 376 q 72 476 72 435 q 92 557 72 522 q 144 616 111 592 q 222 652 178 640 q 315 664 265 664 q 412 647 367 664 q 490 601 457 631 q 543 532 524 572 q 563 444 563 492 l 415 444 q 391 517 415 490 q 311 544 367 544 q 245 526 272 544 q 218 474 218 508 q 229 440 218 453 q 263 416 240 426 q 318 394 285 406 q 396 365 351 382 q 461 339 429 353 q 518 304 493 325 q 558 254 543 283 q 572 181 572 225 q 552 93 572 131 q 497 31 532 56 q 414 -5 461 7 q 314 -17 367 -17 q 214 -1 261 -17 q 130 44 167 14 q 72 117 93 74 q 50 218 50 161 l 197 218 z "},"Ț":{"ha":669,"x_min":14,"x_max":656,"o":"m 254 829 l 14 829 l 14 972 l 656 972 l 656 829 l 414 829 l 414 0 l 254 0 l 254 829 m 244 -114 q 271 -50 244 -76 q 333 -24 297 -24 q 406 -56 378 -24 q 435 -139 435 -87 q 385 -283 435 -242 q 249 -325 336 -324 l 249 -268 q 330 -246 306 -268 q 357 -196 354 -224 q 349 -200 353 -199 q 333 -203 340 -203 q 269 -176 293 -203 q 244 -114 244 -150 z "},"ț":{"ha":488,"x_min":28,"x_max":460,"o":"m 28 647 l 138 647 l 138 843 l 289 843 l 289 647 l 438 647 l 438 521 l 289 521 l 289 254 q 295 188 289 213 q 314 149 301 163 q 344 132 326 136 q 383 128 361 128 q 425 129 401 128 q 460 133 449 131 l 460 0 q 411 -6 442 -3 q 347 -8 381 -8 q 283 -3 319 -8 q 215 24 247 1 q 160 92 182 46 q 138 219 138 138 l 138 521 l 28 521 l 28 647 m 199 -114 q 225 -50 199 -76 q 288 -24 251 -24 q 360 -56 332 -24 q 389 -139 389 -87 q 340 -283 389 -242 q 203 -325 290 -324 l 203 -268 q 251 -262 232 -268 q 285 -246 271 -257 q 311 -196 308 -226 q 288 -203 304 -203 q 223 -176 247 -203 q 199 -114 199 -150 z "},"ʰ":{"ha":539,"x_min":92,"x_max":453,"o":"m 92 972 l 204 972 l 204 753 q 250 797 219 781 q 322 814 281 814 q 424 772 390 814 q 447 722 440 750 q 453 654 453 694 l 453 438 l 340 438 l 340 626 q 326 691 340 667 q 275 715 313 715 q 222 690 239 715 q 204 622 204 665 l 204 438 l 92 438 l 92 972 z "},"ʲ":{"ha":328,"x_min":47,"x_max":240,"o":"m 224 379 q 216 320 224 343 q 194 284 208 297 q 163 266 181 271 q 125 261 146 261 q 81 264 103 261 q 47 271 58 267 l 47 357 q 65 353 58 354 q 78 353 71 353 q 108 389 108 353 l 108 806 l 224 806 l 224 379 m 92 928 q 113 980 92 958 q 165 1001 133 1001 q 219 980 197 1001 q 240 928 240 958 q 219 876 240 897 q 165 854 197 854 q 113 876 133 854 q 92 928 92 897 z "},"ʷ":{"ha":694,"x_min":40,"x_max":654,"o":"m 347 674 l 271 438 l 178 438 l 40 806 l 160 806 l 229 586 l 293 806 l 400 806 l 465 586 l 535 806 l 654 806 l 517 438 l 424 438 l 347 674 z "},"ʸ":{"ha":553,"x_min":86,"x_max":463,"o":"m 264 261 q 131 301 176 261 q 86 408 86 342 l 200 408 q 218 365 201 382 q 271 347 235 347 q 328 367 310 347 q 346 433 346 386 l 346 496 q 299 450 331 467 q 225 433 268 433 q 163 445 189 433 q 122 476 138 457 q 100 526 106 499 q 94 593 94 553 l 94 806 l 210 806 l 210 617 q 224 551 210 576 q 275 526 238 526 q 328 552 311 526 q 346 621 346 578 l 346 806 l 463 806 l 463 439 q 416 301 463 342 q 264 261 369 261 z "},"ʼ":{"ha":393,"x_min":83,"x_max":310,"o":"m 83 919 q 115 996 83 964 q 190 1028 146 1028 q 277 990 244 1028 q 310 890 310 953 q 252 719 310 768 q 89 668 194 669 l 89 736 q 147 744 124 736 q 185 764 169 751 q 208 792 200 776 q 218 822 215 807 q 207 817 215 819 q 190 815 199 815 q 113 845 142 815 q 83 919 83 875 z "},"ˆ":{"ha":683,"x_min":88,"x_max":588,"o":"m 338 1169 l 588 968 l 493 863 l 338 988 l 183 864 l 88 968 l 338 1169 z "},"ˇ":{"ha":628,"x_min":92,"x_max":536,"o":"m 92 1040 l 172 1146 l 313 1013 l 454 1146 l 536 1040 l 313 839 l 92 1040 z "},"˘":{"ha":771,"x_min":118,"x_max":651,"o":"m 246 1189 q 297 1108 263 1136 q 385 1079 332 1079 q 472 1108 438 1079 q 524 1189 507 1136 l 651 1189 q 619 1103 643 1143 q 560 1035 596 1064 q 480 989 525 1006 q 385 972 435 972 q 290 989 335 972 q 209 1035 244 1006 q 150 1103 174 1064 q 118 1189 126 1143 l 246 1189 z "},"˙":{"ha":818,"x_min":297,"x_max":521,"o":"m 297 876 q 330 956 297 924 q 408 989 363 989 q 488 956 456 989 q 521 876 521 924 q 488 798 521 831 q 408 765 456 765 q 330 798 363 765 q 297 876 297 831 z "},"˚":{"ha":788,"x_min":222,"x_max":564,"o":"m 393 1160 q 459 1146 428 1160 q 514 1109 490 1132 q 551 1055 538 1086 q 564 989 564 1024 q 551 923 564 954 q 514 869 538 892 q 459 832 490 846 q 393 818 428 818 q 326 832 357 818 q 272 869 296 846 q 235 923 249 892 q 222 989 222 954 q 235 1055 222 1024 q 272 1110 249 1086 q 326 1147 296 1133 q 393 1160 357 1160 m 393 1051 q 349 1033 367 1051 q 332 989 332 1014 q 350 947 332 965 q 393 929 368 929 q 436 947 418 929 q 454 990 454 965 q 437 1033 454 1015 q 393 1051 419 1051 z "},"˛":{"ha":789,"x_min":251,"x_max":538,"o":"m 538 -274 q 481 -287 515 -281 q 411 -294 447 -294 q 292 -255 332 -294 q 251 -160 251 -215 q 278 -78 251 -115 q 361 0 306 -40 l 474 0 q 446 -20 460 -10 q 421 -43 432 -31 q 403 -72 410 -56 q 396 -108 396 -87 q 413 -160 396 -137 q 460 -182 429 -182 q 497 -178 476 -182 q 538 -165 518 -174 l 538 -274 z "},"˜":{"ha":732,"x_min":111,"x_max":621,"o":"m 111 919 q 165 950 142 939 q 204 966 188 961 q 233 972 221 971 q 254 972 244 972 q 296 967 268 972 q 353 953 324 961 q 410 940 383 946 q 450 935 436 935 q 471 936 461 935 q 492 942 481 938 q 520 953 504 946 q 561 972 536 960 l 621 876 q 527 823 567 832 q 469 814 488 814 q 427 819 454 814 q 370 832 400 825 q 314 844 340 839 q 274 850 288 850 q 224 841 246 850 q 176 821 201 832 l 111 919 z "},"˝":{"ha":729,"x_min":122,"x_max":700,"o":"m 567 1019 l 700 953 l 465 750 l 393 789 l 567 1019 m 296 1019 l 429 953 l 194 750 l 122 789 l 296 1019 z "},"ˣ":{"ha":475,"x_min":43,"x_max":432,"o":"m 432 438 l 299 438 l 238 544 l 176 438 l 43 438 l 169 624 l 46 806 l 179 806 l 238 701 l 296 806 l 431 806 l 306 624 l 432 438 z "},"Δ":{"ha":793,"x_min":4,"x_max":789,"o":"m 225 143 l 568 143 l 397 707 l 225 143 m 789 0 l 4 0 l 340 972 l 453 972 l 789 0 z "},"Ω":{"ha":994,"x_min":63,"x_max":932,"o":"m 497 846 q 376 822 428 846 q 291 759 325 799 q 240 668 257 719 q 222 561 222 617 q 235 457 222 507 q 274 365 247 407 q 342 294 300 324 q 442 251 383 264 l 442 0 l 88 0 l 88 143 l 317 143 l 317 168 q 208 231 256 192 q 129 319 161 269 q 80 429 97 369 q 63 554 63 489 q 92 719 63 640 q 178 858 122 797 q 315 953 235 918 q 497 989 396 989 q 679 953 599 989 q 816 858 760 918 q 902 719 872 797 q 932 554 932 640 q 915 429 932 489 q 865 319 897 369 q 785 230 833 269 q 678 167 738 190 l 678 143 l 907 143 l 907 0 l 553 0 l 553 251 q 653 294 611 264 q 721 365 694 324 q 760 457 747 407 q 772 561 772 507 q 755 668 772 617 q 703 759 738 719 q 617 822 669 799 q 497 846 565 846 z "},"μ":{"ha":806,"x_min":103,"x_max":701,"o":"m 103 647 l 254 647 l 254 313 q 261 235 254 271 q 284 173 268 199 q 327 132 300 147 q 394 117 354 117 q 512 173 474 117 q 550 313 550 229 l 550 647 l 701 647 l 701 0 l 550 0 l 550 90 q 465 10 519 38 q 339 -17 411 -17 q 254 -6 294 -17 l 254 -325 l 103 -325 l 103 647 z "},"π":{"ha":806,"x_min":44,"x_max":761,"o":"m 761 513 l 664 513 l 664 0 l 513 0 l 513 513 l 293 513 l 293 0 l 142 0 l 142 513 l 44 513 l 44 647 l 761 647 l 761 513 z "},"Ё":{"ha":757,"x_min":101,"x_max":663,"o":"m 261 829 l 261 554 l 663 554 l 663 411 l 261 411 l 261 143 l 663 143 l 663 0 l 101 0 l 101 972 l 663 972 l 663 829 l 261 829 m 431 1188 q 463 1267 431 1235 q 542 1300 496 1300 q 622 1267 589 1300 q 654 1188 654 1235 q 622 1109 654 1142 q 542 1076 589 1076 q 463 1109 496 1076 q 431 1188 431 1142 m 113 1188 q 145 1267 113 1235 q 224 1300 178 1300 q 303 1267 271 1300 q 336 1188 336 1235 q 303 1109 336 1142 q 224 1076 271 1076 q 145 1109 178 1076 q 113 1188 113 1142 z "},"Ђ":{"ha":963,"x_min":14,"x_max":869,"o":"m 869 -151 q 818 -286 869 -235 q 683 -337 767 -337 l 581 -337 l 581 -194 l 647 -194 q 693 -178 676 -194 q 710 -133 710 -161 l 710 335 q 703 413 710 376 q 680 474 696 449 q 637 515 664 500 q 569 531 610 531 q 452 474 490 531 q 414 335 414 418 l 414 0 l 254 0 l 254 829 l 14 829 l 14 972 l 656 972 l 656 829 l 414 829 l 414 557 q 500 637 444 610 q 628 664 556 664 q 748 640 699 664 q 825 576 797 617 q 859 496 849 540 q 869 385 869 451 l 869 -151 z "},"Ѓ":{"ha":663,"x_min":101,"x_max":663,"o":"m 261 1014 l 189 1132 l 535 1322 l 607 1204 l 261 1014 m 101 972 l 663 972 l 663 829 l 261 829 l 261 0 l 101 0 l 101 972 z "},"Є":{"ha":1024,"x_min":53,"x_max":971,"o":"m 971 313 q 925 181 960 242 q 835 74 890 119 q 706 2 781 28 q 542 -24 631 -24 q 323 19 415 -24 q 171 132 231 61 q 82 295 111 203 q 53 486 53 388 q 82 677 53 585 q 171 840 111 769 q 323 953 231 911 q 542 996 415 996 q 705 970 631 996 q 835 899 779 944 q 925 794 890 854 q 971 663 960 733 l 796 663 q 767 739 789 704 q 712 799 746 774 q 635 838 678 824 q 542 853 592 853 q 410 829 467 853 q 316 765 354 806 q 256 672 278 725 q 225 558 233 618 l 661 558 l 661 414 l 225 414 q 256 301 233 354 q 316 207 278 247 q 410 143 354 167 q 542 119 467 119 q 635 134 592 119 q 713 174 679 149 q 769 235 747 200 q 797 313 790 271 l 971 313 z "},"Ѕ":{"ha":790,"x_min":58,"x_max":726,"o":"m 218 318 q 271 171 218 222 q 407 119 324 119 q 469 130 440 119 q 520 159 499 140 q 554 204 542 178 q 567 264 567 231 q 552 326 567 301 q 515 369 538 351 q 465 398 492 386 q 413 418 438 410 q 288 466 346 442 q 185 524 229 490 q 117 607 142 558 q 92 729 92 656 q 116 838 92 789 q 181 923 140 888 q 277 977 222 958 q 393 996 332 996 q 515 974 458 996 q 614 911 572 951 q 679 815 656 871 q 703 692 703 760 l 543 692 q 504 808 543 764 q 397 853 465 853 q 294 822 338 853 q 251 729 251 792 q 263 677 251 700 q 295 638 275 654 q 340 608 315 621 q 393 586 365 596 q 509 542 450 565 q 617 483 568 518 q 696 400 665 449 q 726 282 726 351 q 700 150 726 207 q 628 54 674 93 q 522 -4 582 15 q 393 -24 461 -24 q 266 -1 326 -24 q 160 66 206 22 q 86 173 114 110 q 58 318 58 236 l 218 318 z "},"І":{"ha":368,"x_min":101,"x_max":267,"o":"m 101 972 l 267 972 l 267 0 l 101 0 l 101 972 z "},"Ї":{"ha":368,"x_min":-58,"x_max":428,"o":"m 204 1188 q 237 1267 204 1235 q 315 1300 269 1300 q 395 1267 363 1300 q 428 1188 428 1235 q 395 1109 428 1142 q 315 1076 363 1076 q 237 1109 269 1076 q 204 1188 204 1142 m -58 1188 q -26 1267 -58 1235 q 53 1300 7 1300 q 133 1267 100 1300 q 165 1188 165 1235 q 133 1109 165 1142 q 53 1076 100 1076 q -26 1109 7 1076 q -58 1188 -58 1142 m 101 972 l 267 972 l 267 0 l 101 0 l 101 972 z "},"Ј":{"ha":744,"x_min":17,"x_max":650,"o":"m 650 315 q 629 183 650 244 q 567 75 608 121 q 467 3 526 29 q 332 -24 408 -24 q 198 3 257 -24 q 99 76 139 29 q 38 184 58 122 q 17 317 17 246 l 176 317 q 215 174 176 229 q 332 119 253 119 q 451 174 411 119 q 490 315 490 228 l 490 972 l 650 972 l 650 315 z "},"Љ":{"ha":1288,"x_min":14,"x_max":1246,"o":"m 961 142 q 1052 183 1018 142 q 1086 282 1086 224 q 1052 381 1086 340 q 961 422 1018 422 l 819 422 l 819 142 l 961 142 m 660 829 l 310 829 l 310 169 q 258 35 310 86 q 124 -17 207 -17 l 14 -17 l 14 126 l 81 126 q 131 143 113 126 q 150 188 150 160 l 150 972 l 819 972 l 819 564 l 961 564 q 1078 541 1025 564 q 1168 480 1131 518 q 1226 390 1206 442 q 1246 282 1246 339 q 1226 174 1246 225 q 1168 83 1206 122 q 1078 22 1131 44 q 961 0 1025 0 l 660 0 l 660 829 z "},"Њ":{"ha":1290,"x_min":101,"x_max":1249,"o":"m 822 564 l 964 564 q 1081 541 1028 564 q 1171 480 1133 518 q 1228 390 1208 442 q 1249 282 1249 339 q 1228 174 1249 225 q 1171 83 1208 122 q 1081 22 1133 44 q 964 0 1028 0 l 663 0 l 663 421 l 261 421 l 261 0 l 101 0 l 101 972 l 261 972 l 261 564 l 663 564 l 663 972 l 822 972 l 822 564 m 822 422 l 822 142 l 964 142 q 1055 183 1021 142 q 1089 282 1089 224 q 1055 381 1089 340 q 964 422 1021 422 l 822 422 z "},"Ћ":{"ha":960,"x_min":14,"x_max":869,"o":"m 414 829 l 414 557 q 500 637 444 610 q 628 664 556 664 q 748 640 699 664 q 825 576 797 617 q 859 496 849 540 q 869 385 869 451 l 869 0 l 710 0 l 710 335 q 703 413 710 376 q 680 474 696 449 q 637 515 664 500 q 569 531 610 531 q 452 474 490 531 q 414 335 414 418 l 414 0 l 254 0 l 254 829 l 14 829 l 14 972 l 656 972 l 656 829 l 414 829 z "},"Ќ":{"ha":840,"x_min":101,"x_max":819,"o":"m 261 590 l 276 590 q 358 616 319 590 q 429 697 396 642 l 506 824 q 601 935 546 892 q 732 979 656 979 l 789 979 l 789 836 l 761 836 q 698 822 731 836 q 639 761 665 807 l 578 654 q 504 563 549 601 q 400 511 460 525 l 819 0 l 615 0 l 261 458 l 261 0 l 101 0 l 101 972 l 261 972 l 261 590 m 294 1014 l 222 1132 l 568 1322 l 640 1204 l 294 1014 z "},"Ў":{"ha":850,"x_min":15,"x_max":843,"o":"m 422 1197 q 509 1224 475 1197 q 557 1297 543 1251 l 699 1297 q 666 1212 690 1251 q 605 1143 642 1172 q 522 1097 568 1114 q 422 1081 475 1081 q 321 1097 368 1081 q 238 1143 274 1114 q 178 1212 201 1172 q 146 1297 154 1251 l 288 1297 q 335 1224 301 1251 q 422 1197 369 1197 m 361 0 l 186 0 l 379 389 l 15 972 l 200 972 l 460 554 l 668 972 l 843 972 l 361 0 z "},"Џ":{"ha":903,"x_min":101,"x_max":801,"o":"m 381 -126 l 381 0 l 101 0 l 101 972 l 261 972 l 261 143 l 642 143 l 642 972 l 801 972 l 801 0 l 524 0 l 524 -126 l 381 -126 z "},"А":{"ha":793,"x_min":4,"x_max":789,"o":"m 621 0 l 579 124 l 214 124 l 172 0 l 4 0 l 340 972 l 453 972 l 789 0 l 621 0 m 397 707 l 263 267 l 531 267 l 397 707 z "},"Б":{"ha":810,"x_min":101,"x_max":754,"o":"m 683 829 l 261 829 l 261 564 l 469 564 q 586 541 533 564 q 676 480 639 518 q 734 390 714 442 q 754 282 754 339 q 734 174 754 225 q 676 83 714 122 q 586 22 639 44 q 469 0 533 0 l 101 0 l 101 972 l 683 972 l 683 829 m 261 422 l 261 142 l 469 142 q 560 183 526 142 q 594 282 594 224 q 560 381 594 340 q 469 422 526 422 l 261 422 z "},"В":{"ha":831,"x_min":101,"x_max":754,"o":"m 101 972 l 433 972 q 594 945 533 972 q 690 878 656 918 q 735 793 724 839 q 746 710 746 747 q 731 627 746 664 q 691 563 715 590 q 636 519 667 536 q 575 494 606 501 q 629 481 599 494 q 688 440 660 467 q 735 372 715 413 q 754 275 754 331 q 742 190 754 238 q 694 99 729 142 q 597 28 660 57 q 435 0 535 0 l 101 0 l 101 972 m 261 421 l 261 143 l 442 143 q 520 156 490 143 q 567 190 550 169 q 589 235 583 211 q 594 281 594 260 q 588 323 594 299 q 565 369 582 347 q 518 406 547 390 q 443 421 489 421 l 261 421 m 433 564 q 512 578 482 564 q 558 612 542 592 q 581 655 575 632 q 586 696 586 678 q 581 737 586 714 q 558 781 575 760 q 512 815 542 801 q 433 829 482 829 l 261 829 l 261 564 l 433 564 z "},"Г":{"ha":663,"x_min":101,"x_max":663,"o":"m 101 972 l 663 972 l 663 829 l 261 829 l 261 0 l 101 0 l 101 972 z "},"Д":{"ha":981,"x_min":19,"x_max":925,"o":"m 19 -126 l 19 143 l 33 143 q 137 163 90 143 q 217 221 183 182 q 269 317 250 260 q 288 454 288 375 l 288 972 l 860 972 l 860 143 l 925 143 l 925 -126 l 782 -126 l 782 0 l 164 0 l 164 -126 l 19 -126 m 699 143 l 699 829 l 444 829 l 444 585 q 438 432 444 504 q 415 301 432 360 q 369 202 399 243 q 293 143 339 161 l 699 143 z "},"Е":{"ha":757,"x_min":101,"x_max":663,"o":"m 261 829 l 261 554 l 663 554 l 663 411 l 261 411 l 261 143 l 663 143 l 663 0 l 101 0 l 101 972 l 663 972 l 663 829 l 261 829 z "},"Ж":{"ha":1214,"x_min":7,"x_max":1207,"o":"m 211 0 l 7 0 l 389 510 q 298 567 339 524 q 229 661 257 611 l 172 761 q 115 822 146 807 q 54 836 85 836 l 28 836 l 28 979 l 76 979 q 208 936 153 979 q 303 824 263 893 l 379 690 q 444 601 411 633 q 515 569 476 569 l 531 569 l 531 972 l 683 972 l 683 569 l 699 569 q 770 601 738 569 q 835 690 803 633 l 911 824 q 1006 936 951 893 q 1138 979 1061 979 l 1186 979 l 1186 836 l 1160 836 q 1099 822 1129 836 q 1042 761 1068 807 l 985 661 q 916 567 957 611 q 825 510 875 524 l 1207 0 l 1003 0 l 683 458 l 683 0 l 531 0 l 531 458 l 211 0 z "},"З":{"ha":813,"x_min":61,"x_max":736,"o":"m 221 325 q 237 241 221 278 q 279 178 253 204 q 340 140 306 153 q 414 126 375 126 q 483 139 453 126 q 535 172 514 151 q 566 221 556 193 q 576 278 576 249 q 567 340 576 313 q 535 386 557 367 q 478 416 514 406 q 388 426 442 426 l 329 426 l 329 568 l 389 568 q 472 580 439 568 q 524 612 504 592 q 551 657 543 632 q 560 708 560 682 q 518 806 560 765 q 403 846 476 846 q 334 835 367 846 q 278 804 301 825 q 240 753 254 783 q 226 685 226 724 l 67 685 q 92 808 67 753 q 164 904 118 864 q 273 967 210 944 q 411 989 336 989 q 530 972 474 989 q 628 922 586 956 q 694 839 669 889 q 719 722 719 789 q 675 583 719 639 q 565 508 631 526 q 631 483 600 501 q 685 436 661 465 q 722 367 708 407 q 736 279 736 328 q 711 158 736 213 q 642 65 686 104 q 539 5 599 26 q 411 -17 479 -17 q 272 6 336 -17 q 160 73 207 29 q 88 180 114 117 q 61 325 61 243 l 221 325 z "},"И":{"ha":922,"x_min":101,"x_max":821,"o":"m 661 672 l 261 67 l 261 0 l 101 0 l 101 972 l 261 972 l 261 300 l 661 906 l 661 972 l 821 972 l 821 0 l 661 0 l 661 672 z "},"Й":{"ha":922,"x_min":101,"x_max":821,"o":"m 661 672 l 261 67 l 261 0 l 101 0 l 101 972 l 261 972 l 261 300 l 661 906 l 661 972 l 821 972 l 821 0 l 661 0 l 661 672 m 468 1197 q 555 1224 521 1197 q 603 1297 589 1251 l 744 1297 q 712 1212 736 1251 q 651 1143 688 1172 q 567 1097 614 1114 q 468 1081 521 1081 q 367 1097 414 1081 q 283 1143 319 1114 q 224 1212 247 1172 q 192 1297 200 1251 l 333 1297 q 381 1224 347 1251 q 468 1197 415 1197 z "},"К":{"ha":840,"x_min":101,"x_max":819,"o":"m 261 590 l 276 590 q 358 616 319 590 q 429 697 396 642 l 506 824 q 601 935 546 892 q 732 979 656 979 l 789 979 l 789 836 l 761 836 q 698 822 731 836 q 639 761 665 807 l 578 654 q 504 563 549 601 q 400 511 460 525 l 819 0 l 615 0 l 261 458 l 261 0 l 101 0 l 101 972 l 261 972 l 261 590 z "},"Л":{"ha":921,"x_min":14,"x_max":819,"o":"m 14 126 l 81 126 q 131 143 113 126 q 150 188 150 160 l 150 972 l 819 972 l 819 0 l 660 0 l 660 829 l 310 829 l 310 169 q 258 35 310 86 q 124 -17 207 -17 l 14 -17 l 14 126 z "},"М":{"ha":1129,"x_min":101,"x_max":1028,"o":"m 1028 0 l 868 0 l 868 601 l 625 0 l 504 0 l 261 601 l 261 0 l 101 0 l 101 972 l 254 972 l 565 249 l 875 972 l 1028 972 l 1028 0 z "},"Н":{"ha":924,"x_min":101,"x_max":822,"o":"m 663 411 l 261 411 l 261 0 l 101 0 l 101 972 l 261 972 l 261 554 l 663 554 l 663 972 l 822 972 l 822 0 l 663 0 l 663 411 z "},"О":{"ha":1111,"x_min":53,"x_max":1058,"o":"m 556 -24 q 345 19 439 -24 q 187 132 251 61 q 88 295 122 203 q 53 486 53 388 q 88 677 53 585 q 187 840 122 769 q 345 953 251 911 q 556 996 439 996 q 766 953 672 996 q 924 840 860 911 q 1024 677 989 769 q 1058 486 1058 585 q 1024 295 1058 388 q 924 132 989 203 q 766 19 860 61 q 556 -24 672 -24 m 556 119 q 695 150 633 119 q 801 232 757 181 q 867 349 844 283 q 890 486 890 415 q 867 623 890 557 q 801 740 844 689 q 695 822 757 792 q 556 853 633 853 q 416 822 478 853 q 310 740 354 792 q 244 623 267 689 q 221 486 221 557 q 244 349 221 415 q 310 232 267 283 q 416 150 354 181 q 556 119 478 119 z "},"П":{"ha":922,"x_min":101,"x_max":821,"o":"m 261 829 l 261 0 l 101 0 l 101 972 l 821 972 l 821 0 l 661 0 l 661 829 l 261 829 z "},"Р":{"ha":828,"x_min":101,"x_max":793,"o":"m 101 972 l 450 972 q 591 945 528 972 q 699 871 654 918 q 769 762 744 824 q 793 632 793 700 q 769 501 793 563 q 699 393 744 440 q 591 319 654 346 q 450 292 528 292 l 261 292 l 261 0 l 101 0 l 101 972 m 450 435 q 526 451 492 435 q 583 494 560 467 q 620 556 607 521 q 633 632 633 592 q 620 708 633 672 q 583 770 607 743 q 526 813 560 797 q 450 829 492 829 l 261 829 l 261 435 l 450 435 z "},"С":{"ha":1076,"x_min":53,"x_max":1025,"o":"m 1025 313 q 968 181 1008 242 q 868 74 928 119 q 731 2 808 28 q 564 -24 653 -24 q 350 18 444 -24 q 190 130 256 60 q 88 292 124 200 q 53 488 53 385 q 87 678 53 586 q 185 840 121 769 q 341 953 250 911 q 547 996 432 996 q 740 966 656 996 q 883 885 824 936 q 978 766 943 835 q 1025 618 1014 697 l 857 618 q 824 711 849 668 q 763 785 800 754 q 677 835 726 817 q 568 853 628 853 q 419 822 485 853 q 308 741 353 792 q 240 624 264 690 q 217 488 217 558 q 241 346 217 413 q 312 228 265 279 q 427 149 358 178 q 585 119 496 119 q 669 134 626 119 q 747 174 711 149 q 810 235 783 200 q 850 313 838 271 l 1025 313 z "},"Т":{"ha":669,"x_min":14,"x_max":656,"o":"m 254 829 l 14 829 l 14 972 l 656 972 l 656 829 l 414 829 l 414 0 l 254 0 l 254 829 z "},"У":{"ha":850,"x_min":15,"x_max":843,"o":"m 361 0 l 186 0 l 379 389 l 15 972 l 200 972 l 460 554 l 668 972 l 843 972 l 361 0 z "},"Ф":{"ha":1076,"x_min":35,"x_max":1042,"o":"m 618 126 l 618 0 l 458 0 l 458 126 l 378 126 q 236 155 300 126 q 128 233 172 183 q 59 347 83 282 q 35 486 35 413 q 59 625 35 560 q 128 740 83 690 q 236 817 172 789 q 378 846 300 846 l 458 846 l 458 972 l 618 972 l 618 846 l 699 846 q 840 817 776 846 q 948 740 903 789 q 1017 625 993 690 q 1042 486 1042 560 q 1017 347 1042 413 q 948 233 993 282 q 840 155 903 183 q 699 126 776 126 l 618 126 m 458 269 l 458 703 l 378 703 q 302 685 336 703 q 244 639 268 668 q 208 570 221 610 q 194 486 194 531 q 208 402 194 442 q 244 333 221 363 q 302 287 268 304 q 378 269 336 269 l 458 269 m 618 703 l 618 269 l 699 269 q 774 287 740 269 q 832 333 808 304 q 869 402 856 363 q 882 486 882 442 q 869 570 882 531 q 832 639 856 610 q 774 685 808 668 q 699 703 740 703 l 618 703 z "},"Х":{"ha":781,"x_min":11,"x_max":769,"o":"m 589 972 l 769 972 l 481 486 l 769 0 l 589 0 l 390 347 l 192 0 l 11 0 l 300 486 l 11 972 l 192 972 l 390 624 l 589 972 z "},"Ц":{"ha":942,"x_min":101,"x_max":928,"o":"m 785 -126 l 785 0 l 101 0 l 101 972 l 261 972 l 261 143 l 642 143 l 642 972 l 801 972 l 801 143 l 928 143 l 928 -126 l 785 -126 z "},"Ч":{"ha":814,"x_min":49,"x_max":713,"o":"m 553 0 l 553 292 l 368 292 q 234 317 293 292 q 133 384 175 342 q 70 483 92 426 q 49 604 49 540 l 49 972 l 208 972 l 208 646 q 260 490 208 546 q 399 435 311 435 l 553 435 l 553 972 l 713 972 l 713 0 l 553 0 z "},"Ш":{"ha":1257,"x_min":101,"x_max":1156,"o":"m 101 0 l 101 972 l 261 972 l 261 143 l 549 143 l 549 972 l 708 972 l 708 143 l 996 143 l 996 972 l 1156 972 l 1156 0 l 101 0 z "},"Щ":{"ha":1296,"x_min":101,"x_max":1282,"o":"m 1122 -126 l 1122 0 l 101 0 l 101 972 l 261 972 l 261 143 l 549 143 l 549 972 l 708 972 l 708 143 l 996 143 l 996 972 l 1156 972 l 1156 143 l 1282 143 l 1282 -126 l 1122 -126 z "},"Ъ":{"ha":896,"x_min":14,"x_max":854,"o":"m 361 422 l 361 142 l 569 142 q 660 183 626 142 q 694 282 694 224 q 660 381 694 340 q 569 422 626 422 l 361 422 m 14 972 l 361 972 l 361 564 l 569 564 q 686 541 633 564 q 776 480 739 518 q 834 390 814 442 q 854 282 854 339 q 834 174 854 225 q 776 83 814 122 q 686 22 739 44 q 569 0 633 0 l 201 0 l 201 829 l 14 829 l 14 972 z "},"Ы":{"ha":1051,"x_min":101,"x_max":950,"o":"m 261 972 l 261 564 l 436 564 q 553 541 500 564 q 643 480 606 518 q 701 390 681 442 q 721 282 721 339 q 701 174 721 225 q 643 83 681 122 q 553 22 606 44 q 436 0 500 0 l 101 0 l 101 972 l 261 972 m 261 422 l 261 142 l 436 142 q 527 183 493 142 q 561 282 561 224 q 527 381 561 340 q 436 422 493 422 l 261 422 m 790 972 l 950 972 l 950 0 l 790 0 l 790 972 z "},"Ь":{"ha":796,"x_min":101,"x_max":754,"o":"m 261 972 l 261 564 l 469 564 q 586 541 533 564 q 676 480 639 518 q 734 390 714 442 q 754 282 754 339 q 734 174 754 225 q 676 83 714 122 q 586 22 639 44 q 469 0 533 0 l 101 0 l 101 972 l 261 972 m 261 422 l 261 142 l 469 142 q 560 183 526 142 q 594 282 594 224 q 560 381 594 340 q 469 422 526 422 l 261 422 z "},"Э":{"ha":1036,"x_min":53,"x_max":983,"o":"m 375 557 l 815 557 q 783 677 807 622 q 722 771 760 732 q 632 831 683 810 q 517 853 581 853 q 403 835 454 853 q 316 785 353 817 q 256 711 279 754 q 222 618 232 668 l 54 618 q 101 766 67 697 q 192 885 135 835 q 333 966 250 936 q 524 996 415 996 q 719 956 633 996 q 863 848 804 917 q 953 687 922 779 q 983 488 983 594 q 951 283 983 376 q 859 122 919 190 q 710 15 799 53 q 507 -24 621 -24 q 343 2 419 -24 q 208 74 267 28 q 109 181 149 119 q 53 313 69 242 l 228 313 q 269 235 240 271 q 335 174 297 200 q 418 134 374 149 q 507 119 463 119 q 719 199 642 119 q 815 413 797 278 l 375 413 l 375 557 z "},"Ю":{"ha":1479,"x_min":101,"x_max":1426,"o":"m 924 -24 q 731 11 817 -24 q 581 106 644 46 q 477 244 517 165 q 425 411 438 324 l 261 411 l 261 0 l 101 0 l 101 972 l 261 972 l 261 554 l 425 554 q 475 723 436 643 q 578 863 514 803 q 729 960 642 924 q 924 996 817 996 q 1134 953 1040 996 q 1292 840 1228 911 q 1392 677 1357 769 q 1426 486 1426 585 q 1392 295 1426 388 q 1292 132 1357 203 q 1134 19 1228 61 q 924 -24 1040 -24 m 924 119 q 1063 150 1001 119 q 1169 232 1125 181 q 1235 349 1213 283 q 1258 486 1258 415 q 1235 623 1258 557 q 1169 740 1213 689 q 1063 822 1125 792 q 924 853 1001 853 q 784 822 846 853 q 678 740 722 792 q 612 623 635 689 q 589 486 589 557 q 612 349 589 415 q 678 232 635 283 q 784 150 722 181 q 924 119 846 119 z "},"Я":{"ha":846,"x_min":53,"x_max":744,"o":"m 744 0 l 585 0 l 585 292 l 425 292 l 247 0 l 65 0 l 258 317 q 172 369 210 336 q 108 442 135 401 q 67 531 81 483 q 53 632 53 579 q 77 762 53 700 q 146 871 101 824 q 254 945 190 918 q 396 972 318 972 l 744 972 l 744 0 m 396 435 l 585 435 l 585 829 l 396 829 q 320 813 354 829 q 263 770 286 797 q 226 708 239 743 q 213 632 213 672 q 226 556 213 592 q 263 494 239 521 q 320 451 286 467 q 396 435 354 435 z "},"а":{"ha":838,"x_min":53,"x_max":736,"o":"m 736 647 l 736 0 l 585 0 l 585 88 q 498 11 554 39 q 385 -17 442 -17 q 250 10 311 -17 q 145 85 189 38 q 77 193 101 132 q 53 324 53 254 q 77 453 53 392 q 145 563 101 515 q 250 637 189 610 q 385 664 311 664 q 498 636 442 664 q 585 560 554 608 l 585 647 l 736 647 m 393 118 q 472 135 436 118 q 532 179 507 151 q 571 244 557 207 q 585 324 585 282 q 571 403 585 365 q 532 468 557 440 q 472 513 507 496 q 393 529 436 529 q 315 513 350 529 q 256 468 281 496 q 217 403 231 440 q 204 324 204 365 q 217 244 204 282 q 256 179 231 207 q 315 135 281 151 q 393 118 350 118 z "},"б":{"ha":808,"x_min":69,"x_max":753,"o":"m 753 322 q 728 192 753 253 q 660 83 704 131 q 556 9 617 36 q 421 -18 494 -18 q 164 96 256 -18 q 94 240 118 154 q 69 442 69 325 q 81 601 69 532 q 113 721 93 669 q 158 808 132 772 q 211 868 183 843 q 364 951 279 929 q 554 972 449 972 l 686 972 l 686 826 l 514 826 q 396 813 451 826 q 300 758 340 799 q 236 653 260 717 q 206 507 213 589 q 244 575 219 546 q 302 624 269 604 q 371 654 335 644 q 442 664 407 664 q 575 637 517 664 q 673 563 633 610 q 733 453 713 515 q 753 324 753 392 l 753 322 m 413 117 q 490 133 456 117 q 550 178 525 150 q 588 243 575 206 q 601 322 601 281 q 588 401 601 364 q 550 467 575 439 q 490 511 525 494 q 413 528 456 528 q 333 513 368 528 q 272 469 297 497 q 234 404 247 442 q 221 322 221 367 q 234 240 221 278 q 272 175 247 203 q 333 132 297 147 q 413 117 368 117 z "},"в":{"ha":681,"x_min":101,"x_max":625,"o":"m 101 647 l 399 647 q 510 630 468 647 q 574 586 551 613 q 605 531 597 560 q 613 476 613 501 q 601 422 613 447 q 568 378 589 397 q 520 348 547 360 q 463 335 493 336 q 523 323 493 333 q 575 293 553 313 q 611 245 597 274 q 625 179 625 217 q 616 124 625 156 q 581 65 607 93 q 508 19 554 38 q 389 0 463 0 l 101 0 l 101 647 m 249 276 l 249 106 l 392 106 q 451 131 428 106 q 474 190 474 156 q 451 251 474 225 q 392 276 428 276 l 249 276 m 386 382 q 441 406 421 382 q 461 461 461 429 q 441 518 461 494 q 386 542 421 542 l 249 542 l 249 382 l 386 382 z "},"г":{"ha":499,"x_min":101,"x_max":499,"o":"m 499 647 l 499 521 l 253 521 l 253 0 l 101 0 l 101 647 l 499 647 z "},"д":{"ha":772,"x_min":14,"x_max":731,"o":"m 14 -144 l 14 118 l 28 118 q 96 133 67 118 q 143 174 125 147 q 170 235 161 200 q 179 311 179 271 l 179 647 l 681 647 l 681 118 l 731 118 l 731 -144 l 596 -144 l 596 0 l 149 0 l 149 -144 l 14 -144 m 539 118 l 539 529 l 321 529 l 321 332 q 301 198 321 254 q 229 118 282 142 l 539 118 z "},"е":{"ha":736,"x_min":54,"x_max":674,"o":"m 204 278 q 217 213 207 243 q 247 159 226 182 q 299 123 267 136 q 378 110 331 110 q 472 135 443 110 q 515 194 501 160 l 668 194 q 638 115 661 153 q 578 47 615 76 q 490 1 540 18 q 378 -17 440 -17 q 235 10 296 -17 q 135 82 175 36 q 74 190 94 128 q 54 324 54 253 q 76 458 54 396 q 138 567 97 521 q 238 638 178 613 q 374 664 297 664 q 491 642 436 664 q 587 580 546 619 q 651 488 628 540 q 674 372 674 435 q 673 333 674 356 q 667 278 672 310 l 204 278 m 369 550 q 251 510 299 550 q 204 390 204 469 l 526 390 q 483 508 526 465 q 369 550 439 550 z "},"ж":{"ha":936,"x_min":7,"x_max":929,"o":"m 178 0 l 7 0 l 283 336 q 216 360 253 339 q 158 418 179 382 l 124 478 q 43 532 93 532 l 14 532 l 14 654 l 67 654 q 154 637 114 654 q 231 560 194 619 l 297 447 q 338 395 318 413 q 383 378 357 378 l 397 378 l 397 647 l 539 647 l 539 378 l 553 378 q 599 395 579 378 q 639 447 618 413 l 706 560 q 782 637 742 619 q 869 654 822 654 l 922 654 l 922 532 l 893 532 q 813 478 843 532 l 778 418 q 720 360 757 382 q 653 336 683 339 l 929 0 l 758 0 l 539 294 l 539 0 l 397 0 l 397 294 l 178 0 z "},"з":{"ha":614,"x_min":42,"x_max":558,"o":"m 189 200 q 219 133 189 158 q 313 107 250 107 q 385 125 356 107 q 414 182 414 143 q 387 246 414 221 q 300 271 360 271 l 226 271 l 226 376 l 292 376 q 376 400 353 376 q 400 464 400 424 q 373 522 400 499 q 300 544 346 544 q 219 517 242 544 q 197 451 197 490 l 50 451 q 118 606 50 547 q 301 664 186 664 q 479 614 414 664 q 544 485 544 564 q 508 378 544 415 q 413 333 471 342 q 516 287 474 326 q 558 176 558 247 q 538 94 558 131 q 481 34 517 58 q 399 -3 446 10 q 301 -17 353 -17 q 109 42 176 -17 q 42 200 42 101 l 189 200 z "},"и":{"ha":793,"x_min":101,"x_max":692,"o":"m 540 417 l 253 54 l 253 0 l 101 0 l 101 647 l 253 647 l 253 224 l 540 589 l 540 647 l 692 647 l 692 0 l 540 0 l 540 417 z "},"й":{"ha":793,"x_min":101,"x_max":692,"o":"m 540 417 l 253 54 l 253 0 l 101 0 l 101 647 l 253 647 l 253 224 l 540 589 l 540 647 l 692 647 l 692 0 l 540 0 l 540 417 m 407 872 q 494 899 460 872 q 542 972 528 926 l 683 972 q 651 887 675 926 q 590 818 626 847 q 506 772 553 789 q 407 756 460 756 q 306 772 353 756 q 222 818 258 789 q 163 887 186 847 q 131 972 139 926 l 272 972 q 320 899 286 926 q 407 872 354 872 z "},"к":{"ha":707,"x_min":101,"x_max":679,"o":"m 253 378 l 267 378 q 313 396 292 378 q 358 447 335 414 l 442 567 q 510 634 474 614 q 597 654 546 654 l 665 654 l 665 532 l 629 532 q 585 524 607 532 q 546 489 564 515 l 503 425 q 440 364 472 379 q 378 342 407 349 l 679 0 l 500 0 l 253 294 l 253 0 l 101 0 l 101 647 l 253 647 l 253 378 z "},"л":{"ha":792,"x_min":28,"x_max":690,"o":"m 28 124 l 64 124 q 110 135 93 124 q 126 176 126 147 l 126 647 l 690 647 l 690 0 l 539 0 l 539 521 l 278 521 l 278 161 q 230 35 278 82 q 99 -11 182 -11 l 28 -11 l 28 124 z "},"м":{"ha":997,"x_min":101,"x_max":896,"o":"m 896 0 l 758 0 l 758 517 l 550 0 l 447 0 l 239 517 l 239 0 l 101 0 l 101 647 l 321 647 l 499 204 l 676 647 l 896 647 l 896 0 z "},"н":{"ha":801,"x_min":101,"x_max":700,"o":"m 549 265 l 253 265 l 253 0 l 101 0 l 101 647 l 253 647 l 253 392 l 549 392 l 549 647 l 700 647 l 700 0 l 549 0 l 549 265 z "},"о":{"ha":789,"x_min":53,"x_max":736,"o":"m 393 -17 q 253 10 315 -17 q 146 85 190 38 q 77 193 101 132 q 53 324 53 254 q 77 453 53 392 q 146 563 101 515 q 253 637 190 610 q 393 664 315 664 q 534 637 471 664 q 642 563 597 610 q 712 453 688 515 q 736 324 736 392 q 712 193 736 254 q 642 85 688 132 q 534 10 597 38 q 393 -17 471 -17 m 393 118 q 472 135 436 118 q 532 179 507 151 q 571 244 557 207 q 585 324 585 282 q 571 403 585 365 q 532 468 557 440 q 472 513 507 496 q 393 529 436 529 q 315 513 350 529 q 256 468 281 496 q 217 403 231 440 q 204 324 204 365 q 217 244 204 282 q 256 179 231 207 q 315 135 281 151 q 393 118 350 118 z "},"п":{"ha":788,"x_min":101,"x_max":686,"o":"m 686 0 l 535 0 l 535 521 l 253 521 l 253 0 l 101 0 l 101 647 l 686 647 l 686 0 z "},"р":{"ha":840,"x_min":101,"x_max":785,"o":"m 253 560 q 340 636 283 608 q 453 664 396 664 q 588 637 526 664 q 692 563 649 610 q 760 453 736 515 q 785 324 785 392 q 760 193 785 254 q 692 85 736 132 q 588 10 649 38 q 453 -17 526 -17 q 340 11 396 -17 q 253 88 283 39 l 253 -325 l 101 -325 l 101 647 l 253 647 l 253 560 m 444 529 q 365 513 400 529 q 304 468 329 496 q 266 403 279 440 q 253 324 253 365 q 266 244 253 282 q 304 179 279 207 q 365 135 329 151 q 444 118 400 118 q 522 135 488 118 q 582 179 557 151 q 620 244 607 207 q 633 324 633 282 q 620 403 633 365 q 582 468 607 440 q 522 513 557 496 q 444 529 488 529 z "},"с":{"ha":742,"x_min":56,"x_max":686,"o":"m 533 411 q 492 497 526 464 q 381 529 458 529 q 304 513 336 529 q 250 467 272 496 q 217 402 228 439 q 207 324 207 365 q 217 244 207 282 q 250 179 228 207 q 307 135 272 151 q 390 118 342 118 q 488 146 457 118 q 535 222 519 174 l 686 222 q 656 128 678 172 q 595 52 633 85 q 503 1 557 19 q 379 -17 450 -17 q 240 12 300 -17 q 138 88 179 40 q 76 196 97 135 q 56 324 56 257 q 76 451 56 389 q 138 560 97 513 q 239 635 179 607 q 378 664 299 664 q 513 642 457 664 q 606 584 569 619 q 662 503 643 549 q 685 411 681 458 l 533 411 z "},"т":{"ha":551,"x_min":14,"x_max":538,"o":"m 538 647 l 538 521 l 350 521 l 350 0 l 199 0 l 199 521 l 14 521 l 14 647 l 538 647 z "},"у":{"ha":803,"x_min":90,"x_max":706,"o":"m 393 -340 q 273 -324 328 -340 q 178 -274 218 -307 q 115 -190 138 -240 q 90 -74 92 -140 l 243 -74 q 292 -178 249 -144 q 396 -212 336 -212 q 460 -206 431 -212 q 510 -181 489 -199 q 542 -133 531 -162 q 554 -58 554 -104 l 554 90 q 469 10 524 38 q 343 -17 415 -17 q 224 7 272 -17 q 149 71 176 31 q 116 151 125 107 q 107 263 107 196 l 107 647 l 258 647 l 258 313 q 265 235 258 271 q 288 173 272 199 q 331 132 304 147 q 399 117 358 117 q 516 173 478 117 q 554 313 554 229 l 554 647 l 706 647 l 706 -58 q 625 -271 706 -199 q 393 -340 546 -340 z "},"ф":{"ha":886,"x_min":53,"x_max":833,"o":"m 378 -15 q 247 19 307 -10 q 144 93 188 47 q 77 199 101 139 q 53 324 53 258 q 77 448 53 389 q 144 553 101 507 q 247 628 188 599 q 378 663 307 657 l 378 972 l 508 972 l 508 663 q 639 628 579 657 q 742 553 699 599 q 809 448 785 507 q 833 324 833 389 q 809 199 833 258 q 742 94 785 140 q 639 19 699 49 q 508 -15 579 -10 l 508 -324 l 378 -324 l 378 -15 m 686 324 q 675 402 686 365 q 641 468 664 439 q 585 515 618 497 q 508 536 551 533 l 508 111 q 585 129 551 111 q 641 176 618 147 q 675 244 664 206 q 686 324 686 282 m 200 324 q 211 245 200 283 q 245 177 222 207 q 301 129 268 147 q 378 111 333 111 l 378 536 q 301 515 333 533 q 245 468 268 497 q 211 401 222 439 q 200 324 200 364 z "},"х":{"ha":619,"x_min":11,"x_max":608,"o":"m 608 0 l 433 0 l 310 208 l 186 0 l 11 0 l 222 326 l 15 647 l 190 647 l 310 444 l 429 647 l 604 647 l 397 326 l 608 0 z "},"ц":{"ha":825,"x_min":101,"x_max":783,"o":"m 633 -104 l 633 0 l 101 0 l 101 647 l 253 647 l 253 126 l 528 126 l 528 647 l 679 647 l 679 126 l 783 126 l 783 -104 l 633 -104 z "},"ч":{"ha":683,"x_min":56,"x_max":582,"o":"m 431 0 l 431 186 l 281 186 q 114 240 172 186 q 56 404 56 294 l 56 647 l 207 647 l 207 407 q 304 313 207 313 l 431 313 l 431 647 l 582 647 l 582 0 l 431 0 z "},"ш":{"ha":1088,"x_min":101,"x_max":986,"o":"m 619 126 l 835 126 l 835 647 l 986 647 l 986 0 l 101 0 l 101 647 l 253 647 l 253 126 l 468 126 l 468 647 l 619 647 l 619 126 z "},"щ":{"ha":1132,"x_min":101,"x_max":1090,"o":"m 940 -104 l 940 0 l 101 0 l 101 647 l 253 647 l 253 126 l 468 126 l 468 647 l 619 647 l 619 126 l 835 126 l 835 647 l 986 647 l 986 126 l 1090 126 l 1090 -104 l 940 -104 z "},"ъ":{"ha":708,"x_min":21,"x_max":653,"o":"m 139 521 l 21 521 l 21 647 l 281 647 l 281 439 l 439 439 q 533 422 493 439 q 599 374 572 404 q 640 305 626 344 q 653 219 653 265 q 640 135 653 175 q 599 65 626 96 q 533 17 572 35 q 439 0 493 0 l 139 0 l 139 521 m 281 319 l 281 119 l 411 119 q 489 147 464 119 q 514 219 514 175 q 489 292 514 264 q 411 319 464 319 l 281 319 z "},"ы":{"ha":936,"x_min":101,"x_max":835,"o":"m 685 647 l 835 647 l 835 0 l 685 0 l 685 647 m 101 647 l 243 647 l 243 439 l 401 439 q 495 422 456 439 q 562 374 535 404 q 602 305 589 344 q 615 219 615 265 q 602 135 615 175 q 562 65 589 96 q 495 17 535 35 q 401 0 456 0 l 101 0 l 101 647 m 243 319 l 243 119 l 374 119 q 451 147 426 119 q 476 219 476 175 q 451 292 476 264 q 374 319 426 319 l 243 319 z "},"ь":{"ha":671,"x_min":101,"x_max":615,"o":"m 101 647 l 243 647 l 243 439 l 401 439 q 495 422 456 439 q 562 374 535 404 q 602 305 589 344 q 615 219 615 265 q 602 135 615 175 q 562 65 589 96 q 495 17 535 35 q 401 0 456 0 l 101 0 l 101 647 m 243 319 l 243 119 l 374 119 q 451 147 426 119 q 476 219 476 175 q 451 292 476 264 q 374 319 426 319 l 243 319 z "},"э":{"ha":753,"x_min":56,"x_max":700,"o":"m 57 411 q 81 510 58 464 q 143 590 103 556 q 240 644 183 625 q 367 664 297 664 q 515 635 453 664 q 619 560 578 607 q 680 451 660 513 q 700 324 700 389 q 680 196 700 257 q 619 88 660 135 q 515 12 578 40 q 367 -17 453 -17 q 239 2 296 -17 q 142 53 182 21 q 79 128 101 85 q 56 222 57 172 l 207 222 q 255 147 215 176 q 374 118 294 118 q 499 158 458 118 q 546 267 539 199 l 294 267 l 294 379 l 546 379 q 499 488 539 446 q 374 529 458 529 q 256 496 294 529 q 208 411 217 463 l 57 411 z "}}}
